# Blender v3.0.0 OBJ File: ''
# www.blender.org
mtllib market_roof_slanted_legs_right_bottom.mtl
o cube
v 0.999972 -0.000056 -0.000000
v -0.001236 0.499128 0.000000
v -0.001236 0.499128 0.000000
v 0.999972 -0.000056 -0.000000
v 0.999972 -0.000056 1.000000
v 0.999972 -0.000056 1.000000
v -0.001236 0.499128 1.000000
v -0.001236 0.499128 1.000000
vt 0.000000 1.000000
vt 1.000000 1.000000
vt 1.000000 1.000000
vt 0.000000 1.000000
vt 0.000000 1.000000
vt 1.000000 1.000000
vt 1.000000 1.000000
vt 0.000000 1.000000
vt 0.000000 1.000000
vt 1.000000 1.000000
vt 1.000000 1.000000
vt 0.000000 1.000000
vt 0.000000 1.000000
vt 1.000000 1.000000
vt 1.000000 1.000000
vt 0.000000 1.000000
vt 0.000000 0.000000
vt 1.000000 0.000000
vt 0.000000 0.000000
vt 1.000000 0.000000
vn -0.0000 -0.0000 -1.0000
vn 0.0000 0.0000 0.0000
vn 0.0000 0.0000 1.0000
vn 0.4462 0.8949 0.0000
vn -0.4462 -0.8949 -0.0000
usemtl none
s 1
f 1/1/1 2/2/1 3/3/1 4/4/1
f 5/5/2 1/6/2 4/7/2 6/8/2
f 7/9/3 5/10/3 6/11/3 8/12/3
f 2/13/2 7/14/2 8/15/2 3/16/2
usemtl m_464c1091-2413-9745-5fd1-e55f6f06adfb
f 8/17/4 6/18/4 4/7/4 3/16/4
f 2/19/5 1/20/5 5/10/5 7/9/5
o cube.003_cube.006
v 0.937500 0.000000 0.062500
v 0.750000 0.000000 0.062500
v 0.750000 0.123376 0.062500
v 0.937500 0.029762 0.062500
v 0.937500 0.000000 0.250000
v 0.937500 0.029762 0.250000
v 0.750000 0.000000 0.250000
v 0.750000 0.123376 0.250000
vt 0.375081 0.000081
vt 0.624919 0.000081
vt 0.624919 0.282978
vt 0.375081 0.158788
vt 0.375000 0.000000
vt 0.625000 0.000000
vt 0.625000 0.250000
vt 0.375000 0.250000
vt 0.375081 0.000081
vt 0.624919 0.000081
vt 0.624919 0.158788
vt 0.375081 0.282977
vt 0.375000 0.000000
vt 0.625000 0.000000
vt 0.625000 0.125000
vt 0.375000 0.125000
vt 0.000000 0.781250
vt 0.250000 0.781250
vt 0.250000 1.000000
vt 0.000000 1.000000
vt 0.750000 0.781250
vt 1.000000 0.781250
vt 1.000000 1.000000
vt 0.750000 1.000000
vn 0.0000 0.0000 -1.0000
vn 1.0000 0.0000 0.0000
vn -0.0000 -0.0000 1.0000
vn -1.0000 0.0000 0.0000
vn 0.4467 0.8947 0.0000
vn 0.0000 -1.0000 -0.0000
usemtl m_111c20c8-ff4b-f965-9a1a-6e52571ea86d
s 1
f 9/21/6 10/22/6 11/23/6 12/24/6
f 13/25/7 9/26/7 12/27/7 14/28/7
f 15/29/8 13/30/8 14/31/8 16/32/8
f 10/33/9 15/34/9 16/35/9 11/36/9
f 16/37/10 14/38/10 12/39/10 11/40/10
f 10/41/11 9/42/11 13/43/11 15/44/11
