# Blender 4.2.1 LTS
# www.blender.org
mtllib sandstone_diagonal_single_arch.mtl
o cube.013
v 1.128135 0.593750 -0.251831
v 0.930227 0.514935 -0.450034
v 0.220177 0.514935 0.260016
v 0.418381 0.593750 0.457923
v 1.693353 1.000000 0.312499
v 0.686635 1.000000 -0.694219
v 1.693353 0.593750 0.312499
v 0.686635 0.593750 -0.694219
v -0.024008 1.000000 0.016423
v 0.982711 1.000000 1.023141
v -0.024008 0.593750 0.016423
v 0.982711 0.593750 1.023142
v 0.686635 0.593750 -0.694219
v 0.686635 0.518750 -0.694219
v -0.024008 0.593750 0.016423
v -0.024008 0.518750 0.016423
v 0.686635 0.518750 -0.694219
v -0.024008 0.518750 0.016423
v 0.771884 0.359732 -0.608378
v 0.686635 0.362500 -0.694219
v -0.024008 0.362500 0.016423
v 0.061834 0.359732 0.101673
v 1.693353 0.362500 0.312499
v 1.607511 0.359732 0.227250
v 0.897461 0.359732 0.937300
v 0.982711 0.362500 1.023142
v 1.693353 0.518750 0.312499
v 0.982711 0.518750 1.023142
v 1.693353 0.593750 0.312499
v 1.693353 0.518750 0.312499
v 1.449168 0.514936 0.068907
v 0.982711 0.593750 1.023142
v 0.739118 0.514936 0.778957
v 0.982711 0.518750 1.023142
v 0.686191 0.156250 -0.693775
v 0.687134 -0.000000 -0.692831
v -0.023563 0.156250 0.015979
v -0.022620 -0.000000 0.016923
v 1.692909 0.156250 0.312943
v 0.983155 0.156250 1.022697
v 1.250964 0.593750 -0.129001
v 0.541210 0.593750 0.580753
v 1.691965 0.000000 0.312000
v 0.982211 0.000000 1.021754
vn 0.1909 -0.9629 0.1909
vn 0.1910 -0.9628 0.1910
vn -0.7071 -0.0000 -0.7071
vn 0.7071 -0.0000 -0.7071
vn 0.7071 -0.0000 0.7071
vn -0.7071 -0.0000 0.7071
vn -0.0000 1.0000 -0.0000
vn 0.7079 -0.0006 -0.7063
vn 0.7074 -0.0006 -0.7068
vn 0.7080 -0.0009 -0.7062
vn 0.7084 -0.0013 -0.7058
vn 0.7112 -0.0047 -0.7030
vn 0.7110 0.0008 -0.7032
vn 0.7068 -0.0061 -0.7074
vn -0.7079 -0.0006 0.7063
vn -0.7084 -0.0013 0.7058
vn -0.7112 -0.0047 0.7030
vn -0.7110 0.0008 0.7032
vn -0.7068 -0.0061 0.7074
vn 0.9674 0.0006 0.2534
vn 0.2535 0.0005 0.9673
vn -0.6090 -0.5080 -0.6091
vn -0.6091 -0.5080 -0.6091
vn 0.6096 0.5067 0.6096
vn 0.6107 0.5067 0.6086
vn 0.6095 0.5067 0.6097
vn -0.4064 -0.8183 -0.4064
vn -0.7063 -0.0006 0.7079
vn -0.7066 -0.0006 0.7076
vn -0.1915 -0.9626 -0.1915
vn 0.4064 -0.8183 0.4064
vn -0.6098 0.5062 -0.6098
vn -0.6109 0.5062 -0.6087
vn -0.6105 0.5062 -0.6091
vn 0.6088 -0.5086 0.6088
vn 0.6091 -0.5080 0.6091
vn -0.0000 -1.0000 -0.0000
vn -0.2539 0.0015 -0.9672
vn -0.9672 0.0005 -0.2539
vn -0.7092 -0.0011 0.7050
vn -0.7030 -0.0047 0.7112
vn -0.7058 -0.0013 0.7084
vn -0.6556 -0.3843 0.6500
vn 0.7063 -0.0006 -0.7079
vn 0.7074 -0.0061 -0.7068
vn 0.7032 0.0008 -0.7110
vn 0.7030 -0.0047 -0.7112
vn 0.7058 -0.0013 -0.7084
vt 0.000000 0.781250
vt 1.000000 0.781250
vt 1.000000 1.000000
vt 0.000000 1.000000
vt 0.000000 0.593750
vt 1.000000 0.593750
vt 0.000000 0.000000
vt 1.000000 0.000000
vt 0.000000 0.581250
vt 1.000000 0.581250
vt 1.000000 0.656250
vt 0.000000 0.656250
vt 1.000000 0.592195
vt 0.560799 0.590668
vt 0.757610 0.513059
vt 1.000000 0.515166
vt 1.000000 0.517904
vt 0.757225 0.516495
vt 0.917118 0.359431
vt 1.000000 0.358847
vt 0.757339 0.514298
vt 1.000000 0.518058
vt 1.000000 0.591972
vt 0.560522 0.591972
vt 1.000000 0.516885
vt 0.757775 0.514457
vt 0.914152 0.376938
vt 1.000000 0.377704
vt 1.000000 0.695312
vt 0.000000 0.695312
vt 0.000000 0.476562
vt 1.000000 0.476562
vt 0.000000 0.155402
vt 0.085027 0.356424
vt 0.000000 0.359610
vt 1.000000 0.158092
vt 1.000000 0.362413
vt 0.914287 0.361449
vt 1.000000 0.250000
vt 0.000000 0.250000
vt 0.242310 0.517108
vt 0.438727 0.593635
vt 0.000030 0.593809
vt 0.000000 0.520849
vt 0.000000 0.503906
vt 1.000000 0.503906
vt 1.000000 0.722656
vt 0.000000 0.722656
vt 0.000000 0.468750
vt 1.000000 0.468750
vt 1.000000 0.750000
vt 0.000000 0.750000
vt 1.000000 0.157907
vt 1.000000 0.358414
vt 0.917298 0.358581
vt 0.000000 0.159967
vt 0.084849 0.361123
vt 0.000000 0.362846
vt 0.000000 0.508233
vt 1.000000 0.508233
vt 1.000000 0.710517
vt 0.000000 0.710517
vt 0.084636 0.359602
vt 0.242668 0.518650
vt 0.000000 0.519417
vt 0.000000 0.359659
vt 0.242943 0.517963
vt 0.438954 0.594140
vt 0.000000 0.594140
vt 0.000000 0.521650
vt 0.000000 0.363409
vt 0.085619 0.360120
vt 0.241974 0.512289
vt 0.000000 0.517172
s 0
usemtl Sandstone
f 3/1/1 2/2/2 1/3/1 4/4/1
f 8/5/3 11/6/3 9/3/3 6/4/3
f 7/5/4 8/6/4 6/3/4 5/4/4
f 12/5/5 7/6/5 5/3/5 10/4/5
f 11/5/6 12/6/6 10/3/6 9/4/6
f 10/7/7 5/8/7 6/3/7 9/4/7
f 14/9/3 16/10/3 15/11/3 13/12/3
f 13/13/8 1/14/9 2/15/10 17/16/8
f 17/17/11 2/18/12 19/19/13 20/20/14
f 33/21/15 34/22/15 32/23/15 42/24/15
f 34/25/16 33/26/17 25/27/18 26/28/19
f 23/3/20 30/10/5 34/9/5 26/4/21
f 34/9/5 30/10/5 29/11/5 32/12/5
f 36/29/3 38/30/3 37/31/3 35/32/3
f 39/3/22 40/4/23 25/1/22 24/2/22
f 39/33/4 24/34/4 23/35/4
f 40/1/24 39/2/25 23/3/26 26/4/24
f 40/36/6 26/37/6 25/38/6
f 24/39/27 25/40/27 33/7/27 31/8/27
f 3/41/28 4/42/29 15/43/28 18/44/28
f 42/1/30 41/2/30 31/3/30 33/4/30
f 44/45/5 43/46/5 39/47/5 40/48/5
f 22/49/31 19/50/31 2/51/31 3/52/31
f 35/3/32 37/4/33 21/1/32 20/2/34
f 35/53/4 20/54/4 19/55/4
f 37/1/35 35/2/36 19/3/35 22/4/35
f 37/56/6 22/57/6 21/58/6
f 4/59/37 1/60/37 41/61/37 42/62/37
f 18/3/3 17/4/3 20/1/38 21/2/39
f 22/63/40 3/64/41 18/65/42 21/66/43
f 31/67/44 41/68/44 29/69/44 30/70/44
f 23/71/45 24/72/46 31/73/47 30/74/48
l 27 28
