# Blender 3.6.1
# www.blender.org
mtllib lapis_triple_arch_top_center.mtl
o Lapis_Triple_Arch_Top_Centre
v 1.000000 1.000000 1.000000
v 1.000000 1.000000 -0.000000
v 1.000000 0.343750 1.000000
v 1.000000 0.343750 -0.000000
v 0.000000 1.000000 1.000000
v 0.000000 1.000000 -0.000000
v 0.000000 0.343750 1.000000
v 0.000000 0.343750 -0.000000
v 0.673191 0.452056 1.012500
v 0.673191 0.452056 -0.012500
v 0.859087 0.427582 1.012500
v 0.859087 0.427582 -0.012500
v 0.656875 0.328125 1.012500
v 0.656875 0.328125 -0.012500
v 0.842771 0.303651 1.012500
v 0.842771 0.303651 -0.012500
v 0.337673 0.453006 1.012500
v 0.337673 0.453006 -0.012500
v 0.499247 0.459849 1.012500
v 0.499247 0.459849 -0.012500
v 0.343125 0.328125 1.012500
v 0.343125 0.328125 -0.012500
v 0.499851 0.334968 1.012500
v 0.499851 0.334968 -0.012500
v 0.326809 0.452056 -0.012500
v 0.326809 0.452056 1.012500
v 0.140913 0.427582 -0.012500
v 0.140913 0.427582 1.012500
v 0.343125 0.328125 -0.012500
v 0.343125 0.328125 1.012500
v 0.157229 0.303651 -0.012500
v 0.157229 0.303651 1.012500
v 0.875123 0.424392 1.012500
v 0.875123 0.424392 -0.012500
v 1.056234 0.375864 1.012500
v 1.056234 0.375863 -0.012500
v 0.842771 0.303651 1.012500
v 0.842771 0.303651 -0.012500
v 1.023882 0.255123 1.012500
v 1.023882 0.255123 -0.012500
v 0.498314 0.459849 1.012500
v 0.498314 0.459849 -0.012500
v 0.662327 0.453006 1.012500
v 0.662327 0.453006 -0.012500
v 0.500149 0.334968 1.012500
v 0.500149 0.334968 -0.012500
v 0.656875 0.328125 1.012500
v 0.656875 0.328125 -0.012500
v 0.124877 0.424392 -0.012500
v 0.124877 0.424392 1.012500
v -0.056234 0.375863 -0.012500
v -0.056234 0.375864 1.012500
v 0.157229 0.303651 -0.012500
v 0.157229 0.303651 1.012500
v -0.023882 0.255123 -0.012500
v -0.023882 0.255123 1.012500
vn 1.0000 -0.0000 -0.0000
vn -1.0000 -0.0000 -0.0000
vn -0.0000 1.0000 -0.0000
vn -0.0000 -1.0000 -0.0000
vn -0.0000 -0.0000 1.0000
vn -0.0000 -0.0000 -1.0000
vn 0.1305 0.9914 -0.0000
vn -0.1305 -0.9914 -0.0000
vn -0.9914 0.1305 -0.0000
vn 0.9914 -0.1305 -0.0000
vn -0.0423 0.9991 -0.0000
vn 0.0436 -0.9990 -0.0000
vn -0.9990 -0.0436 -0.0000
vn 1.0000 0.0048 -0.0000
vn -0.1305 0.9914 -0.0000
vn 0.1305 -0.9914 -0.0000
vn 0.9914 0.1305 -0.0000
vn -0.9914 -0.1305 -0.0000
vn 0.2588 0.9659 -0.0000
vn -0.2588 -0.9659 -0.0000
vn -0.9659 0.2588 -0.0000
vn 0.9659 -0.2588 -0.0000
vn 0.0417 0.9991 -0.0000
vn -0.0436 -0.9990 -0.0000
vn -0.9999 -0.0147 -0.0000
vn 0.9990 -0.0436 -0.0000
vn -0.2588 0.9659 -0.0000
vn 0.2588 -0.9659 -0.0000
vn 0.9659 0.2588 -0.0000
vn -0.9659 -0.2588 -0.0000
vt 1.000000 0.375000
vt 1.000000 1.000000
vt 0.000000 1.000000
vt 0.000000 0.375000
vt 1.000000 0.000000
vt 0.000000 0.000000
vt 0.500000 0.000000
vt 0.500000 1.000000
vt 1.000000 0.343750
vt 1.000000 1.000000
vt 0.000000 1.000000
vt 0.000000 0.343750
vt 0.125000 0.812500
vt 0.125000 1.000000
vt 0.000000 0.812500
vt 1.000000 0.255859
vt 1.000000 0.537109
vt -0.000000 0.537109
vt -0.000000 0.255859
vt 1.000000 0.718750
vt 0.000000 0.718750
vt 0.531250 0.000000
vt 0.531250 0.281250
vt 0.000000 0.281250
vt 1.000000 0.632650
vt 1.000000 0.499047
vt 0.000000 0.499047
vt 0.000000 0.632650
vt 0.253906 0.000000
vt 0.535156 0.000000
vt 0.535156 0.281250
vt 0.253906 0.281250
vt 0.250000 0.000000
vt 0.250000 0.281250
vt 1.000000 0.253906
vt 1.000000 0.535156
vt 0.000000 0.535156
vt 0.000000 0.253906
vt 1.000000 0.504906
vt 1.000000 0.786156
vt -0.000000 0.786156
vt -0.000000 0.504906
vt 1.000000 0.501000
vt 1.000000 0.634603
vt -0.000000 0.634603
vt -0.000000 0.501000
vt 0.000000 0.000000
vt 0.281250 0.000000
vt 0.281250 0.281250
vt 1.000000 0.782250
vt 0.000000 0.782250
vt 0.000000 0.501000
vt 0.000000 0.481184
vt 0.995079 0.481184
vt 1.000000 0.756382
vt 0.004922 0.756382
s 0
usemtl Lapis_Main
f 4/1/1 2/2/1 1/3/1 3/4/1
f 7/1/2 5/2/2 6/3/2 8/4/2
f 1/5/3 2/2/3 6/3/3 5/6/3
f 4/7/4 3/8/4 7/3/4 8/6/4
f 3/9/5 1/10/5 5/11/5 7/12/5
f 8/9/6 6/10/6 2/11/6 4/12/6
f 12/13/7 10/14/7 9/3/7 11/15/7
f 15/16/8 13/17/8 14/18/8 16/19/8
f 9/20/9 10/2/9 14/3/9 13/21/9
f 12/20/10 11/2/10 15/3/10 16/21/10
f 11/22/5 9/23/5 13/24/5 15/6/5
f 16/22/6 14/23/6 10/24/6 12/6/6
f 20/13/11 18/14/11 17/3/11 19/15/11
f 23/25/12 21/26/12 22/27/12 24/28/12
f 17/20/13 18/2/13 22/3/13 21/21/13
f 20/20/14 19/2/14 23/3/14 24/21/14
f 19/29/5 17/30/5 21/31/5 23/32/5
f 24/33/6 22/22/6 18/23/6 20/34/6
f 28/13/15 26/14/15 25/3/15 27/15/15
f 31/35/16 29/36/16 30/37/16 32/38/16
f 25/20/17 26/2/17 30/3/17 29/21/17
f 28/20/18 27/2/18 31/3/18 32/21/18
f 27/22/6 25/23/6 29/24/6 31/6/6
f 32/22/5 30/23/5 26/24/5 28/6/5
f 36/13/19 34/14/19 33/3/19 35/15/19
f 39/39/20 37/40/20 38/41/20 40/42/20
f 33/20/21 34/2/21 38/3/21 37/21/21
f 36/20/22 35/2/22 39/3/22 40/21/22
f 35/22/5 33/23/5 37/24/5 39/6/5
f 40/22/6 38/23/6 34/24/6 36/6/6
f 44/13/23 42/14/23 41/3/23 43/15/23
f 47/43/24 45/44/24 46/45/24 48/46/24
f 41/20/25 42/2/25 46/3/25 45/21/25
f 44/20/26 43/2/26 47/3/26 48/21/26
f 43/47/5 41/48/5 45/49/5 47/24/5
f 48/47/6 46/48/6 42/49/6 44/24/6
f 52/13/27 50/14/27 49/3/27 51/15/27
f 55/43/28 53/50/28 54/51/28 56/52/28
f 49/20/29 50/2/29 54/3/29 53/21/29
f 52/53/30 51/54/30 55/55/30 56/56/30
f 51/22/6 49/23/6 53/24/6 55/6/6
f 56/22/5 54/23/5 50/24/5 52/6/5
