# Blender 3.6.1
# www.blender.org
mtllib lapis_double_arch.mtl
o double_arch__lapis
v 1.120741 0.032352 -0.012500
v 1.056036 0.273834 -0.012500
v 1.056036 0.273834 1.012500
v 1.120741 0.032352 1.012500
v 1.000000 0.000000 1.012500
v 0.935295 0.241481 1.012500
v 0.935295 0.241481 -0.012500
v 1.000000 -0.000000 -0.012500
v 1.000000 0.450000 -0.000000
v 1.000000 0.637500 -0.000000
v 1.000000 0.637500 1.000000
v 1.000000 0.450000 1.000000
v 0.818750 0.450000 1.000000
v 0.808746 0.637500 1.000000
v 0.808746 0.637500 -0.000000
v 0.818750 0.450000 -0.000000
v 1.000000 0.825000 -0.000000
v 1.000000 1.000000 -0.000000
v 1.000000 1.000000 1.000000
v 1.000000 0.825000 1.000000
v 0.000000 0.825000 1.000000
v 0.000000 1.000000 1.000000
v 0.000000 1.000000 -0.000000
v 0.000000 0.825000 -0.000000
v 1.000000 0.756250 -0.000000
v 1.000000 0.825000 -0.000000
v 1.000000 0.825000 1.000000
v 1.000000 0.756250 1.000000
v 0.429533 0.756250 1.000000
v 0.418750 0.825000 1.000000
v 0.418750 0.825000 -0.000000
v 0.429533 0.756250 -0.000000
v 1.000000 0.637500 -0.000000
v 1.000000 0.756250 -0.000000
v 1.000000 0.756250 1.000000
v 1.000000 0.637500 1.000000
v 0.635166 0.637500 1.000000
v 0.625000 0.756250 1.000000
v 0.625000 0.756250 -0.000000
v 0.635166 0.637500 -0.000000
v 1.000000 0.206250 -0.000000
v 1.000000 0.450000 -0.000000
v 1.000000 0.450000 1.000000
v 1.000000 0.206250 1.000000
v 0.943750 0.268750 1.000000
v 0.943750 0.450000 1.000000
v 0.943750 0.450000 -0.000000
v 0.943750 0.268750 -0.000000
v 1.043548 0.303981 -0.012500
v 0.918548 0.520488 -0.012500
v 0.918548 0.520488 1.012500
v 1.043548 0.303981 1.012500
v 0.935295 0.241481 1.012500
v 0.810295 0.457988 1.012500
v 0.810295 0.457988 -0.012500
v 0.935295 0.241481 -0.012500
v 0.898684 0.546376 -0.012500
v 0.721907 0.723153 -0.012500
v 0.721907 0.723153 1.012500
v 0.898684 0.546376 1.012500
v 0.810295 0.457988 1.012500
v 0.633519 0.634764 1.012500
v 0.633519 0.634764 -0.012500
v 0.810295 0.457988 -0.012500
v 0.696019 0.743018 -0.012500
v 0.479512 0.868018 -0.012500
v 0.479512 0.868017 1.012500
v 0.696019 0.743017 1.012500
v 0.633519 0.634764 1.012500
v 0.417012 0.759764 1.012500
v 0.417012 0.759764 -0.012500
v 0.633519 0.634764 -0.012500
v 0.449365 0.880505 -0.012500
v 0.207883 0.945210 -0.012500
v 0.207883 0.945210 1.012500
v 0.449365 0.880505 1.012500
v 0.417012 0.759764 1.012500
v 0.175531 0.824469 1.012500
v 0.175531 0.824469 -0.012500
v 0.417012 0.759764 -0.012500
v 0.175531 0.949469 -0.012500
v 0.000531 0.949469 -0.012500
v 0.000531 0.949469 1.012500
v 0.175531 0.949469 1.012500
v 0.175531 0.824469 1.012500
v 0.000531 0.824469 1.012500
v 0.000531 0.824469 -0.012500
v 0.175531 0.824469 -0.012500
vn 0.9659 0.2588 -0.0000
vn -0.9659 -0.2588 -0.0000
vn -0.2588 0.9659 -0.0000
vn 0.2588 -0.9659 -0.0000
vn -0.0000 -0.0000 1.0000
vn -0.0000 -0.0000 -1.0000
vn 1.0000 -0.0000 -0.0000
vn -0.9986 -0.0533 -0.0000
vn -0.0000 1.0000 -0.0000
vn -0.0000 -1.0000 -0.0000
vn -1.0000 -0.0000 -0.0000
vn -0.9879 -0.1549 -0.0000
vn -0.9964 -0.0853 -0.0000
vn -0.7433 -0.6690 -0.0000
vn 0.8660 0.5000 -0.0000
vn -0.8660 -0.5000 -0.0000
vn -0.5000 0.8660 -0.0000
vn 0.5000 -0.8660 -0.0000
vn 0.7071 0.7071 -0.0000
vn -0.7071 -0.7071 -0.0000
vn -0.7071 0.7071 -0.0000
vn 0.7071 -0.7071 -0.0000
vn 0.5000 0.8660 -0.0000
vn -0.5000 -0.8660 -0.0000
vn -0.8660 0.5000 -0.0000
vn 0.8660 -0.5000 -0.0000
vn 0.2588 0.9659 -0.0000
vn -0.2588 -0.9659 -0.0000
vn -0.9659 0.2588 -0.0000
vn 0.9659 -0.2588 -0.0000
vt 1.000000 0.750000
vt 1.000000 1.000000
vt 0.000000 1.000000
vt 0.000000 0.750000
vt 1.000000 0.000000
vt 1.000000 0.250000
vt 0.000000 0.250000
vt 0.000000 0.000000
vt 0.125000 0.000000
vt 0.125000 1.000000
vt 0.537902 0.787642
vt 0.000000 0.785181
vt 0.000000 0.495088
vt 0.537902 0.497549
vt 1.000000 0.931250
vt 0.000000 0.931250
vt 0.581250 0.000000
vt 0.581250 1.000000
vt 1.000000 0.447735
vt 1.000000 0.636564
vt 0.805314 0.634103
vt 0.825000 0.447735
vt 0.175000 0.448966
vt 0.190625 0.635333
vt 0.000000 0.635333
vt 0.000000 0.448966
vt 1.000000 0.825000
vt 0.000000 0.825000
vt 1.000000 0.755314
vt 1.000000 0.824064
vt 0.417029 0.821603
vt 0.424412 0.752853
vt 0.570176 0.756544
vt 0.581250 0.826525
vt 0.000000 0.826525
vt 0.000000 0.754083
vt 1.000000 0.633515
vt 1.000000 0.757382
vt 0.621015 0.757382
vt 0.621015 0.633515
vt 0.363360 0.635975
vt 0.371973 0.756152
vt 0.000000 0.756152
vt 0.000000 0.635975
vt 1.000000 0.243750
vt 1.000000 0.468750
vt 0.937500 0.468750
vt 0.937500 0.243750
vt 0.054922 0.243750
vt 0.054922 0.446603
vt 0.000000 0.446603
vt 0.000000 0.243750
vt 1.000000 0.250000
vt 1.000000 0.500000
vt 0.000000 0.500000
vt 0.000000 0.250000
vt 1.000000 0.251000
vt 1.000000 0.376000
vt 0.000000 0.376000
vt 0.000000 0.251000
vt 0.000000 0.280250
vt 0.444392 0.280250
vt 0.444392 0.000000
vt 0.500990 0.280250
vt 0.500990 0.000000
s 1
usemtl Lapis_Main
f 1/1/1 2/2/1 3/3/1 4/4/1
f 5/5/2 6/6/2 7/7/2 8/8/2
f 3/9/3 2/10/3 7/3/3 6/8/3
f 1/9/4 4/10/4 5/3/4 8/8/4
f 4/11/5 3/12/5 6/13/5 5/14/5
f 8/11/6 7/12/6 2/13/6 1/14/6
f 9/15/7 10/2/7 11/3/7 12/16/7
f 13/15/8 14/2/8 15/3/8 16/16/8
f 11/17/9 10/18/9 15/3/9 14/8/9
f 9/17/10 12/18/10 13/3/10 16/8/10
f 12/19/5 11/20/5 14/21/5 13/22/5
f 16/23/6 15/24/6 10/25/6 9/26/6
f 17/27/7 18/2/7 19/3/7 20/28/7
f 21/27/11 22/2/11 23/3/11 24/28/11
f 19/5/9 18/2/9 23/3/9 22/8/9
f 17/5/10 20/2/10 21/3/10 24/8/10
f 20/27/5 19/2/5 22/3/5 21/28/5
f 24/27/6 23/2/6 18/3/6 17/28/6
f 25/15/7 26/2/7 27/3/7 28/16/7
f 29/15/12 30/2/12 31/3/12 32/16/12
f 27/17/9 26/18/9 31/3/9 30/8/9
f 25/17/10 28/18/10 29/3/10 32/8/10
f 28/29/5 27/30/5 30/31/5 29/32/5
f 32/33/6 31/34/6 26/35/6 25/36/6
f 33/15/7 34/2/7 35/3/7 36/16/7
f 37/15/13 38/2/13 39/3/13 40/16/13
f 35/17/9 34/18/9 39/3/9 38/8/9
f 33/17/10 36/18/10 37/3/10 40/8/10
f 36/37/5 35/38/5 38/39/5 37/40/5
f 40/41/6 39/42/6 34/43/6 33/44/6
f 41/15/7 42/2/7 43/3/7 44/16/7
f 45/15/11 46/2/11 47/3/11 48/16/11
f 43/17/9 42/18/9 47/3/9 46/8/9
f 41/17/14 44/18/14 45/3/14 48/8/14
f 44/45/5 43/46/5 46/47/5 45/48/5
f 48/49/6 47/50/6 42/51/6 41/52/6
f 49/1/15 50/2/15 51/3/15 52/4/15
f 53/53/16 54/54/16 55/55/16 56/56/16
f 51/9/17 50/10/17 55/3/17 54/8/17
f 49/9/18 52/10/18 53/3/18 56/8/18
f 52/11/5 51/12/5 54/13/5 53/14/5
f 56/11/6 55/12/6 50/13/6 49/14/6
f 57/1/19 58/2/19 59/3/19 60/4/19
f 61/5/20 62/6/20 63/7/20 64/8/20
f 59/9/21 58/10/21 63/3/21 62/8/21
f 57/9/22 60/10/22 61/3/22 64/8/22
f 60/11/5 59/12/5 62/13/5 61/14/5
f 64/11/6 63/12/6 58/13/6 57/14/6
f 65/1/23 66/2/23 67/3/23 68/4/23
f 69/53/24 70/54/24 71/55/24 72/56/24
f 67/9/25 66/10/25 71/3/25 70/8/25
f 65/9/26 68/10/26 69/3/26 72/8/26
f 68/11/5 67/12/5 70/13/5 69/14/5
f 72/11/6 71/12/6 66/13/6 65/14/6
f 73/1/27 74/2/27 75/3/27 76/4/27
f 77/5/28 78/6/28 79/7/28 80/8/28
f 75/9/29 74/10/29 79/3/29 78/8/29
f 73/9/30 76/10/30 77/3/30 80/8/30
f 76/11/5 75/12/5 78/13/5 77/14/5
f 80/11/6 79/12/6 74/13/6 73/14/6
f 81/1/9 82/2/9 83/3/9 84/4/9
f 85/57/10 86/58/10 87/59/10 88/60/10
f 83/9/11 82/10/11 87/3/11 86/8/11
f 81/9/7 84/10/7 85/3/7 88/8/7
f 84/61/5 83/62/5 86/63/5 85/8/5
f 88/61/6 87/64/6 82/65/6 81/8/6
