# Made in Blockbench 4.8.3
mtllib lapis_triple_arch.mtl

o cube
v 0.9707295719859865 0.5880698407490383 1.0125
v 0.9707295719859865 0.5880698407490383 -0.012500000000000011
v 1.042482715554441 0.4148424284031722 1.0125
v 1.042482715554441 0.4148424284031722 -0.012500000000000011
v 0.8552446304220758 0.5402344117034021 1.0125
v 0.8552446304220758 0.5402344117034021 -0.012500000000000011
v 0.9269977739905302 0.367006999357536 1.0125
v 0.9269977739905302 0.367006999357536 -0.012500000000000011
v 0.8697478058951307 0.7651141749129844 1.0125
v 0.8697478058951307 0.7651141749129844 -0.012500000000000011
v 0.9634978058951307 0.6027344117034021 1.0125
v 0.9634978058951307 0.6027344117034021 -0.012500000000000011
v 0.7614946304220758 0.7026141749129844 1.0125
v 0.7614946304220758 0.7026141749129844 -0.012500000000000011
v 0.8552446304220758 0.5402344117034019 1.0125
v 0.8552446304220758 0.5402344117034019 -0.012500000000000011
v 1.0000000059885128 0.6249999954207459 1
v 1.0000000059885128 0.6249999954207459 0
v 1.0000000059885124 0.4999999954207459 1
v 1.0000000059885124 0.4999999954207459 0
v 0.8750000059885124 0.6249999954207459 1
v 0.8750000059885124 0.6249999954207459 0
v 0.8750000059885124 0.4999999954207459 1
v 0.8750000059885124 0.4999999954207459 0
v 1.0994569526189788 0.20221168095584208 1.0125
v 1.0994569526189788 0.20221168095584208 -0.012500000000000011
v 1.1239306136602385 0.016315769448252637 1.0125
v 1.1239306136602385 0.016315769448252637 -0.012500000000000011
v 0.9755263449472527 0.18589590692833569 1.0125
v 0.9755263449472527 0.18589590692833569 -0.012500000000000011
v 1.0000000059885121 -4.579253864989141e-9 1.0125
v 1.0000000059885121 -4.579253864989141e-9 -0.012500000000000011
v 1.047738502276664 0.399359379995351 1.0125
v 1.047738502276664 0.399359379995351 -0.012500000000000011
v 1.0962670732333872 0.21824828756615078 1.0125
v 1.0962670732333872 0.21824828756615078 -0.012500000000000011
v 0.9269977739905302 0.3670069993575358 1.0125
v 0.9269977739905302 0.3670069993575358 -0.012500000000000011
v 0.9755263449472527 0.18589590692833557 1.0125
v 0.9755263449472527 0.18589590692833557 -0.012500000000000011
v 0.7465210300193448 0.927463104843681 1.0125
v 0.7465210300193448 0.927463104843681 -0.012500000000000011
v 0.8606637979584801 0.7787093535390743 1.0125
v 0.8606637979584801 0.7787093535390743 -0.012500000000000011
v 0.6473518624829406 0.8513679262175906 1.0125
v 0.6473518624829406 0.8513679262175906 -0.012500000000000011
v 0.7614946304220758 0.7026141749129844 1.0125
v 0.7614946304220758 0.7026141749129844 -0.012500000000000011
v 0.603157688658781 1.0723387953383865 1.0125
v 0.603157688658781 1.0723387953383865 -0.012500000000000011
v 0.7357402101312591 0.9397562738659089 1.0125
v 0.7357402101312591 0.9397562738659089 -0.012500000000000011
v 0.514769341010463 0.983950447690068 1.0125
v 0.514769341010463 0.983950447690068 -0.012500000000000011
v 0.6473518624829411 0.8513679262175906 1.0125
v 0.6473518624829411 0.8513679262175906 -0.012500000000000011
v 1.0000000059885126 0.9999999954207459 1
v 1.0000000059885126 0.9999999954207459 0
v 1.0000000059885124 0.8749999954207459 1
v 1.0000000059885124 0.8749999954207459 0
v 0.6250000059885126 0.9999999954207459 1
v 0.6250000059885126 0.9999999954207459 0
v 0.6250000059885124 0.8749999954207459 1
v 0.6250000059885124 0.8749999954207459 0
v 1.0000000059885124 0.8749999954207459 1
v 1.0000000059885124 0.8749999954207459 0
v 1.0000000059885124 0.7499999954207459 1
v 1.0000000059885124 0.7499999954207459 0
v 0.7500000059885124 0.8749999954207459 1
v 0.7500000059885124 0.8749999954207459 0
v 0.7500000059885128 0.7499999954207459 1
v 0.7500000059885128 0.7499999954207459 0
v 1.0000000059885124 0.7499999954207459 1
v 1.0000000059885124 0.7499999954207459 0
v 1.0000000059885128 0.6249999954207459 1
v 1.0000000059885128 0.6249999954207459 0
v 0.8125000059885126 0.7499999954207459 1
v 0.8125000059885126 0.7499999954207459 0
v 0.8125000059885124 0.6249999954207459 1
v 0.8125000059885124 0.6249999954207459 0
vt 1 0.8125000000000001
vt 1 1
vt 0 1
vt 0 0.8125000000000001
vt 1 0.8125000000000001
vt 1 1
vt 0 1
vt 0 0.8125000000000001
vt 0.12500000000000022 0
vt 0.12500000000000022 1
vt 0 1
vt 0 0
vt 0.12500000000000022 0
vt 0.12500000000000022 1
vt 0 1
vt 0 0
vt 0.25 0.5312499999999999
vt 0.25 0.25
vt 0.7812500000000002 0.25
vt 0.7812500000000002 0.5312499999999999
vt 0.25 0.5312499999999999
vt 0.25 0.25
vt 0.7812500000000002 0.25
vt 0.7812500000000002 0.5312499999999999
vt 1 0.8125000000000001
vt 1 1
vt 0 1
vt 0 0.8125000000000001
vt 1 0.8125000000000001
vt 1 1
vt 0 1
vt 0 0.8125000000000001
vt 0.12500000000000022 0
vt 0.12500000000000022 1
vt 0 1
vt 0 0
vt 0.12500000000000022 0
vt 0.12500000000000022 1
vt 0 1
vt 0 0
vt 0.25 0.5312499999999999
vt 0.25 0.25
vt 0.7812500000000002 0.25
vt 0.7812500000000002 0.5312499999999999
vt 0.25 0.5312499999999999
vt 0.25 0.25
vt 0.7812500000000002 0.25
vt 0.7812500000000002 0.5312499999999999
vt 1 0.5
vt 1 0.625
vt 0 0.625
vt 0 0.5
vt 1 0.875
vt 1 1
vt 0 1
vt 0 0.875
vt 0.125 0
vt 0.125 1
vt 0 1
vt 0 0
vt 0.125 0
vt 0.125 1
vt 0 1
vt 0 0
vt 1 0.59375
vt 1 0.71875
vt 0.875 0.71875
vt 0.875 0.59375
vt 0.125 0.5
vt 0.125 0.625
vt 0 0.625
vt 0 0.5
vt 1 0.8125
vt 1 1
vt 0 1
vt 0 0.8125
vt 1 0.8125
vt 1 1
vt 0 1
vt 0 0.8125
vt 0.12500000000000022 0
vt 0.12500000000000022 1
vt 0 1
vt 0 0
vt 0.12500000000000022 0
vt 0.12500000000000022 1
vt 0 1
vt 0 0
vt 0.25 0.53125
vt 0.25 0.25
vt 0.7812500000000002 0.25
vt 0.7812500000000002 0.53125
vt 0.25 0.53125
vt 0.25 0.25
vt 0.7812500000000002 0.25
vt 0.7812500000000002 0.53125
vt 1 0.8125
vt 1 1
vt 0 1
vt 0 0.8125
vt 1 0.8125
vt 1 1
vt 0 1
vt 0 0.8125
vt 0.12500000000000044 0
vt 0.12500000000000044 1
vt 0 1
vt 0 0
vt 0.12500000000000044 0
vt 0.12500000000000044 1
vt 0 1
vt 0 0
vt 0.25 0.53125
vt 0.25 0.25
vt 0.7812500000000004 0.25
vt 0.7812500000000004 0.53125
vt 0.25 0.53125
vt 0.25 0.25
vt 0.7812500000000004 0.25
vt 0.7812500000000004 0.53125
vt 1 0.8125000000000001
vt 1 1
vt 0 1
vt 0 0.8125000000000001
vt 1 0.8125000000000001
vt 1 1
vt 0 1
vt 0 0.8125000000000001
vt 0.12500000000000022 0
vt 0.12500000000000022 1
vt 0 1
vt 0 0
vt 0.12500000000000022 0
vt 0.12500000000000022 1
vt 0 1
vt 0 0
vt 0.25 0.5312499999999999
vt 0.25 0.25
vt 0.7812500000000002 0.25
vt 0.7812500000000002 0.5312499999999999
vt 0.25 0.5312499999999999
vt 0.25 0.25
vt 0.7812500000000002 0.25
vt 0.7812500000000002 0.5312499999999999
vt 1 0.8124999999999999
vt 1 1
vt 0 1
vt 0 0.8124999999999999
vt 1 0.8124999999999999
vt 1 1
vt 0 1
vt 0 0.8124999999999999
vt 0.12500000000000022 0
vt 0.12500000000000022 1
vt 0 1
vt 0 0
vt 0.12500000000000022 0
vt 0.12500000000000022 1
vt 0 1
vt 0 0
vt 0.25 0.5312500000000001
vt 0.25 0.25
vt 0.7812500000000002 0.25
vt 0.7812500000000002 0.5312500000000001
vt 0.25 0.5312500000000001
vt 0.25 0.25
vt 0.7812500000000002 0.25
vt 0.7812500000000002 0.5312500000000001
vt 1 0.875
vt 1 1
vt 0 1
vt 0 0.875
vt 1 0.875
vt 1 1
vt 0 1
vt 0 0.875
vt 0.375 0
vt 0.375 1
vt 0 1
vt 0 0
vt 0.375 0
vt 0.375 1
vt 0 1
vt 0 0
vt 0.625 0.125
vt 0.625 0
vt 1 0
vt 1 0.125
vt 0 0.125
vt 0 0
vt 0.375 0
vt 0.375 0.125
vt 1 0.75
vt 1 0.875
vt 0 0.875
vt 0 0.75
vt 1 0.875
vt 1 1
vt 0 1
vt 0 0.875
vt 0.25 0
vt 0.25 1
vt 0 1
vt 0 0
vt 0.25 0
vt 0.25 1
vt 0 1
vt 0 0
vt 0.75 0.28125
vt 0.75 0.15625
vt 1 0.15625
vt 1 0.28125
vt 0 0.28125
vt 0 0.15625
vt 0.25 0.15625
vt 0.25 0.28125
vt 1 0.625
vt 1 0.75
vt 0 0.75
vt 0 0.625
vt 1 0.875
vt 1 1
vt 0 1
vt 0 0.875
vt 0.1875 0
vt 0.1875 1
vt 0 1
vt 0 0
vt 0.1875 0
vt 0.1875 1
vt 0 1
vt 0 0
vt 0.8125 0.375
vt 0.8125 0.25
vt 1 0.25
vt 1 0.375
vt 0 0.375
vt 0 0.25
vt 0.1875 0.25
vt 0.1875 0.375
vn 0.9238795325112867 0.3826834323650897 0
vn -0.9238795325112867 -0.3826834323650897 0
vn -0.3826834323650897 0.9238795325112867 0
vn 0.3826834323650897 -0.9238795325112867 0
vn 0 0 1
vn 0 0 -1
vn 0.8660254037844388 0.5000000000000001 0
vn -0.8660254037844393 -0.499999999999999 0
vn -0.49999999999999956 0.866025403784439 0
vn 0.49999999999999933 -0.866025403784439 0
vn 0 0 1
vn 0 0 -1
vn 1 -1.4432899320127039e-15 0
vn -1 -1.6653345369377348e-16 0
vn -1.221245327087672e-15 1 0
vn 5.551115123125783e-16 -1 0
vn 0 0 1
vn 0 0 -1
vn 0.9914448613738106 0.13052619222005124 0
vn -0.9914448613738106 -0.13052619222005124 0
vn -0.1305261922200514 0.9914448613738105 0
vn 0.1305261922200514 -0.9914448613738105 0
vn 0 0 1
vn 0 0 -1
vn 0.9659258262890678 0.258819045102523 0
vn -0.9659258262890684 -0.25881904510252063 0
vn -0.25881904510252046 0.9659258262890685 0
vn 0.25881904510251963 -0.9659258262890686 0
vn 0 0 1
vn 0 0 -1
vn 0.793353340291235 0.6087614290087209 0
vn -0.793353340291235 -0.6087614290087211 0
vn -0.6087614290087214 0.7933533402912346 0
vn 0.60876142900872 -0.7933533402912357 0
vn 0 0 1
vn 0 0 -1
vn 0.7071067811865467 0.7071067811865485 0
vn -0.7071067811865465 -0.7071067811865487 0
vn -0.7071067811865492 0.7071067811865459 0
vn 0.7071067811865487 -0.7071067811865464 0
vn 0 0 1
vn 0 0 -1
vn 1 -1.4432899320127039e-15 0
vn -1 1.776356839400251e-15 0
vn -3.3306690738754696e-16 1 0
vn 5.551115123125783e-17 -1 0
vn 0 0 1
vn 0 0 -1
vn 1 -1.4432899320127039e-15 0
vn -1 -1.8318679906315083e-15 0
vn -1.6653345369377348e-16 1 0
vn -4.996003610813204e-16 -1 0
vn 0 0 1
vn 0 0 -1
vn 1 3.1086244689504383e-15 0
vn -1 1.776356839400251e-15 0
vn 6.106226635438362e-16 1 0
vn 7.216449660063518e-16 -1 0
vn 0 0 1
vn 0 0 -1
usemtl m_b063e3bf-c055-a9e6-230c-b5633c09d76d
f 4/1/1 2/2/1 1/3/1 3/4/1
f 7/5/2 5/6/2 6/7/2 8/8/2
f 1/9/3 2/10/3 6/11/3 5/12/3
f 4/13/4 3/14/4 7/15/4 8/16/4
usemtl m_f4cc9bbf-6374-9484-449c-0f4977ea68bb
f 3/17/5 1/18/5 5/19/5 7/20/5
f 8/21/6 6/22/6 2/23/6 4/24/6
usemtl m_b063e3bf-c055-a9e6-230c-b5633c09d76d
f 12/25/7 10/26/7 9/27/7 11/28/7
f 15/29/8 13/30/8 14/31/8 16/32/8
f 9/33/9 10/34/9 14/35/9 13/36/9
f 12/37/10 11/38/10 15/39/10 16/40/10
usemtl m_f4cc9bbf-6374-9484-449c-0f4977ea68bb
f 11/41/11 9/42/11 13/43/11 15/44/11
f 16/45/12 14/46/12 10/47/12 12/48/12
usemtl m_b063e3bf-c055-a9e6-230c-b5633c09d76d
f 20/49/13 18/50/13 17/51/13 19/52/13
f 23/53/14 21/54/14 22/55/14 24/56/14
f 17/57/15 18/58/15 22/59/15 21/60/15
f 20/61/16 19/62/16 23/63/16 24/64/16
f 19/65/17 17/66/17 21/67/17 23/68/17
f 24/69/18 22/70/18 18/71/18 20/72/18
f 28/73/19 26/74/19 25/75/19 27/76/19
f 31/77/20 29/78/20 30/79/20 32/80/20
f 25/81/21 26/82/21 30/83/21 29/84/21
f 28/85/22 27/86/22 31/87/22 32/88/22
usemtl m_f4cc9bbf-6374-9484-449c-0f4977ea68bb
f 27/89/23 25/90/23 29/91/23 31/92/23
f 32/93/24 30/94/24 26/95/24 28/96/24
usemtl m_b063e3bf-c055-a9e6-230c-b5633c09d76d
f 36/97/25 34/98/25 33/99/25 35/100/25
f 39/101/26 37/102/26 38/103/26 40/104/26
f 33/105/27 34/106/27 38/107/27 37/108/27
f 36/109/28 35/110/28 39/111/28 40/112/28
usemtl m_f4cc9bbf-6374-9484-449c-0f4977ea68bb
f 35/113/29 33/114/29 37/115/29 39/116/29
f 40/117/30 38/118/30 34/119/30 36/120/30
usemtl m_b063e3bf-c055-a9e6-230c-b5633c09d76d
f 44/121/31 42/122/31 41/123/31 43/124/31
f 47/125/32 45/126/32 46/127/32 48/128/32
f 41/129/33 42/130/33 46/131/33 45/132/33
f 44/133/34 43/134/34 47/135/34 48/136/34
usemtl m_f4cc9bbf-6374-9484-449c-0f4977ea68bb
f 43/137/35 41/138/35 45/139/35 47/140/35
f 48/141/36 46/142/36 42/143/36 44/144/36
usemtl m_b063e3bf-c055-a9e6-230c-b5633c09d76d
f 52/145/37 50/146/37 49/147/37 51/148/37
f 55/149/38 53/150/38 54/151/38 56/152/38
f 49/153/39 50/154/39 54/155/39 53/156/39
f 52/157/40 51/158/40 55/159/40 56/160/40
usemtl m_f4cc9bbf-6374-9484-449c-0f4977ea68bb
f 51/161/41 49/162/41 53/163/41 55/164/41
f 56/165/42 54/166/42 50/167/42 52/168/42
usemtl m_b063e3bf-c055-a9e6-230c-b5633c09d76d
f 60/169/43 58/170/43 57/171/43 59/172/43
f 63/173/44 61/174/44 62/175/44 64/176/44
f 57/177/45 58/178/45 62/179/45 61/180/45
f 60/181/46 59/182/46 63/183/46 64/184/46
usemtl m_f4cc9bbf-6374-9484-449c-0f4977ea68bb
f 59/185/47 57/186/47 61/187/47 63/188/47
f 64/189/48 62/190/48 58/191/48 60/192/48
usemtl m_b063e3bf-c055-a9e6-230c-b5633c09d76d
f 68/193/49 66/194/49 65/195/49 67/196/49
f 71/197/50 69/198/50 70/199/50 72/200/50
f 65/201/51 66/202/51 70/203/51 69/204/51
f 68/205/52 67/206/52 71/207/52 72/208/52
usemtl m_f4cc9bbf-6374-9484-449c-0f4977ea68bb
f 67/209/53 65/210/53 69/211/53 71/212/53
f 72/213/54 70/214/54 66/215/54 68/216/54
usemtl m_b063e3bf-c055-a9e6-230c-b5633c09d76d
f 76/217/55 74/218/55 73/219/55 75/220/55
f 79/221/56 77/222/56 78/223/56 80/224/56
f 73/225/57 74/226/57 78/227/57 77/228/57
f 76/229/58 75/230/58 79/231/58 80/232/58
usemtl m_f4cc9bbf-6374-9484-449c-0f4977ea68bb
f 75/233/59 73/234/59 77/235/59 79/236/59
f 80/237/60 78/238/60 74/239/60 76/240/60