# Made in Blockbench 4.8.3
mtllib lapis_five_arch_center.mtl

o cube
v 1 1 1
v 1 1 0
v 1 0 1
v 1 0 0
v 0 1 0
v 0 1 1
v 0 0 0
v 0 0 1
vt 0 1
vt 1 1
vt 1 0
vt 0 0
vt 0 1
vt 1 1
vt 1 0
vt 0 0
vt 0 1
vt 1 1
vt 1 0
vt 0 0
vt 0 1
vt 1 1
vt 1 0
vt 0 0
vt 0 1
vt 1 1
vt 1 0
vt 0 0
vt 0 1
vt 1 1
vt 1 0
vt 0 0
vn 0 0 -1
vn 1 0 0
vn 0 0 1
vn -1 0 0
vn 0 1 0
vn 0 -1 0
usemtl m_05d519db-892e-9f81-4888-f719dcdd6fda
f 4/4/1 7/3/1 5/2/1 2/1/1
f 3/8/2 4/7/2 2/6/2 1/5/2
f 8/12/3 3/11/3 1/10/3 6/9/3
f 7/16/4 8/15/4 6/14/4 5/13/4
f 6/20/5 1/19/5 2/18/5 5/17/5
f 7/24/6 4/23/6 3/22/6 8/21/6
o cube
v 0.6000950339565927 2.554191054042186 1.012499985098839
v 0.6000950339565927 2.554191054042186 -0.01250001490116115
v 0.8487255077986608 2.528058938225273 1.012499985098839
v 0.8487255077986608 2.528058938225273 -0.01250001490116115
v 0.5870289760481358 2.429875817121152 -0.01250001490116115
v 0.5870289760481358 2.429875817121152 1.012499985098839
v 0.8356594498902039 2.403743701304239 -0.01250001490116115
v 0.8356594498902039 2.403743701304239 1.012499985098839
vt 0.25 0.53125
vt 0.78125 0.53125
vt 0.78125 0.25
vt 0.25 0.25
vt 0 1
vt 1 1
vt 1 0.75
vt 0 0.75
vt 0.25 0.53125
vt 0.78125 0.53125
vt 0.78125 0.25
vt 0.25 0.25
vt 0 1
vt 1 1
vt 1 0.75
vt 0 0.75
vt 0 1
vt 0.125 1
vt 0.125 0
vt 0 0
vt 0 1
vt 0.125 1
vt 0.125 0
vt 0 0
vn 0 0 -1
vn 0.10452846326765342 0.9945218953682734 0
vn 0 0 1
vn -0.10452846326765342 -0.9945218953682734 0
vn -0.9945218953682734 0.10452846326765342 0
vn 0.9945218953682734 -0.10452846326765342 0
usemtl m_251fc1b2-c543-6222-6a73-773ba2d4a2b8
f 12/28/7 15/27/7 13/26/7 10/25/7
f 11/32/8 12/31/8 10/30/8 9/29/8
f 16/36/9 11/35/9 9/34/9 14/33/9
f 15/40/10 16/39/10 14/38/10 13/37/10
f 14/44/11 9/43/11 10/42/11 13/41/11
f 15/48/12 12/47/12 11/46/12 16/45/12
o cube
v 0.8607941900334506 2.526190607504157 1.012499985098839
v 0.8607941900334506 2.526190607504157 -0.01250001490116115
v 1.1056880024332867 2.475921127217666 1.012499985098839
v 1.1056880024332867 2.475921127217666 -0.01250001490116115
v 0.8356594498902048 2.403743701304239 -0.01250001490116115
v 0.8356594498902048 2.403743701304239 1.012499985098839
v 1.080553262290041 2.3534742210177484 -0.01250001490116115
v 1.080553262290041 2.3534742210177484 1.012499985098839
vt 0.25 0.53125
vt 0.78125 0.53125
vt 0.78125 0.25
vt 0.25 0.25
vt 0 1
vt 1 1
vt 1 0.75
vt 0 0.75
vt 0.25 0.53125
vt 0.78125 0.53125
vt 0.78125 0.25
vt 0.25 0.25
vt 0 1
vt 1 1
vt 1 0.75
vt 0 0.75
vt 0 1
vt 0.125 1
vt 0.125 0
vt 0 0
vt 0 1
vt 0.125 1
vt 0.125 0
vt 0 0
vn 0 0 -1
vn 0.20107792114596312 0.9795752495993444 0
vn 0 0 1
vn -0.20107792114596312 -0.9795752495993444 0
vn -0.9795752495993444 0.20107792114596312 0
vn 0.9795752495993444 -0.20107792114596312 0
usemtl m_251fc1b2-c543-6222-6a73-773ba2d4a2b8
f 20/52/13 23/51/13 21/50/13 18/49/13
f 19/56/14 20/55/14 18/54/14 17/53/14
f 24/60/15 19/59/15 17/58/15 22/57/15
f 23/64/16 24/63/16 22/62/16 21/61/16
f 22/68/17 17/67/17 18/66/17 21/65/17
f 23/72/18 20/71/18 19/70/18 24/69/18
o cube
v 0.587971023951865 2.554875817121152 -0.012500027939677527
v 0.587971023951865 2.554875817121152 1.0124999720603227
v 0.41297102395186425 2.554875817121152 -0.012500027939677527
v 0.41297102395186425 2.554875817121152 1.0124999720603227
v 0.587971023951865 2.429875817121152 1.0124999720603227
v 0.587971023951865 2.429875817121152 -0.012500027939677527
v 0.41297102395186425 2.429875817121152 1.0124999720603227
v 0.41297102395186425 2.429875817121152 -0.012500027939677527
vt 0.25 0.53125
vt 0.78125 0.53125
vt 0.78125 0.25
vt 0.25 0.25
vt 0 1
vt 1 1
vt 1 0.75
vt 0 0.75
vt 0.25 0.53125
vt 0.78125 0.53125
vt 0.78125 0.25
vt 0.25 0.25
vt 0 1
vt 1 1
vt 1 0.75
vt 0 0.75
vt 0 1
vt 0.125 1
vt 0.125 0
vt 0 0
vt 0 1
vt 0.125 1
vt 0.125 0
vt 0 0
vn 1.2246467991473532e-16 0 1
vn -2.220446049250313e-16 1 2.719262146893782e-32
vn -1.2246467991473532e-16 0 -1
vn 2.220446049250313e-16 -1 -2.719262146893782e-32
vn 1 2.220446049250313e-16 -1.2246467991473532e-16
vn -1 -2.220446049250313e-16 1.2246467991473532e-16
usemtl m_251fc1b2-c543-6222-6a73-773ba2d4a2b8
f 28/76/19 31/75/19 29/74/19 26/73/19
f 27/80/20 28/79/20 26/78/20 25/77/20
f 32/84/21 27/83/21 25/82/21 30/81/21
f 31/88/22 32/87/22 30/86/22 29/85/22
f 30/92/23 25/91/23 26/90/23 29/89/23
f 31/96/24 28/95/24 27/94/24 32/93/24
o cube
v 0.39990496604340775 2.554191054042186 -0.012500027939677527
v 0.39990496604340775 2.554191054042186 1.0124999720603227
v 0.1512744922013396 2.528058938225273 -0.012500027939677416
v 0.1512744922013396 2.528058938225273 1.0124999720603227
v 0.4129710239518647 2.429875817121152 1.0124999720603227
v 0.4129710239518647 2.429875817121152 -0.012500027939677527
v 0.16434055010979653 2.403743701304239 1.0124999720603227
v 0.16434055010979653 2.403743701304239 -0.012500027939677416
vt 0.25 0.53125
vt 0.78125 0.53125
vt 0.78125 0.25
vt 0.25 0.25
vt 0 1
vt 1 1
vt 1 0.75
vt 0 0.75
vt 0.25 0.53125
vt 0.78125 0.53125
vt 0.78125 0.25
vt 0.25 0.25
vt 0 1
vt 1 1
vt 1 0.75
vt 0 0.75
vt 0 1
vt 0.125 1
vt 0.125 0
vt 0 0
vt 0 1
vt 0.125 1
vt 0.125 0
vt 0 0
vn 1.2246467991473532e-16 -1.5407439555097883e-33 1
vn -0.10452846326765342 0.9945218953682734 1.2801044796052345e-17
vn -1.2246467991473532e-16 1.5407439555097883e-33 -1
vn 0.10452846326765342 -0.9945218953682734 -1.2801044796052345e-17
vn 0.9945218953682734 0.10452846326765342 -1.217938055844715e-16
vn -0.9945218953682734 -0.10452846326765342 1.217938055844715e-16
usemtl m_251fc1b2-c543-6222-6a73-773ba2d4a2b8
f 36/100/25 39/99/25 37/98/25 34/97/25
f 35/104/26 36/103/26 34/102/26 33/101/26
f 40/108/27 35/107/27 33/106/27 38/105/27
f 39/112/28 40/111/28 38/110/28 37/109/28
f 38/116/29 33/115/29 34/114/29 37/113/29
f 39/120/30 36/119/30 35/118/30 40/117/30
o cube
v 0.1392058099665494 2.5261906075041574 -0.012500027939677416
v 0.1392058099665494 2.5261906075041574 1.0124999720603227
v -0.10568800243328669 2.475921127217666 -0.012500027939677416
v -0.10568800243328669 2.475921127217666 1.0124999720603227
v 0.16434055010979476 2.403743701304239 1.0124999720603227
v 0.16434055010979476 2.403743701304239 -0.012500027939677416
v -0.08055326229004134 2.3534742210177484 1.0124999720603227
v -0.08055326229004134 2.3534742210177484 -0.012500027939677416
vt 0.25 0.53125
vt 0.78125 0.53125
vt 0.78125 0.25
vt 0.25 0.25
vt 0 1
vt 1 1
vt 1 0.75
vt 0 0.75
vt 0.25 0.53125
vt 0.78125 0.53125
vt 0.78125 0.25
vt 0.25 0.25
vt 0 1
vt 1 1
vt 1 0.75
vt 0 0.75
vt 0 1
vt 0.125 1
vt 0.125 0
vt 0 0
vt 0 1
vt 0.125 1
vt 0.125 0
vt 0 0
vn 1.2246467991473532e-16 3.0814879110195774e-33 1
vn -0.20107792114596312 0.9795752495993444 2.4624943251060762e-17
vn -1.2246467991473532e-16 -3.0814879110195774e-33 -1
vn 0.20107792114596312 -0.9795752495993444 -2.4624943251060762e-17
vn 0.9795752495993444 0.20107792114596312 -1.1996336939458068e-16
vn -0.9795752495993444 -0.20107792114596312 1.1996336939458068e-16
usemtl m_251fc1b2-c543-6222-6a73-773ba2d4a2b8
f 44/124/31 47/123/31 45/122/31 42/121/31
f 43/128/32 44/127/32 42/126/32 41/125/32
f 48/132/33 43/131/33 41/130/33 46/129/33
f 47/136/34 48/135/34 46/134/34 45/133/34
f 46/140/35 41/139/35 42/138/35 45/137/35
f 47/144/36 44/143/36 43/142/36 48/141/36
o cube
v 1 3 1
v 1 3 0
v 1 2.4375 1
v 1 2.4375 0
v 0 3 0
v 0 3 1
v 0 2.4375 0
v 0 2.4375 1
vt 0 1
vt 1 1
vt 1 0.4375
vt 0 0.4375
vt 0 1
vt 1 1
vt 1 0.4375
vt 0 0.4375
vt 0 1
vt 1 1
vt 1 0.4375
vt 0 0.4375
vt 0 1
vt 1 1
vt 1 0.4375
vt 0 0.4375
vt 0 1
vt 1 1
vt 1 0
vt 0 0
vt 0 1
vt 1 1
vt 1 0
vt 0 0
vn 0 0 -1
vn 1 0 0
vn 0 0 1
vn -1 0 0
vn 0 1 0
vn 0 -1 0
usemtl m_05d519db-892e-9f81-4888-f719dcdd6fda
f 52/148/37 55/147/37 53/146/37 50/145/37
f 51/152/38 52/151/38 50/150/38 49/149/38
f 56/156/39 51/155/39 49/154/39 54/153/39
f 55/160/40 56/159/40 54/158/40 53/157/40
f 54/164/41 49/163/41 50/162/41 53/161/41
f 55/168/42 52/167/42 51/166/42 56/165/42
o cube
v 0.6000950339565918 0.5541910540421888 1.0124999970197677
v 0.6000950339565918 0.5541910540421888 -0.012500002980232572
v 0.84872550779866 0.5280589382252749 1.0124999970197677
v 0.84872550779866 0.5280589382252749 -0.012500002980232572
v 0.5870289760481358 0.42987581712115475 1.0124999970197677
v 0.5870289760481358 0.42987581712115475 -0.012500002980232572
v 0.8356594498902039 0.40374370130424087 1.0124999970197677
v 0.8356594498902039 0.40374370130424087 -0.012500002980232572
v 0.8607941900334497 0.5261906075041578 1.0124999970197677
v 0.8607941900334497 0.5261906075041578 -0.012500002980232683
v 1.1056880024332854 0.4759211272176671 1.0124999970197677
v 1.1056880024332854 0.4759211272176671 -0.012500002980232683
v 0.8356594498902048 0.40374370130424 1.0124999970197677
v 0.8356594498902048 0.40374370130424 -0.012500002980232683
v 1.0805532622900405 0.3534742210177493 1.0124999970197677
v 1.0805532622900405 0.3534742210177493 -0.012500002980232683
v 0.5870289760481366 0.554875817121153 -0.01250000298023246
v 0.5870289760481366 0.554875817121153 1.0124999970197677
v 0.4120289760481368 0.5548758171211539 -0.01250000298023246
v 0.4120289760481368 0.5548758171211539 1.0124999970197677
v 0.5870289760481375 0.42987581712115475 -0.01250000298023246
v 0.5870289760481375 0.42987581712115475 1.0124999970197677
v 0.41202897604813593 0.42987581712115297 -0.01250000298023246
v 0.41202897604813593 0.42987581712115297 1.0124999970197677
v 0.3999049660434064 0.5541910540421879 -0.01250001788139432
v 0.3999049660434064 0.5541910540421879 1.012499982118606
v 0.15127449220133826 0.528058938225274 -0.01250001788139432
v 0.15127449220133826 0.528058938225274 1.0124999821186065
v 0.41297102395186247 0.42987581712115297 -0.01250001788139432
v 0.41297102395186247 0.42987581712115297 1.012499982118606
v 0.16434055010979431 0.40374370130424 -0.01250001788139432
v 0.16434055010979431 0.40374370130424 1.0124999821186065
v 0.13920580996654852 0.5261906075041578 -0.012500017881393877
v 0.13920580996654852 0.5261906075041578 1.0124999821186065
v -0.10568800243328624 0.4759211272176662 -0.012500017881393877
v -0.10568800243328624 0.4759211272176662 1.0124999821186065
v 0.1643405501097952 0.40374370130424 -0.012500017881393877
v 0.1643405501097952 0.40374370130424 1.0124999821186065
v -0.08055326229004045 0.3534742210177493 -0.012500017881393877
v -0.08055326229004045 0.3534742210177493 1.0124999821186065
v 1 1.0000000000000009 1
v 1 1.0000000000000009 0
v 1.0000000000000009 0.4375 1
v 1.0000000000000009 0.4375 0
v 0 1 1
v 0 1 0
v 0 0.4375 1
v 0 0.4375 0
vt 1 0.75
vt 1 1
vt 0 1
vt 0 0.75
vt 1 0.75
vt 1 1
vt 0 1
vt 0 0.75
vt 0.125 0
vt 0.125 1
vt 0 1
vt 0 0
vt 0.125 0
vt 0.125 1
vt 0 1
vt 0 0
vt 0.78125 0.25
vt 0.78125 0.53125
vt 0.25 0.53125
vt 0.25 0.25
vt 0.78125 0.25
vt 0.78125 0.53125
vt 0.25 0.53125
vt 0.25 0.25
vt 1 0.75
vt 1 1
vt 0 1
vt 0 0.75
vt 1 0.75
vt 1 1
vt 0 1
vt 0 0.75
vt 0.125 0
vt 0.125 1
vt 0 1
vt 0 0
vt 0.125 0
vt 0.125 1
vt 0 1
vt 0 0
vt 0.78125 0.25
vt 0.78125 0.53125
vt 0.25 0.53125
vt 0.25 0.25
vt 0.78125 0.25
vt 0.78125 0.53125
vt 0.25 0.53125
vt 0.25 0.25
vt 1 0.75
vt 1 1
vt 0 1
vt 0 0.75
vt 1 0.75
vt 1 1
vt 0 1
vt 0 0.75
vt 0.125 0
vt 0.125 1
vt 0 1
vt 0 0
vt 0.125 0
vt 0.125 1
vt 0 1
vt 0 0
vt 0.78125 0.25
vt 0.78125 0.53125
vt 0.25 0.53125
vt 0.25 0.25
vt 0.78125 0.25
vt 0.78125 0.53125
vt 0.25 0.53125
vt 0.25 0.25
vt 1 0.75
vt 1 1
vt 0 1
vt 0 0.75
vt 1 0.75
vt 1 1
vt 0 1
vt 0 0.75
vt 0.125 0
vt 0.125 1
vt 0 1
vt 0 0
vt 0.125 0
vt 0.125 1
vt 0 1
vt 0 0
vt 0.78125 0.25
vt 0.78125 0.53125
vt 0.25 0.53125
vt 0.25 0.25
vt 0.78125 0.25
vt 0.78125 0.53125
vt 0.25 0.53125
vt 0.25 0.25
vt 1 0.75
vt 1 1
vt 0 1
vt 0 0.75
vt 1 0.75
vt 1 1
vt 0 1
vt 0 0.75
vt 0.125 0
vt 0.125 1
vt 0 1
vt 0 0
vt 0.125 0
vt 0.125 1
vt 0 1
vt 0 0
vt 0.78125 0.25
vt 0.78125 0.53125
vt 0.25 0.53125
vt 0.25 0.25
vt 0.78125 0.25
vt 0.78125 0.53125
vt 0.25 0.53125
vt 0.25 0.25
vt 1 0.4375
vt 1 1
vt 0 1
vt 0 0.4375
vt 1 0.4375
vt 1 1
vt 0 1
vt 0 0.4375
vt 1 0
vt 1 1
vt 0 1
vt 0 0
vt 1 0
vt 1 1
vt 0 1
vt 0 0
vt 1 0.4375
vt 1 1
vt 0 1
vt 0 0.4375
vt 1 0.4375
vt 1 1
vt 0 1
vt 0 0.4375
vn 0.10452846326765342 0.9945218953682734 0
vn -0.10452846326765342 -0.9945218953682734 0
vn -0.9945218953682734 0.10452846326765342 0
vn 0.9945218953682734 -0.10452846326765342 0
vn 0 0 1
vn 0 0 -1
vn 0.2010779211459618 0.9795752495993447 0
vn -0.2010779211459653 -0.9795752495993441 0
vn -0.9795752495993431 0.2010779211459694 0
vn 0.9795752495993433 -0.20107792114596873 0
vn 0 0 1
vn 0 0 -1
vn 2.1926904736346846e-15 1 0
vn 7.91033905045424e-15 -1 0
vn 1 2.9004576518332215e-15 0
vn -1 -1.4432899320127039e-15 0
vn 0 0 -1
vn 0 0 1
vn -0.10452846326765382 0.9945218953682734 0
vn 0.10452846326765382 -0.9945218953682734 0
vn 0.9945218953682742 0.10452846326764695 0
vn -0.9945218953682742 -0.10452846326764692 0
vn 0 0 -1
vn 1.7666257707707331e-15 1.8567985063748231e-16 1
vn -0.2010779211459653 0.979575249599344 0
vn 0.20107792114596199 -0.9795752495993446 0
vn 0.9795752495993433 0.20107792114596862 0
vn -0.9795752495993428 -0.2010779211459707 0
vn 0 0 -1
vn 0 0 1
vn 1 5.273559366969494e-16 0
vn -1 -5.273559366969494e-16 0
vn -3.1918911957973255e-16 1 0
vn 3.1918911957973255e-16 -1 0
vn 0 0 1
vn 0 0 -1
usemtl m_251fc1b2-c543-6222-6a73-773ba2d4a2b8
f 60/169/43 58/170/43 57/171/43 59/172/43
f 63/173/44 61/174/44 62/175/44 64/176/44
f 57/177/45 58/178/45 62/179/45 61/180/45
f 60/181/46 59/182/46 63/183/46 64/184/46
f 59/185/47 57/186/47 61/187/47 63/188/47
f 64/189/48 62/190/48 58/191/48 60/192/48
f 68/193/49 66/194/49 65/195/49 67/196/49
f 71/197/50 69/198/50 70/199/50 72/200/50
f 65/201/51 66/202/51 70/203/51 69/204/51
f 68/205/52 67/206/52 71/207/52 72/208/52
f 67/209/53 65/210/53 69/211/53 71/212/53
f 72/213/54 70/214/54 66/215/54 68/216/54
f 76/217/55 74/218/55 73/219/55 75/220/55
f 79/221/56 77/222/56 78/223/56 80/224/56
f 73/225/57 74/226/57 78/227/57 77/228/57
f 76/229/58 75/230/58 79/231/58 80/232/58
f 75/233/59 73/234/59 77/235/59 79/236/59
f 80/237/60 78/238/60 74/239/60 76/240/60
f 84/241/61 82/242/61 81/243/61 83/244/61
f 87/245/62 85/246/62 86/247/62 88/248/62
f 81/249/63 82/250/63 86/251/63 85/252/63
f 84/253/64 83/254/64 87/255/64 88/256/64
f 83/257/65 81/258/65 85/259/65 87/260/65
f 88/261/66 86/262/66 82/263/66 84/264/66
f 92/265/67 90/266/67 89/267/67 91/268/67
f 95/269/68 93/270/68 94/271/68 96/272/68
f 89/273/69 90/274/69 94/275/69 93/276/69
f 92/277/70 91/278/70 95/279/70 96/280/70
f 91/281/71 89/282/71 93/283/71 95/284/71
f 96/285/72 94/286/72 90/287/72 92/288/72
usemtl m_05d519db-892e-9f81-4888-f719dcdd6fda
f 100/289/73 98/290/73 97/291/73 99/292/73
f 103/293/74 101/294/74 102/295/74 104/296/74
f 97/297/75 98/298/75 102/299/75 101/300/75
f 100/301/76 99/302/76 103/303/76 104/304/76
f 99/305/77 97/306/77 101/307/77 103/308/77
f 104/309/78 102/310/78 98/311/78 100/312/78