# Blender v3.0.0 OBJ File: 'Basic blender block.blend'
# www.blender.org
mtllib lime_gypsum_plaster_double_arch.mtl
o cube.001
v 1.120741 0.032352 -0.012500
v 1.056036 0.273834 -0.012500
v 1.056036 0.273834 1.012500
v 1.120741 0.032352 1.012500
v 1.000000 -0.000000 1.012500
v 0.935295 0.241481 1.012500
v 0.935295 0.241481 -0.012500
v 1.000000 0.000000 -0.012500
v 1.000000 0.450000 0.000000
v 1.000000 0.637500 0.000000
v 1.000000 0.637500 1.000000
v 1.000000 0.450000 1.000000
v 0.818750 0.450000 1.000000
v 0.808746 0.637500 1.000000
v 0.808746 0.637500 0.000000
v 0.818750 0.450000 0.000000
v 1.000000 0.825000 0.000000
v 1.000000 1.000000 0.000000
v 1.000000 1.000000 1.000000
v 1.000000 0.825000 1.000000
v 0.000000 0.825000 1.000000
v 0.000000 1.000000 1.000000
v 0.000000 1.000000 0.000000
v 0.000000 0.825000 0.000000
v 1.000000 0.756250 0.000000
v 1.000000 0.825000 0.000000
v 1.000000 0.825000 1.000000
v 1.000000 0.756250 1.000000
v 0.429533 0.756250 1.000000
v 0.418750 0.825000 1.000000
v 0.418750 0.825000 0.000000
v 0.429533 0.756250 0.000000
v 1.000000 0.637500 0.000000
v 1.000000 0.756250 0.000000
v 1.000000 0.756250 1.000000
v 1.000000 0.637500 1.000000
v 0.635166 0.637500 1.000000
v 0.625000 0.756250 1.000000
v 0.625000 0.756250 0.000000
v 0.635166 0.637500 0.000000
v 1.000000 0.206250 0.000000
v 1.000000 0.450000 0.000000
v 1.000000 0.450000 1.000000
v 1.000000 0.206250 1.000000
v 0.943750 0.206250 1.000000
v 0.943750 0.450000 1.000000
v 0.943750 0.450000 0.000000
v 0.943750 0.206250 0.000000
v 1.043548 0.303981 -0.012500
v 0.918548 0.520488 -0.012500
v 0.918548 0.520488 1.012500
v 1.043548 0.303981 1.012500
v 0.935295 0.241481 1.012500
v 0.810295 0.457988 1.012500
v 0.810295 0.457988 -0.012500
v 0.935295 0.241481 -0.012500
v 0.898684 0.546376 -0.012500
v 0.721907 0.723153 -0.012500
v 0.721907 0.723153 1.012500
v 0.898684 0.546376 1.012500
v 0.810295 0.457988 1.012500
v 0.633519 0.634764 1.012500
v 0.633519 0.634764 -0.012500
v 0.810295 0.457988 -0.012500
v 0.696019 0.743018 -0.012500
v 0.479512 0.868018 -0.012500
v 0.479512 0.868017 1.012500
v 0.696019 0.743017 1.012500
v 0.633519 0.634764 1.012500
v 0.417012 0.759764 1.012500
v 0.417012 0.759764 -0.012500
v 0.633519 0.634764 -0.012500
v 0.449365 0.880505 -0.012500
v 0.207883 0.945210 -0.012500
v 0.207883 0.945210 1.012500
v 0.449365 0.880505 1.012500
v 0.417012 0.759764 1.012500
v 0.175531 0.824469 1.012500
v 0.175531 0.824469 -0.012500
v 0.417012 0.759764 -0.012500
v 0.175531 0.949469 -0.012500
v 0.000531 0.949469 -0.012500
v 0.000531 0.949469 1.012500
v 0.175531 0.949469 1.012500
v 0.175531 0.824469 1.012500
v 0.000531 0.824469 1.012500
v 0.000531 0.824469 -0.012500
v 0.175531 0.824469 -0.012500
vt 1.000000 0.750000
vt 1.000000 1.000000
vt 0.000000 1.000000
vt 0.000000 0.750000
vt 1.000000 0.746900
vt 1.003100 1.000000
vt 0.003100 1.000000
vt 0.000000 0.746900
vt 0.125000 0.000000
vt 0.125000 1.000000
vt 0.000000 1.000000
vt 0.000000 0.000000
vt 0.125000 0.000000
vt 0.125000 1.000000
vt 0.000000 1.000000
vt 0.000000 0.000000
vt 0.750000 0.468750
vt 0.750000 0.750000
vt 0.218750 0.750000
vt 0.218750 0.468750
vt 0.750000 0.468750
vt 0.750000 0.750000
vt 0.218750 0.750000
vt 0.218750 0.468750
vt 1.000000 0.931250
vt 1.000000 1.000000
vt 0.000000 1.000000
vt 0.000000 0.931250
vt 1.000000 0.931250
vt 1.000000 1.000000
vt 0.000000 1.000000
vt 0.000000 0.931250
vt 0.581250 0.000000
vt 0.581250 1.000000
vt 0.000000 0.000000
vt 0.581250 0.000000
vt 0.581250 1.000000
vt 0.000000 1.000000
vt 0.000000 0.000000
vt 1.000000 0.462500
vt 1.000000 0.656250
vt 0.825000 0.656250
vt 0.825000 0.462500
vt 0.175000 0.448966
vt 0.190625 0.635333
vt 0.000000 0.635333
vt 0.000000 0.448966
vt 1.000000 0.825000
vt 1.000000 1.000000
vt 0.000000 1.000000
vt 0.000000 0.825000
vt 1.000000 0.825000
vt 1.000000 1.000000
vt 0.000000 1.000000
vt 0.000000 0.825000
vt 1.000000 0.000000
vt 0.000000 0.000000
vt 1.000000 0.000000
vt 1.000000 1.000000
vt 0.000000 1.000000
vt 0.000000 0.000000
vt 1.000000 0.825000
vt 1.000000 1.000000
vt 0.000000 1.000000
vt 0.000000 0.825000
vt 1.000000 0.825000
vt 1.000000 1.000000
vt 0.000000 1.000000
vt 0.000000 0.825000
vt 1.000000 0.931250
vt 1.000000 1.000000
vt 0.000000 1.000000
vt 0.000000 0.931250
vt 1.000000 0.931250
vt 1.000000 1.000000
vt 0.000000 1.000000
vt 0.000000 0.931250
vt 0.581250 0.000000
vt 0.581250 1.000000
vt 0.000000 0.000000
vt 0.581250 0.000000
vt 0.581250 1.000000
vt 0.000000 1.000000
vt 0.000000 0.000000
vt 1.000000 0.775000
vt 1.000000 0.843750
vt 0.387500 0.843750
vt 0.387500 0.775000
vt 0.570176 0.756544
vt 0.581250 0.826525
vt 0.000000 0.826525
vt 0.000000 0.754083
vt 1.000000 0.931250
vt 1.000000 1.000000
vt 0.000000 1.000000
vt 0.000000 0.931250
vt 1.000000 0.931250
vt 1.000000 1.000000
vt 0.000000 1.000000
vt 0.000000 0.931250
vt 0.581250 0.000000
vt 0.581250 1.000000
vt 0.000000 0.000000
vt 0.581250 0.000000
vt 0.581250 1.000000
vt 0.000000 1.000000
vt 0.000000 0.000000
vt 1.000000 0.618750
vt 1.000000 0.750000
vt 0.606250 0.750000
vt 0.606250 0.618750
vt 0.363360 0.635975
vt 0.371973 0.756152
vt 0.000000 0.756152
vt 0.000000 0.635975
vt 1.000000 0.931250
vt 1.000000 1.000000
vt 0.000000 1.000000
vt 0.000000 0.931250
vt 1.000000 0.931250
vt 1.000000 1.000000
vt 0.000000 1.000000
vt 0.000000 0.931250
vt 0.581250 0.000000
vt 0.581250 1.000000
vt 0.000000 0.000000
vt 0.581250 0.000000
vt 0.581250 1.000000
vt 0.000000 1.000000
vt 0.000000 0.000000
vt 1.000000 0.243750
vt 1.000000 0.468750
vt 0.937500 0.468750
vt 0.937500 0.243750
vt 0.054922 0.243750
vt 0.054922 0.446603
vt 0.000000 0.446603
vt 0.000000 0.243750
vt 1.000000 0.750000
vt 1.000000 1.000000
vt 0.000000 1.000000
vt 0.000000 0.750000
vt 1.000000 0.470546
vt 1.000000 0.750000
vt 0.000000 0.750000
vt 0.000000 0.470546
vt 0.125000 0.000000
vt 0.125000 1.000000
vt 0.000000 1.000000
vt 0.000000 0.000000
vt 0.125000 0.000000
vt 0.125000 1.000000
vt 0.000000 1.000000
vt 0.000000 0.000000
vt 0.750000 0.468750
vt 0.750000 0.750000
vt 0.218750 0.750000
vt 0.218750 0.468750
vt 0.750000 0.468750
vt 0.750000 0.750000
vt 0.218750 0.750000
vt 0.218750 0.468750
vt 1.000000 0.750000
vt 1.000000 1.000000
vt 0.000000 1.000000
vt 0.000000 0.750000
vt 1.000000 0.220471
vt 1.000000 0.470471
vt 0.000000 0.470471
vt 0.000000 0.220471
vt 0.125000 0.000000
vt 0.125000 1.000000
vt 0.000000 1.000000
vt 0.000000 0.000000
vt 0.125000 0.000000
vt 0.125000 1.000000
vt 0.000000 1.000000
vt 0.000000 0.000000
vt 0.750000 0.468750
vt 0.750000 0.750000
vt 0.218750 0.750000
vt 0.218750 0.468750
vt 0.750000 0.468750
vt 0.750000 0.750000
vt 0.218750 0.750000
vt 0.218750 0.468750
vt 1.000000 0.750000
vt 1.000000 1.000000
vt 0.000000 1.000000
vt 0.000000 0.750000
vt 1.000000 0.000000
vt 1.000000 0.250000
vt 0.000000 0.250000
vt 0.000000 0.000000
vt 0.125000 0.000000
vt 0.125000 1.000000
vt 0.000000 1.000000
vt 0.000000 0.000000
vt 0.125000 0.000000
vt 0.125000 1.000000
vt 0.000000 1.000000
vt 0.750000 0.468750
vt 0.750000 0.750000
vt 0.218750 0.750000
vt 0.218750 0.468750
vt 0.750000 0.468750
vt 0.750000 0.750000
vt 0.218750 0.750000
vt 0.218750 0.468750
vt 1.000000 0.750000
vt 1.000000 1.000000
vt 0.000000 1.000000
vt 0.000000 0.750000
vt 1.000000 0.750000
vt 1.000000 1.000000
vt 0.000000 1.000000
vt 0.000000 0.750000
vt 0.125000 0.000000
vt 0.125000 1.000000
vt 0.000000 0.000000
vt 0.125000 0.000000
vt 0.125000 1.000000
vt 0.000000 1.000000
vt 0.000000 0.000000
vt 0.750000 0.468750
vt 0.750000 0.750000
vt 0.218750 0.750000
vt 0.218750 0.468750
vt 0.750000 0.468750
vt 0.750000 0.750000
vt 0.218750 0.750000
vt 0.218750 0.468750
vt 1.000000 0.750000
vt 1.000000 1.000000
vt 0.000000 1.000000
vt 0.000000 0.750000
vt 1.000000 0.000000
vt 1.000000 0.126101
vt 0.029297 0.126101
vt 0.029297 0.000000
vt 0.125000 0.000000
vt 0.125000 1.000000
vt 0.000000 1.000000
vt 0.000000 0.000000
vt 0.125000 0.000000
vt 0.125000 1.000000
vt 0.000000 1.000000
vt 0.000000 0.000000
vt 0.751230 0.751230
vt 0.469250 0.752461
vt 0.466789 0.471211
vt 0.748770 0.469980
vt 0.218250 0.469250
vt 0.500731 0.469250
vt 0.501961 0.753191
vt 0.223172 0.751961
vn 0.9659 0.2588 0.0000
vn -0.9659 -0.2588 -0.0000
vn -0.2588 0.9659 0.0000
vn 0.2588 -0.9659 -0.0000
vn 0.0000 0.0000 1.0000
vn 0.0000 0.0000 -1.0000
vn 1.0000 -0.0000 0.0000
vn -0.9986 -0.0533 -0.0000
vn 0.0000 1.0000 0.0000
vn 0.0000 -1.0000 -0.0000
vn -1.0000 0.0000 0.0000
vn -0.9879 -0.1550 -0.0000
vn -0.9964 -0.0853 -0.0000
vn 0.8660 0.5000 0.0000
vn -0.8660 -0.5000 -0.0000
vn -0.5000 0.8660 0.0000
vn 0.5000 -0.8660 -0.0000
vn 0.7071 0.7071 0.0000
vn -0.7071 -0.7071 -0.0000
vn -0.7071 0.7071 0.0000
vn 0.7071 -0.7071 -0.0000
vn 0.5000 0.8660 0.0000
vn -0.5000 -0.8660 -0.0000
vn -0.8660 0.5000 0.0000
vn 0.8660 -0.5000 -0.0000
vn 0.2588 0.9659 0.0000
vn -0.2588 -0.9659 -0.0000
vn -0.9659 0.2588 0.0000
vn 0.9659 -0.2588 -0.0000
usemtl Material.001
s 1
f 1/1/1 2/2/1 3/3/1 4/4/1
f 5/5/2 6/6/2 7/7/2 8/8/2
f 3/9/3 2/10/3 7/11/3 6/12/3
f 1/13/4 4/14/4 5/15/4 8/16/4
f 4/17/5 3/18/5 6/19/5 5/20/5
f 8/21/6 7/22/6 2/23/6 1/24/6
f 9/25/7 10/26/7 11/27/7 12/28/7
f 13/29/8 14/30/8 15/31/8 16/32/8
f 11/33/9 10/34/9 15/31/9 14/35/9
f 9/36/10 12/37/10 13/38/10 16/39/10
f 12/40/5 11/41/5 14/42/5 13/43/5
f 16/44/6 15/45/6 10/46/6 9/47/6
f 17/48/7 18/49/7 19/50/7 20/51/7
f 21/52/11 22/53/11 23/54/11 24/55/11
f 19/56/9 18/49/9 23/54/9 22/57/9
f 17/58/10 20/59/10 21/60/10 24/61/10
f 20/62/5 19/63/5 22/64/5 21/65/5
f 24/66/6 23/67/6 18/68/6 17/69/6
f 25/70/7 26/71/7 27/72/7 28/73/7
f 29/74/12 30/75/12 31/76/12 32/77/12
f 27/78/9 26/79/9 31/76/9 30/80/9
f 25/81/10 28/82/10 29/83/10 32/84/10
f 28/85/5 27/86/5 30/87/5 29/88/5
f 32/89/6 31/90/6 26/91/6 25/92/6
f 33/93/7 34/94/7 35/95/7 36/96/7
f 37/97/13 38/98/13 39/99/13 40/100/13
f 35/101/9 34/102/9 39/99/9 38/103/9
f 33/104/10 36/105/10 37/106/10 40/107/10
f 36/108/5 35/109/5 38/110/5 37/111/5
f 40/112/6 39/113/6 34/114/6 33/115/6
f 41/116/7 42/117/7 43/118/7 44/119/7
f 45/120/11 46/121/11 47/122/11 48/123/11
f 43/124/9 42/125/9 47/122/9 46/126/9
f 41/127/10 44/128/10 45/129/10 48/130/10
f 44/131/5 43/132/5 46/133/5 45/134/5
f 48/135/6 47/136/6 42/137/6 41/138/6
f 49/139/14 50/140/14 51/141/14 52/142/14
f 53/143/15 54/144/15 55/145/15 56/146/15
f 51/147/16 50/148/16 55/149/16 54/150/16
f 49/151/17 52/152/17 53/153/17 56/154/17
f 52/155/5 51/156/5 54/157/5 53/158/5
f 56/159/6 55/160/6 50/161/6 49/162/6
f 57/163/18 58/164/18 59/165/18 60/166/18
f 61/167/19 62/168/19 63/169/19 64/170/19
f 59/171/20 58/172/20 63/173/20 62/174/20
f 57/175/21 60/176/21 61/177/21 64/178/21
f 60/179/5 59/180/5 62/181/5 61/182/5
f 64/183/6 63/184/6 58/185/6 57/186/6
f 65/187/22 66/188/22 67/189/22 68/190/22
f 69/191/23 70/192/23 71/193/23 72/194/23
f 67/195/24 66/196/24 71/197/24 70/198/24
f 65/199/25 68/200/25 69/201/25 72/194/25
f 68/202/5 67/203/5 70/204/5 69/205/5
f 72/206/6 71/207/6 66/208/6 65/209/6
f 73/210/26 74/211/26 75/212/26 76/213/26
f 77/214/27 78/215/27 79/216/27 80/217/27
f 75/218/28 74/219/28 79/216/28 78/220/28
f 73/221/29 76/222/29 77/223/29 80/224/29
f 76/225/5 75/226/5 78/227/5 77/228/5
f 80/229/6 79/230/6 74/231/6 73/232/6
f 81/233/9 82/234/9 83/235/9 84/236/9
f 85/237/10 86/238/10 87/239/10 88/240/10
f 83/241/11 82/242/11 87/243/11 86/244/11
f 81/245/7 84/246/7 85/247/7 88/248/7
f 84/249/5 83/250/5 86/251/5 85/252/5
f 88/253/6 87/254/6 82/255/6 81/256/6
