# Blender 3.6.1
# www.blender.org
mtllib lime_gypsum_plaster_triple_arch_top.mtl
o cube.005
v 1.000000 1.000000 1.000000
v 1.000000 1.000000 -0.000000
v 1.000000 0.312500 1.000000
v 1.000000 0.312500 -0.000000
v 0.000000 1.000000 1.000000
v 0.000000 1.000000 -0.000000
v 0.000000 0.312500 1.000000
v 0.000000 0.312500 -0.000000
v 0.259417 0.303132 1.012500
v 0.259417 0.303132 -0.012500
v 0.421796 0.209382 1.012500
v 0.421796 0.209382 -0.012500
v 0.196917 0.194879 1.012500
v 0.196917 0.194879 -0.012500
v 0.359296 0.101129 1.012500
v 0.359296 0.101129 -0.012500
v 1.000000 0.312500 1.000000
v 1.000000 0.312500 -0.000000
v 1.000000 0.250000 1.000000
v 1.000000 0.250000 -0.000000
v 0.187500 0.312500 1.000000
v 0.187500 0.312500 -0.000000
v 0.187500 0.250000 1.000000
v 0.187500 0.250000 -0.000000
v 1.000000 0.250000 1.000000
v 1.000000 0.250000 -0.000000
v 1.000000 0.187500 1.000000
v 1.000000 0.187500 -0.000000
v 0.250000 0.250000 1.000000
v 0.250000 0.250000 -0.000000
v 0.250000 0.187500 1.000000
v 0.250000 0.187500 -0.000000
v 1.000000 0.187500 1.000000
v 1.000000 0.187500 -0.000000
v 1.000000 0.125000 1.000000
v 1.000000 0.125000 -0.000000
v 0.312500 0.187500 1.000000
v 0.312500 0.187500 -0.000000
v 0.322461 0.125000 1.000000
v 0.322461 0.125000 -0.000000
v 1.000000 0.125000 1.000000
v 1.000000 0.125000 -0.000000
v 1.000000 0.062500 1.000000
v 1.000000 0.062500 -0.000000
v 0.437500 0.125000 1.000000
v 0.437500 0.125000 -0.000000
v 0.437500 0.062500 1.000000
v 0.437500 0.062500 -0.000000
v 1.000000 0.062500 1.000000
v 1.000000 0.062500 -0.000000
v 1.000000 0.000000 1.000000
v 1.000000 0.000000 0.000000
v 0.500000 0.062500 1.000000
v 0.500000 0.062500 -0.000000
v 0.500000 0.000000 1.000000
v 0.500000 0.000000 0.000000
v 0.065304 0.372238 1.017567
v 0.065304 0.372238 -0.007433
v 0.244752 0.310364 1.012500
v 0.244752 0.310364 -0.012500
v 0.023775 0.257072 1.016734
v 0.023775 0.257072 -0.008266
v 0.196917 0.194879 1.012500
v 0.196917 0.194879 -0.012500
v 0.435392 0.200298 1.012500
v 0.435392 0.200298 -0.012500
v 0.584145 0.086156 1.012500
v 0.584145 0.086156 -0.012500
v 0.359296 0.101129 1.012500
v 0.359296 0.101129 -0.012500
v 0.516396 -0.016498 1.012369
v 0.516396 -0.016498 -0.012631
vn 1.0000 -0.0000 -0.0000
vn -1.0000 -0.0000 -0.0000
vn -0.0000 1.0000 -0.0000
vn -0.0000 -1.0000 -0.0000
vn -0.0000 -0.0000 1.0000
vn -0.0000 -0.0000 -1.0000
vn 0.5000 0.8660 -0.0000
vn -0.5000 -0.8660 -0.0000
vn -0.8660 0.5000 -0.0000
vn 0.8660 -0.5000 -0.0000
vn -0.9875 -0.1574 -0.0000
vn 0.3260 0.9454 -0.0000
vn -0.3381 -0.9411 -0.0000
vn -0.9407 0.3392 -0.0000
vn 0.9239 -0.3827 -0.0000
vn 0.0221 -0.0122 0.9997
vn -0.0221 0.0122 -0.9997
vn 0.6088 0.7934 -0.0000
vn -0.5994 -0.8005 -0.0000
vn -0.7934 0.6088 -0.0000
vn 0.8346 -0.5508 -0.0000
vn -0.0000 -0.0006 1.0000
vn -0.0000 0.0006 -1.0000
vt 0.000000 0.687500
vt 0.000000 0.000000
vt 1.000000 0.000000
vt 1.000000 0.687500
vt 1.000000 1.000000
vt 0.000000 1.000000
vt 1.000000 0.312500
vt 0.000000 0.312500
vt 1.000000 0.812500
vt 0.000000 0.812500
vt 1.000000 0.468750
vt 1.000000 0.750000
vt 0.000000 0.750000
vt 0.000000 0.468750
vt 0.125000 0.000000
vt 0.125000 1.000000
vt 0.218010 0.752720
vt 0.218010 0.471470
vt 0.749260 0.471470
vt 0.749260 0.752720
vt 1.000000 0.937500
vt 0.000000 0.937500
vt 0.812500 0.000000
vt 0.812500 1.000000
vt 1.000000 0.251434
vt 1.000000 0.313934
vt 0.187500 0.311981
vt 0.187500 0.249481
vt 0.812500 0.251434
vt 0.812500 0.313934
vt 0.000000 0.311981
vt 0.000000 0.249481
vt 0.750000 0.000000
vt 0.750000 1.000000
vt 1.000000 0.191406
vt 1.000000 0.253906
vt 0.251953 0.250000
vt 0.251953 0.187500
vt 0.748047 0.191406
vt 0.748047 0.253906
vt 0.000000 0.250000
vt 0.000000 0.187500
vt 0.000000 0.875000
vt 1.000000 0.875000
vt 0.687500 0.000000
vt 0.687500 1.000000
vt 1.000000 0.097149
vt 1.000000 0.157188
vt 0.314453 0.156250
vt 0.324219 0.095703
vt 0.675781 0.191406
vt 0.685547 0.126953
vt 0.000000 0.125000
vt 0.562500 0.000000
vt 0.562500 1.000000
vt 1.000000 0.064453
vt 1.000000 0.125977
vt 0.440176 0.126953
vt 0.440176 0.064453
vt 0.558594 0.064453
vt 0.558594 0.125977
vt 0.000000 0.126953
vt 0.000000 0.064453
vt 0.500000 0.000000
vt 0.500000 1.000000
vt 1.000000 0.062500
vt 0.502759 0.062500
vt 0.502759 0.000000
vt 0.494141 0.000000
vt 0.494141 0.062500
vt 0.000000 0.062500
vt 1.000000 0.718750
vt 0.000000 0.718750
s 0
usemtl Material.001
f 4/1/1 2/2/1 1/3/1 3/4/1
f 7/1/2 5/2/2 6/3/2 8/4/2
f 1/3/3 2/5/3 6/6/3 5/2/3
f 4/3/4 3/5/4 7/6/4 8/2/4
f 3/7/5 1/5/5 5/6/5 7/8/5
f 8/7/6 6/5/6 2/6/6 4/8/6
f 11/17/5 9/18/5 13/19/5 15/20/5
f 16/17/6 14/18/6 10/19/6 12/20/6
f 20/13/1 18/1/1 17/4/1 19/12/1
f 23/21/2 21/5/2 22/6/2 24/22/2
f 17/23/3 18/24/3 22/6/3 21/2/3
f 20/23/4 19/24/4 23/6/4 24/2/4
f 19/25/5 17/26/5 21/27/5 23/28/5
f 24/29/6 22/30/6 18/31/6 20/32/6
f 28/10/1 26/13/1 25/12/1 27/9/1
f 31/21/2 29/5/2 30/6/2 32/22/2
f 25/33/3 26/34/3 30/6/3 29/2/3
f 28/33/4 27/34/4 31/6/4 32/2/4
f 27/35/5 25/36/5 29/37/5 31/38/5
f 32/39/6 30/40/6 26/41/6 28/42/6
f 36/43/1 34/10/1 33/9/1 35/44/1
f 39/21/11 37/5/11 38/6/11 40/22/11
f 33/45/3 34/46/3 38/6/3 37/2/3
f 36/45/4 35/46/4 39/6/4 40/2/4
f 35/47/5 33/48/5 37/49/5 39/50/5
f 40/51/6 38/52/6 34/53/6 36/42/6
f 44/22/1 42/43/1 41/44/1 43/21/1
f 47/21/2 45/5/2 46/6/2 48/22/2
f 41/54/3 42/55/3 46/6/3 45/2/3
f 44/54/4 43/55/4 47/6/4 48/2/4
f 43/56/5 41/57/5 45/58/5 47/59/5
f 48/60/6 46/61/6 42/62/6 44/63/6
f 52/6/1 50/22/1 49/21/1 51/5/1
f 55/21/2 53/5/2 54/6/2 56/22/2
f 49/64/3 50/65/3 54/6/3 53/2/3
f 52/64/4 51/65/4 55/6/4 56/2/4
f 51/3/5 49/66/5 53/67/5 55/68/5
f 56/69/6 54/70/6 50/71/6 52/2/6
f 59/17/16 57/18/16 61/19/16 63/20/16
f 64/17/17 62/18/17 58/19/17 60/20/17
f 67/17/22 65/18/22 69/19/22 71/20/22
f 72/17/23 70/18/23 66/19/23 68/20/23
usemtl Material.001
f 12/9/7 10/5/7 9/6/7 11/10/7
f 15/11/8 13/12/8 14/13/8 16/14/8
f 9/15/9 10/16/9 14/6/9 13/2/9
f 12/15/10 11/16/10 15/6/10 16/2/10
f 60/9/12 58/5/12 57/6/12 59/10/12
f 63/9/13 61/5/13 62/6/13 64/10/13
f 57/15/14 58/16/14 62/6/14 61/2/14
f 60/15/15 59/16/15 63/6/15 64/2/15
f 68/9/18 66/5/18 65/6/18 67/10/18
f 71/72/19 69/5/19 70/6/19 72/73/19
f 65/15/20 66/16/20 70/6/20 69/2/20
f 68/15/21 67/16/21 71/6/21 72/2/21
