# Blender v3.0.0 OBJ File: 'Five Arch.blend'
# www.blender.org
mtllib sandstone_five_arch_bottom.mtl
o Arch_Bottom_Cube.012
v 1.000000 0.500000 1.000000
v 0.812500 1.000000 1.000000
v 1.000000 0.500000 0.000000
v 0.812500 1.000000 0.000000
v 1.000000 0.500000 1.000000
v 1.000000 1.000000 1.000000
v 1.000000 0.500000 0.000000
v 1.000000 1.000000 0.000000
v 0.997406 -0.015746 1.020000
v 0.985236 0.246078 1.020000
v 0.949317 0.489333 1.020000
v 0.889837 0.727880 1.020000
v 0.807368 0.959422 1.020000
v 0.997406 -0.015746 -0.020000
v 0.807368 0.959421 -0.020000
v 0.889837 0.727880 -0.020000
v 0.949317 0.489333 -0.020000
v 0.985236 0.246078 -0.020000
v 0.929273 1.010148 -0.020000
v 0.929273 1.010148 1.020000
v 1.016104 0.766358 -0.020000
v 1.016104 0.766358 1.020000
v 1.078731 0.515193 -0.020000
v 1.078731 0.515193 1.020000
v 1.116549 0.259071 -0.020000
v 1.116549 0.259071 1.020000
v 1.129196 0.000457 -0.020000
v 1.129196 0.000458 1.020000
v 0.997406 -0.015746 1.020000
v 0.997406 -0.015746 -0.020000
v 1.129196 0.000457 -0.020000
v 1.129196 0.000458 1.020000
vt 0.002702 0.995320
vt 0.002220 -0.004680
vt 1.002220 -0.005163
vt 1.002702 0.994837
vt 1.000000 0.506508
vt 0.814471 0.000000
vt 1.000000 0.000000
vt 1.000000 0.513869
vt -0.000261 0.999739
vt 0.000261 -0.000261
vt 1.000261 0.000261
vt 0.999739 1.000261
vt 1.000000 0.495355
vt 1.000000 1.000000
vt 0.774909 1.000000
vt 1.000000 0.496776
vt 0.000000 0.000000
vt 1.000000 0.000000
vt 1.000000 1.000000
vt 0.000000 1.000000
vt 0.000000 0.000000
vt 1.000000 0.000000
vt 1.000000 1.000000
vt 0.000000 1.000000
vt 0.000000 0.472186
vt 0.000000 0.720432
vt 1.000000 0.720435
vt 1.000000 0.472184
vt 0.000002 0.748047
vt 0.999995 0.748047
vt 1.000000 0.468505
vt 0.000000 0.468505
vt 0.000002 1.000000
vt 0.999995 1.000000
vt 1.000000 0.720458
vt 0.000000 0.720458
vt 0.000002 0.748047
vt 0.999995 0.748047
vt 1.000000 0.468505
vt 0.000000 0.468505
vt 0.000002 1.000000
vt 0.999995 1.000000
vt 1.000000 0.720458
vt 0.000000 0.720458
vt 0.466216 0.231416
vt 1.003130 0.228501
vt 0.998885 0.506695
vt 0.467121 0.505971
vt 0.222656 0.472656
vt 0.759185 0.473604
vt 0.754231 0.750111
vt 0.218551 0.751219
vt 0.466216 0.231416
vt 1.003130 0.228501
vt 0.998885 0.506695
vt 0.467121 0.505971
vt 0.222656 0.472656
vt 0.759185 0.473604
vt 0.754231 0.750111
vt 0.218551 0.751219
vt 0.466216 0.231416
vt 1.003130 0.228501
vt 0.998885 0.506695
vt 0.467121 0.505971
vt 0.222656 0.472656
vt 0.759185 0.473604
vt 0.754231 0.750111
vt 0.218551 0.751219
vt 0.222656 0.472656
vt 0.759185 0.473604
vt 0.754231 0.750111
vt 0.218551 0.751219
vt 0.222656 0.472656
vt 0.759185 0.473604
vt 0.754231 0.750111
vt 0.218551 0.751219
vt 0.000000 0.719760
vt 0.000000 0.965546
vt 1.000000 0.965549
vt 1.000000 0.719759
vt 0.000000 0.000001
vt 0.000000 0.218719
vt 1.000000 0.218721
vt 1.000000 0.000000
vt -0.000000 0.217761
vt 0.000000 0.475851
vt 1.000000 0.475853
vt 1.000000 0.217759
vt 0.000000 0.749266
vt 1.000000 0.755971
vt 1.000000 0.474139
vt 0.000000 0.472656
vn -0.9363 -0.3511 0.0000
vn 0.0000 0.0000 -1.0000
vn 1.0000 0.0000 0.0000
vn 0.0000 0.0000 1.0000
vn 0.0000 1.0000 0.0000
vn -0.9989 -0.0464 0.0000
vn 0.9420 0.3355 -0.0000
vn 0.9703 0.2419 -0.0000
vn 0.9893 0.1461 -0.0000
vn 0.9988 0.0488 -0.0000
vn -0.9893 -0.1461 0.0000
vn -0.9703 -0.2419 0.0000
vn -0.9420 -0.3355 0.0000
vn 0.1220 -0.9925 0.0000
usemtl Material.001
s off
f 1/1/1 2/2/1 4/3/1 3/4/1
f 3/5/2 4/6/2 8/7/2 7/8/2
f 7/9/3 8/10/3 6/11/3 5/12/3
f 5/13/4 6/14/4 2/15/4 1/16/4
f 3/17/4 7/18/4 5/19/4 1/20/4
f 8/21/5 4/22/5 2/23/5 6/24/5
f 9/25/6 10/26/6 18/27/6 14/28/6
f 19/29/7 20/30/7 22/31/7 21/32/7
f 21/33/8 22/34/8 24/35/8 23/36/8
f 23/37/9 24/38/9 26/39/9 25/40/9
f 25/41/10 26/42/10 28/43/10 27/44/10
f 16/45/2 15/46/2 19/47/2 21/48/2
f 13/49/4 12/50/4 22/51/4 20/52/4
f 17/53/2 16/54/2 21/55/2 23/56/2
f 12/57/4 11/58/4 24/59/4 22/60/4
f 18/61/2 17/62/2 23/63/2 25/64/2
f 11/65/4 10/66/4 26/67/4 24/68/4
f 14/69/2 18/70/2 25/71/2 27/72/2
f 10/73/4 9/74/4 28/75/4 26/76/4
f 10/77/11 11/78/11 17/79/11 18/80/11
f 11/81/12 12/82/12 16/83/12 17/84/12
f 12/85/13 13/86/13 15/87/13 16/88/13
f 31/89/14 32/90/14 29/91/14 30/92/14
