# Blender v3.0.0 OBJ File: 'Five Arch.blend'
# www.blender.org
mtllib sandstone_five_arch_top.mtl
o Top_Arch_Cube.011
v -0.016144 0.454205 -0.020000
v 0.221314 0.394452 -0.020000
v 0.451799 0.311605 -0.020000
v 0.673090 0.206462 -0.020000
v 0.883058 0.080036 -0.020000
v 1.079679 -0.066457 -0.020000
v 1.079679 -0.066457 1.020000
v 0.883058 0.080036 1.020000
v 0.673090 0.206462 1.020000
v 0.451799 0.311605 1.020000
v 0.221314 0.394452 1.020000
v -0.016144 0.454205 1.020000
v 0.009598 0.584212 -0.020000
v 0.009598 0.584212 1.020000
v 0.259617 0.521298 -0.020000
v 0.259617 0.521298 1.020000
v 0.502293 0.434069 -0.020000
v 0.502293 0.434069 1.020000
v 0.735291 0.323364 -0.020000
v 0.735291 0.323364 1.020000
v 0.956365 0.190250 -0.020000
v 0.956364 0.190250 1.020000
v 1.163386 0.036009 -0.020000
v 1.163386 0.036009 1.020000
v 0.009598 0.584212 1.020000
v 0.009598 0.584212 -0.020000
v 0.259617 0.521298 -0.020000
v 0.259617 0.521298 -0.020000
v 0.259617 0.521298 -0.020000
v 0.259617 0.521298 1.020000
v 0.259617 0.521298 1.020000
v 0.259617 0.521298 1.020000
v 0.502293 0.434069 -0.020000
v 0.502293 0.434069 -0.020000
v 0.502293 0.434069 -0.020000
v 0.502293 0.434069 1.020000
v 0.502293 0.434069 1.020000
v 0.502293 0.434069 1.020000
v 0.735291 0.323364 -0.020000
v 0.735291 0.323364 -0.020000
v 0.735291 0.323364 -0.020000
v 0.735291 0.323364 1.020000
v 0.735291 0.323364 1.020000
v 0.735291 0.323364 1.020000
v 0.956365 0.190250 -0.020000
v 0.956365 0.190250 -0.020000
v 0.956365 0.190250 -0.020000
v 0.956364 0.190250 1.020000
v 0.956364 0.190250 1.020000
v 0.956364 0.190250 1.020000
v 1.163386 0.036009 -0.020000
v 1.163386 0.036009 1.020000
v 0.221314 0.394452 -0.020000
v 0.221314 0.394452 -0.020000
v 0.221314 0.394452 -0.020000
v -0.016144 0.454205 -0.020000
v -0.016144 0.454205 1.020000
v 0.221314 0.394452 1.020000
v 0.221314 0.394452 1.020000
v 0.221314 0.394452 1.020000
v 0.451799 0.311605 -0.020000
v 0.451799 0.311605 -0.020000
v 0.451799 0.311605 -0.020000
v 0.451799 0.311605 1.020000
v 0.451799 0.311605 1.020000
v 0.451799 0.311605 1.020000
v 0.673090 0.206462 -0.020000
v 0.673090 0.206462 -0.020000
v 0.673090 0.206462 -0.020000
v 0.673090 0.206462 1.020000
v 0.673090 0.206462 1.020000
v 0.673090 0.206462 1.020000
v 0.883058 0.080036 -0.020000
v 0.883058 0.080036 -0.020000
v 0.883058 0.080036 -0.020000
v 0.883058 0.080036 1.020000
v 0.883058 0.080036 1.020000
v 0.883058 0.080036 1.020000
v 1.079679 -0.066457 -0.020000
v 1.079679 -0.066457 1.020000
v 1.000000 0.131656 0.000000
v 1.000000 1.000582 0.000000
v 1.000000 0.131656 1.000000
v 1.000000 1.000582 1.000000
v 0.000000 0.481565 0.000000
v 0.000000 1.000582 0.000000
v 0.000000 0.481565 1.000000
v 0.000000 1.000582 1.000000
vt 0.000002 1.000000
vt 0.999995 1.000000
vt 1.000000 0.720458
vt 0.000000 0.720458
vt 0.000002 0.748047
vt 0.999995 0.748047
vt 1.000000 0.468505
vt 0.000000 0.468505
vt 0.000002 1.000000
vt 0.999995 1.000000
vt 1.000000 0.720458
vt 0.000000 0.720458
vt 0.000002 0.748047
vt 0.999995 0.748047
vt 1.000000 0.468505
vt 0.000000 0.468505
vt 0.000002 1.000000
vt 0.999995 1.000000
vt 1.000000 0.720458
vt 0.000000 0.720458
vt 0.222656 0.472656
vt 0.759185 0.473604
vt 0.754231 0.750111
vt 0.218551 0.751219
vt 0.466216 0.231416
vt 1.003130 0.228501
vt 0.998885 0.506695
vt 0.467121 0.505971
vt 0.222656 0.472656
vt 0.759185 0.473604
vt 0.754231 0.750111
vt 0.218551 0.751219
vt 0.466216 0.231416
vt 1.003130 0.228501
vt 0.998885 0.506695
vt 0.467121 0.505971
vt 0.222656 0.472656
vt 0.759185 0.473604
vt 0.754231 0.750111
vt 0.218551 0.751219
vt 0.466216 0.231416
vt 1.003130 0.228501
vt 0.998885 0.506695
vt 0.467121 0.505971
vt 0.222656 0.472656
vt 0.759185 0.473604
vt 0.754231 0.750111
vt 0.218551 0.751219
vt 0.466216 0.231416
vt 1.003130 0.228501
vt 0.998885 0.506695
vt 0.467121 0.505971
vt 0.222656 0.472656
vt 0.759185 0.473604
vt 0.754231 0.750111
vt 0.218551 0.751219
vt 0.466216 0.231416
vt 1.003130 0.228501
vt 0.998885 0.506695
vt 0.467121 0.505971
vt 0.000000 0.717300
vt 0.000000 0.968007
vt 1.000000 0.968010
vt 1.000000 0.717298
vt 0.000000 0.000001
vt 0.000000 0.221180
vt 1.000000 0.221182
vt 1.000000 0.000000
vt -0.000000 0.718011
vt 0.000000 0.970893
vt 1.000000 0.970896
vt 1.000000 0.718010
vt 0.000000 0.000001
vt 0.000000 0.245787
vt 1.000000 0.245790
vt 1.000000 0.000000
vt 0.000000 0.249254
vt 0.000000 0.499962
vt 1.000000 0.499964
vt 1.000000 0.249253
vt 0.002702 0.995320
vt 0.002220 -0.004680
vt 1.002220 -0.005163
vt 1.002702 0.994837
vt 1.004181 0.132265
vt 1.004181 1.000000
vt 0.000000 1.000000
vt 0.000000 0.484256
vt -0.000261 0.999739
vt 0.000261 -0.000261
vt 1.000261 0.000261
vt 0.999739 1.000261
vt 1.000000 0.486895
vt 1.000000 1.000000
vt 0.000000 1.000000
vt 0.000000 0.135207
vt 0.000000 0.000000
vt 1.000000 0.000000
vt 1.000000 1.000000
vt 0.000000 1.000000
vt 0.000000 0.000000
vt 1.000000 0.000000
vt 1.000000 1.000000
vt 0.000000 1.000000
vn 0.2440 0.9698 0.0000
vn 0.3383 0.9411 0.0000
vn 0.4292 0.9032 0.0000
vn 0.5158 0.8567 0.0000
vn 0.5975 0.8019 0.0000
vn 0.0000 -0.0000 -1.0000
vn -0.0000 0.0000 1.0000
vn -0.2440 -0.9698 -0.0000
vn -0.3383 -0.9411 -0.0000
vn -0.4292 -0.9032 -0.0000
vn -0.5158 -0.8567 -0.0000
vn -0.5975 -0.8019 -0.0000
vn 1.0000 0.0000 0.0000
vn -1.0000 0.0000 -0.0000
vn -0.3303 -0.9439 -0.0000
vn 0.0000 1.0000 0.0000
usemtl Material.001
s off
f 26/1/1 25/2/1 30/3/1 27/4/1
f 28/5/2 31/6/2 36/7/2 33/8/2
f 34/9/3 37/10/3 42/11/3 39/12/3
f 40/13/4 43/14/4 48/15/4 45/16/4
f 46/17/5 49/18/5 52/19/5 51/20/5
f 53/21/6 56/22/6 13/23/6 29/24/6
f 57/25/7 58/26/7 32/27/7 14/28/7
f 61/29/6 54/30/6 15/31/6 35/32/6
f 59/33/7 64/34/7 38/35/7 16/36/7
f 67/37/6 62/38/6 17/39/6 41/40/6
f 65/41/7 70/42/7 44/43/7 18/44/7
f 73/45/6 68/46/6 19/47/6 47/48/6
f 71/49/7 76/50/7 50/51/7 20/52/7
f 79/53/6 74/54/6 21/55/6 23/56/6
f 77/57/7 80/58/7 24/59/7 22/60/7
f 1/61/8 55/62/8 60/63/8 12/64/8
f 2/65/9 63/66/9 66/67/9 11/68/9
f 3/69/10 69/70/10 72/71/10 10/72/10
f 4/73/11 75/74/11 78/75/11 9/76/11
f 5/77/12 6/78/12 7/79/12 8/80/12
f 81/81/13 82/82/13 84/83/13 83/84/13
f 83/85/7 84/86/7 88/87/7 87/88/7
f 87/89/14 88/90/14 86/91/14 85/92/14
f 85/93/6 86/94/6 82/95/6 81/96/6
f 83/97/15 87/98/15 85/99/15 81/100/15
f 88/101/16 84/102/16 82/103/16 86/104/16
