# Blender 3.6.1
# www.blender.org
mtllib sandstone_bridge_back_left_muddy_bottom.mtl
o Back_Left
v 1.000000 1.000000 1.000000
v 1.000000 0.000000 1.000000
v 0.375000 0.000000 1.000000
v 0.375000 1.000000 1.000000
v -0.000000 1.000000 1.000000
v 0.000000 -0.000000 1.000000
v -0.000000 1.000000 0.000000
v 0.000000 -0.000000 0.000000
v 1.000000 1.000000 0.622815
v 0.377185 1.000000 0.000000
v 0.916559 1.000000 0.311408
v 0.688592 1.000000 0.083441
v 0.377185 0.000000 0.000000
v 1.000000 0.000000 0.622815
v 0.688592 0.000000 0.083441
v 0.916559 0.000000 0.311408
v 0.376092 0.000000 0.625000
v 0.376092 1.000000 0.625000
v 0.376638 1.000000 0.312500
v 0.376639 0.000000 0.312500
vn -0.0000 -0.0000 -1.0000
vn -1.0000 -0.0000 -0.0000
vn -0.0000 -0.0000 1.0000
vn 1.0000 -0.0000 -0.0000
vn 0.2588 -0.0000 -0.9659
vn 0.7071 -0.0000 -0.7071
vn 0.9659 -0.0000 -0.2588
vn -0.0000 1.0000 -0.0000
vn -0.0000 -1.0000 -0.0000
vt 0.622816 1.000631
vt 0.621139 0.000632
vt 0.998323 0.000000
vt 1.000000 0.999999
vt 1.000261 0.000261
vt 0.999739 1.000261
vt -0.000261 0.999739
vt 0.000261 -0.000261
vt 1.000609 0.000609
vt 0.999391 1.000609
vt 0.499391 1.000000
vt 0.500609 0.000000
vt 0.000482 1.000182
vt 0.000000 0.000182
vt 0.377185 0.000000
vt 0.377667 1.000000
vt 0.654865 0.000000
vt 0.656542 0.999998
vt 0.345135 1.000521
vt 0.343458 0.000522
vt 0.404865 0.000000
vt 0.406542 0.999998
vt 0.095135 1.000521
vt 0.093458 0.000522
vt 0.661196 0.000000
vt 0.661196 1.000000
vt 0.338804 1.000000
vt 0.338804 0.000000
vt 0.000000 0.621983
vt 0.000000 0.000000
vt 0.375364 0.000000
vt 0.373190 0.620896
vt -0.000609 0.999391
vt 0.000609 -0.000609
vt 0.000560 0.998252
vt 0.999341 1.000000
vt 1.000000 0.623275
vt 0.001216 0.623710
vt 0.000765 1.000000
vt 1.000000 0.997972
vt 0.999240 0.623259
vt 0.000000 0.623104
vt 0.690216 0.083984
vt 0.688478 0.622213
vt 0.376146 1.000000
vt 0.373958 0.375263
vt 0.686873 0.375809
vt 0.687968 0.916447
vt 0.000000 0.374406
vt 0.375356 0.375499
vt 0.377543 1.000000
vt 0.000000 1.000000
vt 0.911131 0.690419
vt 0.678417 0.915752
vt 0.686059 0.373310
vt 1.000000 0.378917
vt 1.000000 0.616725
vt 0.686020 0.619253
vt 0.683696 0.076762
vt 0.914189 0.304367
s 0
usemtl Sandstone_Pattern.001
f 7/5/2 8/6/2 6/7/2 5/8/2
f 5/9/3 6/10/3 3/11/3 4/12/3
f 4/29/8 1/30/8 9/31/8 18/32/8
f 4/12/3 3/11/3 2/33/3 1/34/3
f 6/35/9 8/36/9 13/37/9 3/38/9
f 7/39/8 5/40/8 4/41/8 10/42/8
f 9/31/8 11/43/8 19/44/8 18/32/8
f 14/45/9 17/46/9 20/47/9 16/48/9
f 3/49/9 17/50/9 14/51/9 2/52/9
f 15/53/9 16/54/9 20/55/9 13/56/9
f 10/57/8 19/58/8 11/59/8 12/60/8
usemtl Sandstone_Pattern
f 10/1/1 13/2/1 8/3/1 7/4/1
f 1/13/4 2/14/4 14/15/4 9/16/4
f 13/17/5 10/18/5 12/19/5 15/20/5
f 15/21/6 12/22/6 11/23/6 16/24/6
f 16/25/7 11/26/7 9/27/7 14/28/7
