# Blender 3.6.1
# www.blender.org
mtllib sandstone_bridge_front_left.mtl
o side_front_left
v 0.921669 -0.000000 3.147888
v 0.660394 -0.000000 2.833025
v 0.431385 -0.000000 2.409289
v 0.243441 -0.000000 1.892967
v 0.103787 -0.000000 1.303898
v 0.017788 -0.000000 0.664721
v 0.000000 -0.000000 -0.000000
v 0.921669 1.000000 3.147888
v 0.660394 1.000000 2.833025
v 0.431385 1.000000 2.409289
v 0.243441 1.000000 1.892967
v 0.103787 1.000000 1.303898
v 0.017788 1.000000 0.664721
v 0.000000 1.000000 -0.000000
v 1.000000 1.000000 -0.000000
v 1.000000 -0.000000 -0.000000
v 1.000000 0.000000 3.201578
v 1.000000 1.000000 3.201578
v 1.000000 1.000000 1.312500
v 1.000000 -0.000000 1.312500
v 1.000000 1.000000 2.375000
v 1.000000 -0.000000 2.375000
v 1.000000 1.000000 0.687500
v 1.000000 -0.000000 0.687500
v 1.000000 1.000000 1.875000
v 1.000000 -0.000000 1.875000
v 1.000000 1.000000 2.812500
v 1.000000 -0.000000 2.812500
vn -0.7696 -0.0000 0.6386
vn -0.8797 -0.0000 0.4755
vn -0.9397 -0.0000 0.3420
vn -0.9730 -0.0000 0.2307
vn -0.9911 -0.0000 0.1333
vn -0.9996 -0.0000 0.0268
vn -0.5654 -0.0000 0.8248
vn 1.0000 -0.0000 -0.0000
vn -0.0000 1.0000 -0.0000
vn -0.0000 -1.0000 -0.0000
vn -0.0000 -0.0000 -1.0000
vt 0.781250 0.000000
vt 0.781250 1.000000
vt 0.368775 1.000000
vt 0.368774 0.000000
vt 0.086571 0.000000
vt 0.086570 1.000000
vt 0.572146 1.000000
vt 0.572146 0.000000
vt 0.885285 0.000000
vt 0.885285 1.000000
vt 0.331354 1.000000
vt 0.331354 0.000000
vt 0.895553 0.000000
vt 0.895553 1.000000
vt 0.285236 1.000000
vt 0.285237 0.000000
vt 0.791487 0.000000
vt 0.791486 1.000000
vt 0.141308 1.000000
vt 0.141308 0.000000
vt 0.670364 0.000000
vt 0.670364 1.000000
vt 0.000000 1.000000
vt 0.000000 0.000000
vt 0.309262 0.999879
vt 0.404192 0.999815
vt 0.403524 0.000000
vt 0.308594 0.000064
vt -1.125634 0.010530
vt -0.731789 0.006460
vt -0.288928 0.001884
vt 0.217198 -0.003347
vt 0.786590 -0.009231
vt 1.419248 -0.015769
vt 2.115172 -0.022960
vt 2.125634 0.989470
vt 1.429710 0.996661
vt 0.797053 1.003199
vt 0.227660 1.009084
vt -0.278466 1.014313
vt -0.721326 1.018890
vt -1.115171 1.022960
vt 0.623673 0.339052
vt 0.309436 0.078197
vt 0.255859 0.000000
vt 0.644224 0.000073
vt 0.980348 0.335753
vt 0.676578 0.083589
vt 0.624787 0.007997
vt 1.000213 0.008067
vt 0.389896 0.587792
vt 0.409916 0.264076
vt 0.826981 0.264661
vt 0.793532 0.806671
vt 0.217385 0.339901
vt 0.238407 0.000000
vt 0.676324 0.000615
vt 0.641203 0.569724
vt 0.552177 0.566842
vt 0.586184 0.017725
vt 1.069086 0.018508
vt 1.050550 0.749166
vt 0.062751 0.567703
vt 0.097667 0.003906
vt 0.593478 0.004709
vt 0.574447 0.754901
vt 0.089546 0.753561
vt 0.107139 0.012741
vt 0.657937 0.012741
vt 0.666360 0.890310
vt 0.098125 0.762753
vt 0.116239 0.000000
vt 0.683345 0.000000
vt 0.692017 0.903552
vt 0.703075 0.903622
vt 0.703075 -0.003020
vt 1.335290 0.003048
vt 1.348795 0.996819
vt 0.182568 0.896804
vt 0.170860 0.002176
vt 0.794775 0.000000
vt 0.820934 0.980427
vt 0.999697 0.003183
vt 0.999697 1.003018
vt 0.335085 0.985232
vt 0.312311 0.003183
vt 1.000000 0.000000
vt 1.000000 0.999834
vt 0.335388 0.982049
vt 0.312614 0.000000
vt 1.000000 1.000000
vt 0.000000 1.000000
vt 0.000000 0.000000
vt 1.000000 0.000000
s 0
usemtl Sandstone_Pattern
f 1/1/1 8/2/1 9/3/1 2/4/1
f 2/5/2 9/6/2 10/7/2 3/8/2
f 3/9/3 10/10/3 11/11/3 4/12/3
f 4/13/4 11/14/4 12/15/4 5/16/4
f 5/17/5 12/18/5 13/19/5 6/20/5
f 6/21/6 13/22/6 14/23/6 7/24/6
f 18/25/7 8/26/7 1/27/7 17/28/7
f 17/29/8 28/30/8 22/31/8 26/32/8 20/33/8 24/34/8 16/35/8 15/36/8 23/37/8 19/38/8 25/39/8 21/40/8 27/41/8 18/42/8
f 14/91/11 15/92/11 16/93/11 7/94/11
usemtl Sandstone_Pattern.001
f 9/43/9 8/44/9 18/45/9 27/46/9
f 2/47/10 28/48/10 17/49/10 1/50/10
f 2/51/10 3/52/10 22/53/10 28/54/10
f 9/55/9 27/56/9 21/57/9 10/58/9
f 3/59/10 4/60/10 26/61/10 22/62/10
f 10/63/9 21/64/9 25/65/9 11/66/9
f 4/67/10 5/68/10 20/69/10 26/70/10
f 11/71/9 25/72/9 19/73/9 12/74/9
f 5/75/10 6/76/10 24/77/10 20/78/10
f 12/79/9 19/80/9 23/81/9 13/82/9
f 6/83/10 7/84/10 16/85/10 24/86/10
f 15/87/9 14/88/9 13/89/9 23/90/9
