# Blender 3.6.1
# www.blender.org
mtllib sandstone_bridge_front_left.mtl
o side_front
v 0.921669 -0.000001 3.147888
v 0.660394 -0.000001 2.833025
v 0.431385 -0.000001 2.409289
v 0.243441 -0.000001 1.892967
v 0.103787 -0.000001 1.303898
v 0.017788 -0.000001 0.664721
v 0.000000 -0.000001 -0.000000
v 0.921669 1.000000 3.147888
v 0.660394 1.000000 2.833025
v 0.431385 1.000000 2.409289
v 0.243441 1.000000 1.892967
v 0.103787 1.000000 1.303898
v 0.017788 1.000000 0.664721
v 0.000000 1.000000 -0.000000
v 1.000000 1.000000 -0.000000
v 1.000000 -0.000001 -0.000000
v 1.000000 0.000000 3.201578
v 1.000000 1.000000 3.201578
v 1.000000 1.000000 1.312500
v 1.000000 -0.000000 1.312500
v 1.000000 1.000000 2.375000
v 1.000000 -0.000000 2.375000
v 1.000000 1.000000 0.687500
v 1.000000 -0.000000 0.687500
v 1.000000 1.000000 1.875000
v 1.000000 -0.000000 1.875000
v 1.000000 1.000000 2.812500
v 1.000000 -0.000000 2.812500
vn -0.7696 -0.0000 0.6386
vn -0.8797 -0.0000 0.4755
vn -0.9397 -0.0000 0.3420
vn -0.9730 -0.0000 0.2307
vn -0.9911 -0.0000 0.1333
vn -0.9996 -0.0000 0.0268
vn -0.5654 -0.0000 0.8248
vn 1.0000 -0.0000 -0.0000
vn -0.0000 1.0000 -0.0000
vn -0.0000 -1.0000 -0.0000
vn -0.0000 -0.0000 -1.0000
vt 1.145302 0.004164
vt 1.145302 0.995837
vt 1.554342 0.995837
vt 1.554343 0.004164
vt 2.035875 0.995836
vt 2.035875 0.004164
vt 2.585194 0.995837
vt 2.585194 0.004164
vt 3.190428 0.995836
vt 3.190428 0.004164
vt 3.835192 0.995837
vt 3.835192 0.004164
vt 4.499974 0.995837
vt 4.499974 0.004164
vt 0.973616 0.995837
vt 0.973616 0.004164
vt -1.125634 0.010530
vt -0.731789 0.006460
vt -0.288928 0.001884
vt 0.217198 -0.003347
vt 0.786590 -0.009231
vt 1.419248 -0.015769
vt 2.115172 -0.022960
vt 2.125634 0.989470
vt 1.429710 0.996661
vt 0.797053 1.003199
vt 0.227660 1.009084
vt -0.278466 1.014313
vt -0.721326 1.018890
vt -1.115171 1.022960
vt 0.980348 0.335753
vt 0.676578 0.083589
vt 0.624787 0.007997
vt 1.000213 0.008067
vt 0.389896 0.587792
vt 0.409916 0.264076
vt 0.826981 0.264661
vt 0.793532 0.806671
vt 0.552177 0.566842
vt 0.586184 0.017725
vt 1.069086 0.018508
vt 1.050550 0.749166
vt 0.089546 0.753561
vt 0.107139 0.012741
vt 0.657937 0.012741
vt 0.666360 0.890310
vt 0.703075 0.903622
vt 0.703075 -0.003020
vt 1.335290 0.003048
vt 1.348795 0.996819
vt 0.999697 0.003183
vt 0.999697 1.003018
vt 0.335085 0.985232
vt 0.312311 0.003183
vt 0.999724 0.999900
vt 0.000100 0.999900
vt 0.000100 0.000100
vt 0.999724 0.000100
s 0
usemtl Sandstone_Pattern
f 1/1/1 8/2/1 9/3/1 2/4/1
f 2/4/2 9/3/2 10/5/2 3/6/2
f 3/6/3 10/5/3 11/7/3 4/8/3
f 4/8/4 11/7/4 12/9/4 5/10/4
f 5/10/5 12/9/5 13/11/5 6/12/5
f 6/12/6 13/11/6 14/13/6 7/14/6
f 18/15/7 8/2/7 1/1/7 17/16/7
f 17/17/8 28/18/8 22/19/8 26/20/8 20/21/8 24/22/8 16/23/8 15/24/8 23/25/8 19/26/8 25/27/8 21/28/8 27/29/8 18/30/8
f 14/55/11 15/56/11 16/57/11 7/58/11
usemtl Sandstone_Pattern.001
f 9/31/9 8/32/9 18/33/9 27/34/9
f 2/31/10 28/32/10 17/33/10 1/34/10
f 2/35/10 3/36/10 22/37/10 28/38/10
f 9/35/9 27/36/9 21/37/9 10/38/9
f 3/39/10 4/40/10 26/41/10 22/42/10
f 10/39/9 21/40/9 25/41/9 11/42/9
f 4/43/10 5/44/10 20/45/10 26/46/10
f 11/43/9 25/44/9 19/45/9 12/46/9
f 5/47/10 6/48/10 24/49/10 20/50/10
f 12/47/9 19/48/9 23/49/9 13/50/9
f 6/51/10 7/52/10 16/53/10 24/54/10
f 15/51/9 14/52/9 13/53/9 23/54/9
