# Blender 3.6.1
# www.blender.org
mtllib barley_sack.mtl
o Open_grain_sack
v 0.500000 0.000302 0.130672
v 0.716960 0.000302 0.220540
v 0.993603 0.000302 0.500000
v 0.716960 0.000302 0.779460
v 0.500000 0.000302 0.869328
v 0.283040 0.000302 0.779460
v 0.006397 0.000302 0.500000
v 0.283040 0.000302 0.220540
v 0.500000 0.249839 0.062789
v 0.500000 0.499375 0.009266
v 0.847002 0.499375 0.152998
v 0.809155 0.249839 0.190845
v 0.990734 0.499375 0.500000
v 0.968342 0.249839 0.500000
v 0.847002 0.499375 0.847002
v 0.809155 0.249839 0.809155
v 0.500000 0.499375 0.990734
v 0.500000 0.249839 0.937211
v 0.152998 0.499375 0.847002
v 0.190845 0.249839 0.809155
v 0.009266 0.499375 0.500000
v 0.031658 0.249839 0.500000
v 0.152998 0.499375 0.152998
v 0.190845 0.249839 0.190845
v 0.500000 0.624143 -0.000619
v 0.853991 0.624143 0.146009
v 1.000618 0.624143 0.500000
v 0.853991 0.624143 0.853991
v 0.500000 0.624143 1.000618
v 0.146009 0.624143 0.853991
v -0.000619 0.624143 0.500000
v 0.146009 0.624143 0.146009
v 0.163055 0.717661 0.163055
v 0.500000 0.717661 0.023488
v 0.023488 0.717661 0.500000
v 0.163055 0.717661 0.836945
v 0.500000 0.717661 0.976512
v 0.836945 0.717661 0.836945
v 0.976512 0.717661 0.500000
v 0.836945 0.717661 0.163055
v 0.212906 0.686411 0.212906
v 0.500000 0.686411 0.093987
v 0.093987 0.686411 0.500000
v 0.212906 0.686411 0.787094
v 0.500000 0.686411 0.906013
v 0.787094 0.686411 0.787094
v 0.906013 0.686411 0.500000
v 0.787094 0.686411 0.212906
v 0.295674 0.748911 0.295674
v 0.500000 0.748911 0.211040
v 0.211040 0.748911 0.500000
v 0.295674 0.748911 0.704326
v 0.500000 0.748911 0.788960
v 0.704326 0.748911 0.704326
v 0.788960 0.748911 0.500000
v 0.704326 0.748911 0.295674
v 0.500000 0.639331 -0.010268
v 0.860814 0.639331 0.139186
v 0.139186 0.639331 0.139186
v 1.010268 0.639331 0.500000
v 0.860814 0.639331 0.860814
v 0.500000 0.639331 1.010268
v 0.139186 0.639331 0.860814
v -0.010268 0.639331 0.500000
v 0.500000 0.702599 -0.015819
v 0.135261 0.702599 0.135261
v 0.864739 0.702599 0.135261
v 1.015819 0.702599 0.500000
v 0.864739 0.702599 0.864739
v 0.500000 0.702599 1.015819
v 0.135261 0.702599 0.864739
v -0.015819 0.702599 0.500000
vn 0.1466 0.9237 -0.3540
vn -0.0000 -1.0000 -0.0000
vn -0.3711 -0.2437 -0.8960
vn -0.3754 -0.1944 -0.9063
vn -0.7956 -0.1417 -0.5891
vn -0.8990 -0.1400 -0.4150
vn -0.7956 -0.1417 0.5891
vn -0.8990 -0.1400 0.4150
vn -0.3540 0.9237 0.1466
vn -0.3711 -0.2437 0.8960
vn -0.3754 -0.1944 0.9063
vn -0.1466 0.9237 0.3540
vn 0.3711 -0.2437 0.8960
vn 0.3754 -0.1944 0.9063
vn 0.1466 0.9237 0.3540
vn 0.7956 -0.1417 0.5891
vn 0.8990 -0.1400 0.4150
vn 0.3540 0.9237 0.1466
vn 0.7956 -0.1417 -0.5891
vn 0.8990 -0.1400 -0.4150
vn 0.3540 0.9237 -0.1466
vn 0.3711 -0.2437 -0.8960
vn 0.3754 -0.1944 -0.9063
vn -0.3540 0.9237 -0.1466
vn 0.3817 -0.0730 -0.9214
vn 0.9214 -0.0730 -0.3817
vn 0.9214 -0.0730 0.3817
vn 0.3817 -0.0730 0.9214
vn -0.3817 -0.0730 0.9214
vn -0.9214 -0.0730 0.3817
vn -0.9214 -0.0730 -0.3817
vn -0.3817 -0.0730 -0.9214
vn 0.1655 0.9016 0.3996
vn 0.3996 0.9016 0.1655
vn 0.3996 0.9016 -0.1655
vn 0.1655 0.9016 -0.3996
vn -0.1655 0.9016 -0.3996
vn -0.3996 0.9016 -0.1655
vn -0.3996 0.9016 0.1655
vn -0.1655 0.9016 0.3996
vn -0.1915 0.8658 -0.4623
vn -0.4623 0.8658 -0.1915
vn -0.4623 0.8658 0.1915
vn -0.1915 0.8658 0.4623
vn 0.1915 0.8658 0.4623
vn 0.4623 0.8658 0.1915
vn 0.4623 0.8658 -0.1915
vn 0.1915 0.8658 -0.4623
vn -0.0000 1.0000 -0.0000
vn 0.3300 -0.5062 -0.7968
vn -0.3300 -0.5062 -0.7968
vn 0.7968 -0.5062 0.3300
vn 0.3300 -0.5062 0.7968
vn -0.3300 -0.5062 0.7968
vn -0.7968 -0.5062 0.3300
vn -0.7968 -0.5062 -0.3300
vn 0.7968 -0.5062 -0.3300
vn 0.3814 -0.0808 -0.9209
vn -0.3814 -0.0808 -0.9209
vn 0.9209 -0.0808 0.3814
vn 0.3814 -0.0808 0.9209
vn -0.3814 -0.0808 0.9209
vn -0.9209 -0.0808 0.3814
vn -0.9209 -0.0808 -0.3814
vn 0.9209 -0.0808 -0.3814
vn -0.1466 0.9237 -0.3540
vt 0.534340 0.927062
vt 0.116139 0.930619
vt 0.098512 0.886318
vt 0.551211 0.882467
vt 0.750000 0.490000
vt 0.919706 0.419706
vt 0.990000 0.250000
vt 0.919706 0.080294
vt 0.750000 0.010000
vt 0.580294 0.080294
vt 0.510000 0.250000
vt 0.580294 0.419706
vt 0.510225 0.002233
vt 0.560747 0.262145
vt 0.219562 0.261683
vt 0.270787 0.001909
vt 0.482829 0.267171
vt 0.482829 0.607829
vt 0.142171 0.607829
vt 0.142171 0.267171
vt 0.350176 0.000000
vt 0.364825 0.258240
vt 0.020104 0.224679
vt 0.000000 0.000477
vt 0.723540 0.000000
vt 0.774765 0.259774
vt 0.433580 0.260236
vt 0.484102 0.000324
vt 1.000000 0.000000
vt 0.981030 0.229646
vt 0.628401 0.266475
vt 0.641543 0.002025
vt 0.489594 0.692703
vt 0.489594 0.869797
vt 0.135406 0.869797
vt 0.135406 0.692703
vt 0.655809 0.113571
vt 0.331084 0.118243
vt 0.301825 0.044512
vt 0.682934 0.039028
vt 0.158968 0.358018
vt 0.157389 0.640858
vt 0.000100 0.705815
vt 0.000100 0.294458
vt 0.358687 0.158645
vt 0.290797 0.000668
vt 0.640212 0.159927
vt 0.707061 0.000100
vt 0.839091 0.360299
vt 0.996702 0.295815
vt 0.837310 0.643337
vt 0.995951 0.706925
vt 0.638199 0.842431
vt 0.705800 0.999900
vt 0.357685 0.840092
vt 0.291080 0.999660
vt 0.625000 0.472470
vt 0.625000 0.495010
vt 0.000000 0.495010
vt 0.000000 0.472470
vt 0.472679 0.924300
vt 0.475552 1.000000
vt 0.000000 1.000000
vt 0.002245 0.923775
s 0
usemtl Sack
f 65/1/1 34/2/1 40/3/1 67/4/1
f 1/5/2 2/6/2 3/7/2 4/8/2 5/9/2 6/10/2 7/11/2 8/12/2
f 8/13/3 24/14/3 9/15/3 1/16/3
f 24/17/4 23/18/4 10/19/4 9/20/4
f 7/21/5 22/22/5 24/23/5 8/24/5
f 22/17/6 21/18/6 23/19/6 24/20/6
f 6/21/7 20/22/7 22/23/7 7/24/7
f 20/17/8 19/18/8 21/19/8 22/20/8
f 36/1/9 35/2/9 72/3/9 71/4/9
f 5/13/10 18/14/10 20/15/10 6/16/10
f 18/17/11 17/18/11 19/19/11 20/20/11
f 37/1/12 36/2/12 71/3/12 70/4/12
f 4/25/13 16/26/13 18/27/13 5/28/13
f 16/17/14 15/18/14 17/19/14 18/20/14
f 38/1/15 37/2/15 70/3/15 69/4/15
f 3/29/16 14/30/16 16/31/16 4/32/16
f 14/17/17 13/18/17 15/19/17 16/20/17
f 39/1/18 38/2/18 69/3/18 68/4/18
f 2/29/19 12/30/19 14/31/19 3/32/19
f 12/17/20 11/18/20 13/19/20 14/20/20
f 40/1/21 39/2/21 68/3/21 67/4/21
f 1/13/22 9/14/22 12/15/22 2/16/22
f 9/17/23 10/18/23 11/19/23 12/20/23
f 35/1/24 33/2/24 66/3/24 72/4/24
f 10/33/25 25/34/25 26/35/25 11/36/25
f 11/33/26 26/34/26 27/35/26 13/36/26
f 13/33/27 27/34/27 28/35/27 15/36/27
f 15/33/28 28/34/28 29/35/28 17/36/28
f 17/33/29 29/34/29 30/35/29 19/36/29
f 19/33/30 30/34/30 31/35/30 21/36/30
f 21/33/31 31/34/31 32/35/31 23/36/31
f 23/33/32 32/34/32 25/35/32 10/36/32
f 41/37/33 42/38/33 34/39/33 33/40/33
f 43/37/34 41/38/34 33/39/34 35/40/34
f 44/37/35 43/38/35 35/39/35 36/40/35
f 45/37/36 44/38/36 36/39/36 37/40/36
f 46/37/37 45/38/37 37/39/37 38/40/37
f 47/37/38 46/38/38 38/39/38 39/40/38
f 48/37/39 47/38/39 39/39/39 40/40/39
f 42/37/40 48/38/40 40/39/40 34/40/40
f 25/57/50 57/58/50 58/59/50 26/60/50
f 32/57/51 59/58/51 57/59/51 25/60/51
f 27/57/52 60/58/52 61/59/52 28/60/52
f 28/57/53 61/58/53 62/59/53 29/60/53
f 29/57/54 62/58/54 63/59/54 30/60/54
f 30/57/55 63/58/55 64/59/55 31/60/55
f 31/57/56 64/58/56 59/59/56 32/60/56
f 26/57/57 58/58/57 60/59/57 27/60/57
f 57/61/58 65/62/58 67/63/58 58/64/58
f 59/61/59 66/62/59 65/63/59 57/64/59
f 60/61/60 68/62/60 69/63/60 61/64/60
f 61/61/61 69/62/61 70/63/61 62/64/61
f 62/61/62 70/62/62 71/63/62 63/64/62
f 63/61/63 71/62/63 72/63/63 64/64/63
f 64/61/64 72/62/64 66/63/64 59/64/64
f 58/61/65 67/62/65 68/63/65 60/64/65
f 33/1/66 34/2/66 65/3/66 66/4/66
usemtl Wheat
f 49/41/41 50/42/41 42/43/41 41/44/41
f 51/45/42 49/41/42 41/44/42 43/46/42
f 52/47/43 51/45/43 43/46/43 44/48/43
f 53/49/44 52/47/44 44/48/44 45/50/44
f 54/51/45 53/49/45 45/50/45 46/52/45
f 55/53/46 54/51/46 46/52/46 47/54/46
f 56/55/47 55/53/47 47/54/47 48/56/47
f 50/42/48 56/55/48 48/56/48 42/43/48
f 54/51/49 55/53/49 56/55/49 53/49/49
f 53/49/49 56/55/49 50/42/49 52/47/49
f 49/41/49 51/45/49 52/47/49 50/42/49
