# Blender v3.0.0 OBJ File: 'trees.blend'
# www.blender.org
mtllib barrel_planter_small.mtl
o Barrel_Planter_Small_Cylinder.011
v 0.492737 0.410417 0.707001
v 0.640443 0.410417 0.645819
v 0.701625 0.410417 0.498112
v 0.345031 0.410417 0.645819
v 0.345031 0.410417 0.350406
v 0.283848 0.410417 0.498112
v 0.640443 0.410417 0.350406
v 0.492737 0.410417 0.289224
v 0.343479 -0.021317 0.348256
v 0.315224 0.443400 0.320002
v 0.493335 0.443400 0.246226
v 0.493335 -0.021317 0.286185
v 0.281407 -0.021317 0.498112
v 0.241449 0.443400 0.498112
v 0.343479 -0.021317 0.647968
v 0.315224 0.443400 0.676222
v 0.493335 -0.021317 0.710041
v 0.493335 0.443400 0.749998
v 0.643190 -0.021317 0.647968
v 0.671445 0.443400 0.676222
v 0.705262 -0.021317 0.498112
v 0.745220 0.443400 0.498112
v 0.643190 -0.021317 0.348256
v 0.671445 0.443400 0.320002
v 0.330316 0.443400 0.335094
v 0.493335 0.443400 0.267569
v 0.262791 0.443400 0.498112
v 0.330316 0.443400 0.661131
v 0.493335 0.443400 0.728655
v 0.656353 0.443400 0.661131
v 0.723878 0.443400 0.498112
v 0.656353 0.443400 0.335094
v 0.329719 0.443400 0.335094
v 0.492737 0.443400 0.267569
v 0.262194 0.443400 0.498112
v 0.329719 0.443400 0.661131
v 0.492737 0.443400 0.728655
v 0.655756 0.443400 0.661131
v 0.723280 0.443400 0.498112
v 0.655756 0.443400 0.335094
vt 0.707065 0.000100
vt 0.999900 0.292935
vt 0.999900 0.707065
vt 0.292934 0.000100
vt 0.000100 0.707065
vt 0.000100 0.292935
vt 0.707065 0.999900
vt 0.292935 0.999900
vt 0.688012 0.000000
vt 0.723461 0.716954
vt 0.276539 0.716954
vt 0.311988 0.000000
vt 0.688012 0.000000
vt 0.723461 0.716954
vt 0.276539 0.716954
vt 0.311988 0.000000
vt 0.688012 0.000000
vt 0.723461 0.716954
vt 0.276539 0.716954
vt 0.311988 0.000000
vt 0.688012 0.000000
vt 0.723461 0.716954
vt 0.276539 0.716954
vt 0.311988 0.000000
vt 0.688012 0.000000
vt 0.723461 0.716954
vt 0.276539 0.716954
vt 0.311988 0.000000
vt 0.688012 0.000000
vt 0.723461 0.716954
vt 0.276539 0.716954
vt 0.311988 0.000000
vt 0.688012 0.000000
vt 0.723461 0.716954
vt 0.276539 0.716954
vt 0.311988 0.000000
vt 0.688012 0.000000
vt 0.723461 0.716954
vt 0.276539 0.716954
vt 0.311988 0.000000
vt 0.030674 0.000000
vt 0.969326 0.000000
vt 1.000000 0.089679
vt 0.000000 0.089679
vt 0.030674 0.000000
vt 0.969326 0.000000
vt 1.000000 0.089679
vt 0.000000 0.089679
vt 0.030674 0.000000
vt 0.969326 0.000000
vt 1.000000 0.089679
vt 0.000000 0.089679
vt 0.030674 0.000000
vt 0.969326 0.000000
vt 1.000000 0.089679
vt 0.000000 0.089679
vt 0.030674 0.000000
vt 0.969326 0.000000
vt 1.000000 0.089679
vt 0.000000 0.089679
vt 0.030674 0.000000
vt 0.969326 0.000000
vt 1.000000 0.089679
vt 0.000000 0.089679
vt 0.030674 0.000000
vt 0.969326 0.000000
vt 1.000000 0.089679
vt 0.000000 0.089679
vt 0.030674 0.000000
vt 0.969326 0.000000
vt 1.000000 0.089679
vt 0.000000 0.089679
vt 0.670947 0.692486
vt 0.284976 0.693996
vt 0.284976 0.693996
vt 0.670947 0.692486
vt 0.284976 0.693996
vt 0.284976 0.693996
vt 0.261364 0.694088
vt 0.261364 0.694088
vt 0.260188 0.694093
vt 0.260188 0.694093
vt 0.259924 0.694094
vt 0.259924 0.694094
vt 0.260188 0.694093
vt 0.260188 0.694093
vt 0.261364 0.694088
vt 0.261364 0.694088
vt 0.030213 0.000000
vt 0.969787 0.000000
vt 1.000000 0.091541
vt 0.000000 0.091541
vt 0.030213 0.000000
vt 0.969787 0.000000
vt 1.000000 0.091541
vt 0.000000 0.091541
vt 0.030213 0.000000
vt 0.969787 0.000000
vt 1.000000 0.091541
vt 0.000000 0.091541
vt 0.030213 0.000000
vt 0.969787 0.000000
vt 1.000000 0.091541
vt 0.000000 0.091541
vt 0.030213 0.000000
vt 0.969787 0.000000
vt 1.000000 0.091541
vt 0.000000 0.091541
vt 0.030213 0.000000
vt 0.969787 0.000000
vt 1.000000 0.091541
vt 0.000000 0.091541
vt 0.030213 0.000000
vt 0.969787 0.000000
vt 1.000000 0.091541
vt 0.000000 0.091541
vt 0.030213 0.000000
vt 0.969787 0.000000
vt 1.000000 0.091541
vt 0.000000 0.091541
vt 0.339379 0.882596
vt 0.114371 0.657588
vt 0.114371 0.339379
vt 0.339379 0.114371
vt 0.882596 0.339379
vt 0.882596 0.657588
vt 0.657588 0.882596
vt 0.657588 0.114371
vn 0.0000 1.0000 0.0000
vn -0.3815 -0.0792 -0.9210
vn -0.9210 -0.0792 -0.3815
vn -0.9210 -0.0792 0.3815
vn -0.3815 -0.0792 0.9210
vn 0.3815 -0.0792 0.9210
vn 0.9210 -0.0792 0.3815
vn 0.9210 -0.0792 -0.3815
vn 0.3815 -0.0792 -0.9210
vn 0.0000 -1.0000 0.0000
vn 0.0000 -1.0000 -0.0001
vn 0.0000 -1.0000 -0.0002
vn 0.3272 0.5186 0.7899
vn 0.7899 0.5186 0.3272
vn 0.7899 0.5186 -0.3272
vn 0.3272 0.5186 -0.7899
vn -0.3272 0.5186 -0.7899
vn -0.7899 0.5186 -0.3272
vn -0.7899 0.5186 0.3272
vn -0.3272 0.5186 0.7899
usemtl Barrel_Fill.001
s 1
f 1/1/1 2/2/1 3/3/1 4/4/1
f 5/5/1 6/6/1 7/7/1 8/8/1
f 4/4/1 3/3/1 7/7/1 6/6/1
usemtl Barrel_Side.001
f 9/9/2 10/10/2 11/11/2 12/12/2
f 13/13/3 14/14/3 10/15/3 9/16/3
f 15/17/4 16/18/4 14/19/4 13/20/4
f 17/21/5 18/22/5 16/23/5 15/24/5
f 19/25/6 20/26/6 18/27/6 17/28/6
f 21/29/7 22/30/7 20/31/7 19/32/7
f 23/33/8 24/34/8 22/35/8 21/36/8
f 12/37/9 11/38/9 24/39/9 23/40/9
f 25/41/1 26/42/1 11/43/1 10/44/1
f 27/45/1 25/46/1 10/47/1 14/48/1
f 28/49/1 27/50/1 14/51/1 16/52/1
f 29/53/1 28/54/1 16/55/1 18/56/1
f 30/57/1 29/58/1 18/59/1 20/60/1
f 31/61/1 30/62/1 20/63/1 22/64/1
f 32/65/1 31/66/1 22/67/1 24/68/1
f 26/69/1 32/70/1 24/71/1 11/72/1
f 33/73/10 34/74/10 26/75/10 25/76/10
f 35/77/10 33/73/10 25/76/10 27/78/10
f 36/79/10 35/77/10 27/78/10 28/80/11
f 37/81/12 36/79/10 28/80/11 29/82/12
f 38/83/1 37/81/1 29/82/1 30/84/1
f 39/85/1 38/83/1 30/84/1 31/86/1
f 40/87/1 39/85/1 31/86/1 32/88/1
f 34/74/1 40/87/1 32/88/1 26/75/1
f 5/89/13 8/90/13 34/91/13 33/92/13
f 6/93/14 5/94/14 33/95/14 35/96/14
f 4/97/15 6/98/15 35/99/15 36/100/15
f 1/101/16 4/102/16 36/103/16 37/104/16
f 2/105/17 1/106/17 37/107/17 38/108/17
f 3/109/18 2/110/18 38/111/18 39/112/18
f 7/113/19 3/114/19 39/115/19 40/116/19
f 8/117/20 7/118/20 40/119/20 34/120/20
usemtl Barrel_Top.001
f 19/121/10 17/122/10 15/123/10 13/124/10
f 12/125/10 23/126/10 21/127/10 9/128/10
f 21/127/10 19/121/10 13/124/10 9/128/10
