# Blender v3.0.0 OBJ File: 'Objects.blend'
# www.blender.org
mtllib crate_2_small_angled.mtl
o Crate_2_Small_Angled_Cube.042
v 0.501875 0.044239 0.974706
v 0.501875 0.716980 0.974706
v 0.026175 0.044239 0.499007
v 0.026175 0.716980 0.499007
v 0.977574 0.044239 0.499006
v 0.977574 0.716980 0.499006
v 0.501874 0.044239 0.023307
v 0.501874 0.716980 0.023307
v 0.448602 0.119578 0.921433
v 0.448602 0.641640 0.921433
v 0.079448 0.641640 0.552279
v 0.079448 0.119578 0.552279
v 0.079448 0.119578 0.445734
v 0.079448 0.641640 0.445734
v 0.448602 0.641640 0.076580
v 0.448602 0.119578 0.076580
v 0.555147 0.119578 0.076580
v 0.555147 0.641640 0.076580
v 0.924301 0.641640 0.445734
v 0.924301 0.119578 0.445734
v 0.924301 0.119578 0.552279
v 0.924301 0.641640 0.552279
v 0.555147 0.641640 0.921433
v 0.555147 0.119578 0.921433
v 0.476393 0.119578 0.893642
v 0.476393 0.641640 0.893642
v 0.107239 0.119578 0.524488
v 0.107239 0.641640 0.524488
v 0.107239 0.641640 0.473525
v 0.107239 0.119578 0.473525
v 0.476393 0.119578 0.104371
v 0.476393 0.641640 0.104371
v 0.527356 0.641640 0.104371
v 0.527356 0.119578 0.104371
v 0.896510 0.119578 0.473525
v 0.896510 0.641640 0.473525
v 0.896510 0.641640 0.524488
v 0.896510 0.119578 0.524488
v 0.527356 0.119578 0.893642
v 0.527356 0.641640 0.893642
v 0.501875 0.007838 1.027562
v 0.501875 0.072270 1.027562
v -0.026681 0.007838 0.499007
v -0.026681 0.072270 0.499007
v 1.030430 0.007838 0.499006
v 1.030430 0.072270 0.499006
v 0.501874 0.007838 -0.029549
v 0.501874 0.072270 -0.029549
v 0.501875 0.689922 1.027562
v 0.501875 0.754354 1.027562
v -0.026681 0.689922 0.499007
v -0.026681 0.754354 0.499007
v 1.030430 0.689922 0.499006
v 1.030430 0.754354 0.499006
v 0.501874 0.689922 -0.029549
v 0.501874 0.754354 -0.029549
v 0.948909 0.140400 0.476559
v 0.581988 0.682953 0.109638
v 0.537922 0.582827 0.065572
v 0.896322 0.075972 0.423972
v 0.863420 0.075972 0.456874
v 0.505020 0.582827 0.098474
v 0.917641 0.136944 0.511095
v 0.546642 0.685264 0.140096
v 0.948043 0.075972 0.475693
v 0.915958 0.074244 0.509412
v 0.537922 0.655972 0.065572
v 0.503797 0.657127 0.097251
v 0.045779 0.140400 0.515993
v 0.412700 0.682953 0.882913
v 0.456766 0.582827 0.926980
v 0.098366 0.075972 0.568579
v 0.131268 0.075972 0.535677
v 0.489668 0.582827 0.894078
v 0.077047 0.136944 0.481457
v 0.448046 0.685264 0.852455
v 0.046645 0.075972 0.516859
v 0.078730 0.074244 0.483139
v 0.456766 0.655972 0.926980
v 0.490891 0.657127 0.895300
v 0.472726 0.140400 0.056180
v 0.105805 0.682953 0.423100
v 0.061738 0.582827 0.467167
v 0.420139 0.075972 0.108767
v 0.453041 0.075972 0.141669
v 0.094640 0.582827 0.500069
v 0.507262 0.136944 0.087448
v 0.136263 0.685264 0.458447
v 0.471860 0.075972 0.057046
v 0.505579 0.074244 0.089131
v 0.061738 0.655972 0.467167
v 0.093418 0.657127 0.501291
v 0.533094 0.173449 0.934835
v 0.900015 0.716002 0.567914
v 0.944082 0.615875 0.523847
v 0.585681 0.109021 0.882248
v 0.552779 0.109021 0.849346
v 0.911180 0.615875 0.490945
v 0.498558 0.169992 0.903567
v 0.869557 0.718312 0.532568
v 0.533960 0.109021 0.933969
v 0.500241 0.107292 0.901884
v 0.944082 0.689020 0.523847
v 0.912402 0.690175 0.489723
v 0.943816 0.153427 0.467322
v 0.581126 0.689726 0.104632
v 0.537567 0.590754 0.061073
v 0.891836 0.089742 0.415342
v 0.859313 0.089742 0.447864
v 0.505044 0.590754 0.093595
v 0.912909 0.150010 0.501460
v 0.546187 0.692010 0.134738
v 0.942961 0.089742 0.466466
v 0.911245 0.088033 0.499797
v 0.537567 0.663055 0.061073
v 0.503836 0.664197 0.092387
v 0.523931 0.153427 0.932909
v 0.886622 0.689726 0.570218
v 0.930181 0.590754 0.526659
v 0.575912 0.089742 0.880928
v 0.543389 0.089742 0.848405
v 0.897658 0.590754 0.494136
v 0.489793 0.150010 0.902001
v 0.856515 0.692010 0.535279
v 0.524787 0.089742 0.932053
v 0.491457 0.088033 0.900338
v 0.930181 0.663055 0.526659
v 0.898866 0.664197 0.492928
v 0.057939 0.157031 0.527690
v 0.420630 0.693330 0.890381
v 0.464189 0.594358 0.933939
v 0.109920 0.093346 0.579670
v 0.142443 0.093346 0.547148
v 0.496712 0.594358 0.901417
v 0.088847 0.153615 0.493552
v 0.455569 0.695614 0.860274
v 0.058795 0.093346 0.528546
v 0.090510 0.091638 0.495215
v 0.464189 0.666659 0.933939
v 0.497920 0.667802 0.902625
v 0.473405 0.153427 0.055933
v 0.110714 0.689726 0.418624
v 0.067156 0.590754 0.462183
v 0.421425 0.089742 0.107914
v 0.453947 0.089742 0.140437
v 0.099678 0.590754 0.494705
v 0.507543 0.150010 0.086841
v 0.140821 0.692010 0.453563
v 0.472549 0.089742 0.056789
v 0.505880 0.088033 0.088504
v 0.067156 0.663055 0.462183
v 0.098470 0.664197 0.495914
vt 0.888484 0.112461
vt 0.887539 0.888484
vt 0.887539 0.888484
vt 0.888484 0.112461
vt 0.888214 0.112191
vt 0.887809 0.888214
vt 0.887809 0.888214
vt 0.888214 0.112191
vt 0.112461 0.111516
vt 0.112461 0.111516
vt 0.887360 0.111338
vt 0.888662 0.887361
vt 0.888662 0.887361
vt 0.887360 0.111338
vt 0.000000 0.000000
vt 1.000000 0.000000
vt 1.000000 1.000000
vt 0.000000 1.000000
vt 0.000000 0.000000
vt 1.000000 0.000000
vt 1.000000 1.000000
vt 0.000000 1.000000
vt 0.934112 0.207714
vt 0.189904 0.207326
vt 0.273290 0.124027
vt 0.850813 0.124328
vt 0.934112 0.207714
vt 0.189904 0.207326
vt 0.273290 0.124027
vt 0.850813 0.124328
vt 0.934112 0.207714
vt 0.189904 0.207326
vt 0.273290 0.124027
vt 0.850813 0.124328
vt 0.934112 0.207714
vt 0.189904 0.207326
vt 0.273290 0.124027
vt 0.850813 0.124328
vt 0.273290 0.124027
vt 0.850813 0.124328
vt 0.189904 0.207326
vt 0.273290 0.124027
vt 0.850813 0.124328
vt 0.934112 0.207714
vt 0.189904 0.207326
vt 0.273290 0.124027
vt 0.850813 0.124328
vt 0.934112 0.207714
vt 0.273290 0.124027
vt 0.850813 0.124328
vt 0.273290 0.124027
vt 0.850813 0.124328
vt 0.189904 0.207326
vt 0.273290 0.124027
vt 0.850813 0.124328
vt 0.934112 0.207714
vt 0.189904 0.207326
vt 0.273290 0.124027
vt 0.850813 0.124328
vt 0.934112 0.207714
vt 0.273290 0.124027
vt 0.850813 0.124328
vt 0.273290 0.124027
vt 0.850813 0.124328
vt 0.273290 0.124027
vt 0.850813 0.124328
vt 0.273290 0.124027
vt 0.850813 0.124328
vt 0.273290 0.124027
vt 0.850813 0.124328
vt 0.114636 0.883277
vt 0.114262 0.107254
vt 0.890285 0.106880
vt 0.890660 0.882903
vt 0.112639 0.888662
vt 0.111338 0.112639
vt 0.111786 0.887809
vt 0.112191 0.111786
vt 0.111516 0.887539
vt 0.114636 0.883277
vt 0.114262 0.107254
vt 0.112639 0.888662
vt 0.111338 0.112639
vt 0.890660 0.882903
vt 0.111786 0.887809
vt 0.112191 0.111786
vt 0.111516 0.887539
vt 0.890285 0.106880
vt 0.000839 1.000838
vt 0.000000 0.865849
vt 0.999998 0.864172
vt 1.000838 0.999161
vt 0.000839 1.000838
vt 0.000000 0.865849
vt 0.999998 0.864172
vt 1.000838 0.999161
vt 0.000839 1.000838
vt 0.000000 0.865849
vt 0.999998 0.864172
vt 1.000838 0.999161
vt 0.000839 1.000838
vt 0.000000 0.865849
vt 0.999998 0.864172
vt 1.000838 0.999161
vt 0.000000 0.000000
vt 1.000000 0.000000
vt 1.000000 1.000000
vt 0.000000 1.000000
vt 0.058907 0.099213
vt 0.913189 0.099213
vt 0.913189 1.000000
vt 0.058907 1.000000
vt 0.000839 1.000838
vt 0.000000 0.865849
vt 0.999998 0.864172
vt 1.000838 0.999161
vt 0.000839 1.000838
vt 0.000000 0.865849
vt 0.999998 0.864172
vt 1.000838 0.999161
vt 0.000839 1.000838
vt 0.000000 0.865849
vt 0.999998 0.864172
vt 1.000838 0.999161
vt 0.000839 1.000838
vt 0.000000 0.865849
vt 0.999998 0.864172
vt 1.000838 0.999161
vt 0.000000 0.000000
vt 1.000000 0.000000
vt 1.000000 1.000000
vt 0.000000 1.000000
vt 0.058907 0.099213
vt 0.913189 0.099213
vt 0.913189 1.000000
vt 0.058907 1.000000
vt 0.887809 0.888214
vt 0.887809 0.888214
vt 0.887809 0.888214
vt 0.888214 0.112191
vt 0.888214 0.112191
vt 0.888214 0.112191
vt 0.887809 0.888214
vt 0.887809 0.888214
vt 0.888214 0.112191
vt 0.888214 0.112191
vt 0.887809 0.888214
vt 0.888214 0.112191
vt 0.887809 0.888214
vt 0.887809 0.888214
vt 0.887809 0.888214
vt 0.888214 0.112191
vt 0.888214 0.112191
vt 0.888214 0.112191
vt 0.887809 0.888214
vt 0.887809 0.888214
vt 0.888214 0.112191
vt 0.888214 0.112191
vt 0.887809 0.888214
vt 0.888214 0.112191
vt 0.887809 0.888214
vt 0.887809 0.888214
vt 0.887809 0.888214
vt 0.888214 0.112191
vt 0.888214 0.112191
vt 0.888214 0.112191
vt 0.887809 0.888214
vt 0.887809 0.888214
vt 0.888214 0.112191
vt 0.888214 0.112191
vt 0.887809 0.888214
vt 0.888214 0.112191
vt 0.887809 0.888214
vt 0.887809 0.888214
vt 0.887809 0.888214
vt 0.888214 0.112191
vt 0.888214 0.112191
vt 0.888214 0.112191
vt 0.887809 0.888214
vt 0.887809 0.888214
vt 0.888214 0.112191
vt 0.888214 0.112191
vt 0.887809 0.888214
vt 0.888214 0.112191
vt 0.994602 0.061320
vt 0.005396 0.061317
vt 0.000000 0.000000
vt 0.999950 0.000000
vt 0.994602 0.061320
vt 0.005396 0.061317
vt 0.000000 0.000000
vt 0.999950 0.000000
vt 0.887809 0.888214
vt 0.887809 0.888214
vt 0.887809 0.888214
vt 0.887809 0.888214
vt 0.888214 0.112191
vt 0.888214 0.112191
vt 0.888214 0.112191
vt 0.888214 0.112191
vt 0.887809 0.888214
vt 0.887809 0.888214
vt 0.888214 0.112191
vt 0.888214 0.112191
vt 0.216112 0.237311
vt 0.195884 0.187925
vt 0.895701 0.197180
vt 0.856769 0.236015
vt 0.231023 0.239037
vt 0.212972 0.194681
vt 0.895628 0.195347
vt 0.856900 0.234386
vt 0.994602 0.061320
vt 0.005396 0.061317
vt 0.000000 0.000000
vt 0.999950 0.000000
vt 0.994602 0.061320
vt 0.005396 0.061317
vt 0.000000 0.000000
vt 0.999950 0.000000
vt 0.887809 0.888214
vt 0.887809 0.888214
vt 0.887809 0.888214
vt 0.887809 0.888214
vt 0.888214 0.112191
vt 0.888214 0.112191
vt 0.888214 0.112191
vt 0.888214 0.112191
vt 0.887809 0.888214
vt 0.887809 0.888214
vt 0.888214 0.112191
vt 0.888214 0.112191
vt 0.216112 0.237311
vt 0.195884 0.187925
vt 0.895701 0.197180
vt 0.856769 0.236015
vt 0.231023 0.239037
vt 0.212972 0.194681
vt 0.895628 0.195347
vt 0.856900 0.234386
vt 0.994602 0.061320
vt 0.005396 0.061317
vt 0.000000 0.000000
vt 0.999950 0.000000
vt 0.994602 0.061320
vt 0.005396 0.061317
vt 0.000000 0.000000
vt 0.999950 0.000000
vt 0.887809 0.888214
vt 0.887809 0.888214
vt 0.887809 0.888214
vt 0.887809 0.888214
vt 0.888214 0.112191
vt 0.888214 0.112191
vt 0.888214 0.112191
vt 0.888214 0.112191
vt 0.887809 0.888214
vt 0.887809 0.888214
vt 0.888214 0.112191
vt 0.888214 0.112191
vt 0.216112 0.237311
vt 0.195884 0.187925
vt 0.895701 0.197180
vt 0.856769 0.236015
vt 0.231023 0.239037
vt 0.212972 0.194681
vt 0.895628 0.195347
vt 0.856900 0.234386
vt 0.994602 0.061320
vt 0.005396 0.061317
vt 0.000000 0.000000
vt 0.999950 0.000000
vt 0.994602 0.061320
vt 0.005396 0.061317
vt 0.000000 0.000000
vt 0.999950 0.000000
vt 0.887809 0.888214
vt 0.887809 0.888214
vt 0.887809 0.888214
vt 0.887809 0.888214
vt 0.888214 0.112191
vt 0.888214 0.112191
vt 0.888214 0.112191
vt 0.888214 0.112191
vt 0.887809 0.888214
vt 0.887809 0.888214
vt 0.888214 0.112191
vt 0.888214 0.112191
vt 0.216112 0.237311
vt 0.195884 0.187925
vt 0.895701 0.197180
vt 0.856769 0.236015
vt 0.231023 0.239037
vt 0.212972 0.194681
vt 0.895628 0.195347
vt 0.856900 0.234386
vn 0.7071 0.0000 -0.7071
vn -0.7071 0.0000 -0.7071
vn 0.0000 -1.0000 0.0000
vn -0.7071 0.0000 0.7071
vn 0.0000 1.0000 -0.0000
vn 0.7071 0.0000 0.7071
vn 0.0047 -0.9998 -0.0213
vn -0.6939 -0.0117 -0.7200
vn 0.7337 -0.0283 0.6789
vn -0.2488 0.9110 -0.3290
vn -0.0047 -0.9998 0.0213
vn 0.6939 -0.0117 0.7200
vn -0.7337 -0.0283 -0.6789
vn 0.2488 0.9110 0.3290
vn -0.0213 -0.9998 -0.0047
vn -0.7200 -0.0117 0.6939
vn 0.6789 -0.0283 -0.7337
vn -0.3290 0.9110 0.2488
vn 0.0213 -0.9998 0.0047
vn 0.7200 -0.0117 -0.6939
vn -0.6789 -0.0283 0.7337
vn 0.3290 0.9110 -0.2488
vn -0.5000 -0.7071 -0.5000
vn -0.4986 -0.6912 -0.5232
vn 0.5000 -0.7071 -0.5000
vn 0.5232 -0.6912 -0.4986
vn 0.5000 -0.7071 0.5000
vn 0.4986 -0.6912 0.5232
vn -0.5000 -0.7071 0.5000
vn -0.5232 -0.6912 0.4986
usemtl Oak
s off
f 23/1/1 24/2/1 39/3/1 40/4/1
f 19/5/2 20/6/2 35/7/2 36/8/2
f 22/9/3 23/1/3 40/4/3 37/10/3
f 15/11/4 16/12/4 31/13/4 32/14/4
f 3/15/3 7/16/3 5/17/3 1/18/3
f 8/19/5 4/20/5 2/21/5 6/22/5
f 1/23/4 2/24/4 10/25/4 9/26/4
f 2/27/4 4/28/4 11/29/4 10/30/4
f 4/31/4 3/32/4 12/33/4 11/34/4
f 3/35/4 1/36/4 9/37/4 12/38/4
f 3/35/2 4/28/2 14/39/2 13/40/2
f 4/31/2 8/41/2 15/42/2 14/43/2
f 8/44/2 7/45/2 16/46/2 15/47/2
f 7/48/2 3/32/2 13/49/2 16/50/2
f 7/48/1 8/41/1 18/51/1 17/52/1
f 8/44/1 6/53/1 19/54/1 18/55/1
f 6/56/1 5/57/1 20/58/1 19/59/1
f 5/60/1 7/45/1 17/61/1 20/62/1
f 5/60/6 6/53/6 22/63/6 21/64/6
f 6/56/6 2/24/6 23/65/6 22/66/6
f 2/27/6 1/36/6 24/67/6 23/68/6
f 1/23/6 5/57/6 21/69/6 24/70/6
f 25/71/4 26/72/4 28/73/4 27/74/4
f 30/75/2 29/76/2 32/14/2 31/13/2
f 34/77/1 33/78/1 36/8/1 35/7/1
f 38/79/6 37/10/6 40/4/6 39/3/6
f 9/80/2 10/81/2 26/72/2 25/71/2
f 13/82/1 14/83/1 29/76/1 30/75/1
f 12/84/5 9/80/5 25/71/5 27/74/5
f 17/85/6 18/86/6 33/78/6 34/77/6
f 16/12/5 13/82/5 30/75/5 31/13/5
f 21/87/4 22/9/4 37/10/4 38/79/4
f 10/81/3 11/88/3 28/73/3 26/72/3
f 20/6/5 17/85/5 34/77/5 35/7/5
f 14/83/3 15/11/3 32/14/3 29/76/3
f 24/2/5 21/87/5 38/79/5 39/3/5
f 11/88/6 12/84/6 27/74/6 28/73/6
f 18/86/3 19/5/3 36/8/3 33/78/3
f 41/89/4 42/90/4 44/91/4 43/92/4
f 43/93/2 44/94/2 48/95/2 47/96/2
f 47/97/1 48/98/1 46/99/1 45/100/1
f 45/101/6 46/102/6 42/103/6 41/104/6
f 43/105/3 47/106/3 45/107/3 41/108/3
f 48/109/5 44/110/5 42/111/5 46/112/5
f 49/113/4 50/114/4 52/115/4 51/116/4
f 51/117/2 52/118/2 56/119/2 55/120/2
f 55/121/1 56/122/1 54/123/1 53/124/1
f 53/125/6 54/126/6 50/127/6 49/128/6
f 51/129/3 55/130/3 53/131/3 49/132/3
f 56/133/5 52/134/5 50/135/5 54/136/5
f 61/137/4 66/138/4 63/139/4 64/140/4 68/141/4 62/142/4
f 65/143/7 66/138/7 61/137/7 60/144/7
f 67/145/8 59/146/8 62/142/8 68/141/8
f 57/147/9 63/139/9 66/138/9 65/143/9
f 58/148/10 67/145/10 68/141/10 64/140/10
f 73/149/1 78/150/1 75/151/1 76/152/1 80/153/1 74/154/1
f 77/155/11 78/150/11 73/149/11 72/156/11
f 79/157/12 71/158/12 74/154/12 80/153/12
f 69/159/13 75/151/13 78/150/13 77/155/13
f 70/160/14 79/157/14 80/153/14 76/152/14
f 85/161/6 90/162/6 87/163/6 88/164/6 92/165/6 86/166/6
f 89/167/15 90/162/15 85/161/15 84/168/15
f 91/169/16 83/170/16 86/166/16 92/165/16
f 81/171/17 87/163/17 90/162/17 89/167/17
f 82/172/18 91/169/18 92/165/18 88/164/18
f 97/173/2 102/174/2 99/175/2 100/176/2 104/177/2 98/178/2
f 101/179/19 102/174/19 97/173/19 96/180/19
f 103/181/20 95/182/20 98/178/20 104/177/20
f 93/183/21 99/175/21 102/174/21 101/179/21
f 94/184/22 103/181/22 104/177/22 100/176/22
f 107/185/23 108/186/23 109/187/23 110/188/23
f 106/189/24 105/190/24 111/191/24 112/192/24
f 113/193/7 114/194/7 109/195/7 108/196/7
f 115/197/8 107/198/8 110/199/8 116/200/8
f 105/201/9 111/202/9 114/194/9 113/193/9
f 106/203/10 115/197/10 116/200/10 112/204/10
f 106/205/4 115/206/4 113/207/4 105/208/4
f 107/209/1 115/210/1 113/211/1 108/212/1
f 119/213/25 120/214/25 121/215/25 122/216/25
f 118/217/26 117/218/26 123/219/26 124/220/26
f 125/221/19 126/222/19 121/223/19 120/224/19
f 127/225/20 119/226/20 122/227/20 128/228/20
f 117/229/21 123/230/21 126/222/21 125/221/21
f 118/231/22 127/225/22 128/228/22 124/232/22
f 118/233/2 127/234/2 125/235/2 117/236/2
f 119/237/6 127/238/6 125/239/6 120/240/6
f 131/241/27 132/242/27 133/243/27 134/244/27
f 130/245/28 129/246/28 135/247/28 136/248/28
f 137/249/11 138/250/11 133/251/11 132/252/11
f 139/253/12 131/254/12 134/255/12 140/256/12
f 129/257/13 135/258/13 138/250/13 137/249/13
f 130/259/14 139/253/14 140/256/14 136/260/14
f 130/261/1 139/262/1 137/263/1 129/264/1
f 131/265/4 139/266/4 137/267/4 132/268/4
f 143/269/29 144/270/29 145/271/29 146/272/29
f 142/273/30 141/274/30 147/275/30 148/276/30
f 149/277/15 150/278/15 145/279/15 144/280/15
f 151/281/16 143/282/16 146/283/16 152/284/16
f 141/285/17 147/286/17 150/278/17 149/277/17
f 142/287/18 151/281/18 152/284/18 148/288/18
f 142/289/6 151/290/6 149/291/6 141/292/6
f 143/293/2 151/294/2 149/295/2 144/296/2
