# Blender v3.0.0 OBJ File: 'Objects.blend'
# www.blender.org
mtllib crate_1.mtl
o Crate_1_Cube.005
v 0.050000 0.050000 0.950000
v 0.050000 0.950000 0.950000
v 0.050000 0.050000 0.050000
v 0.050000 0.950000 0.050000
v 0.950000 0.050000 0.950000
v 0.950000 0.950000 0.950000
v 0.950000 0.050000 0.050000
v 0.950000 0.950000 0.050000
v 0.050000 0.150789 0.849211
v 0.050000 0.849211 0.849211
v 0.050000 0.849211 0.150789
v 0.050000 0.150789 0.150789
v 0.150789 0.150789 0.050000
v 0.150789 0.849211 0.050000
v 0.849211 0.849211 0.050000
v 0.849211 0.150789 0.050000
v 0.950000 0.150789 0.150789
v 0.950000 0.849211 0.150789
v 0.950000 0.849211 0.849211
v 0.950000 0.150789 0.849211
v 0.849211 0.150789 0.950000
v 0.849211 0.849211 0.950000
v 0.150789 0.849211 0.950000
v 0.150789 0.150789 0.950000
v 0.102580 0.150789 0.849211
v 0.102580 0.849211 0.849211
v 0.102580 0.150789 0.150789
v 0.102580 0.849211 0.150789
v 0.150789 0.849211 0.102580
v 0.150789 0.150789 0.102580
v 0.849211 0.150789 0.102580
v 0.849211 0.849211 0.102580
v 0.897420 0.849211 0.150789
v 0.897420 0.150789 0.150789
v 0.897420 0.150789 0.849211
v 0.897420 0.849211 0.849211
v 0.849211 0.849211 0.897420
v 0.849211 0.150789 0.897420
v 0.150789 0.150789 0.897420
v 0.150789 0.849211 0.897420
v 0.000000 0.001303 1.000000
v 0.000000 0.087500 1.000000
v 0.000000 0.001303 0.000000
v 0.000000 0.087500 0.000000
v 1.000000 0.001303 1.000000
v 1.000000 0.087500 1.000000
v 1.000000 0.001303 0.000000
v 1.000000 0.087500 0.000000
v 0.000000 0.913803 1.000000
v 0.000000 1.000000 1.000000
v 0.000000 0.913803 0.000000
v 0.000000 1.000000 0.000000
v 1.000000 0.913803 1.000000
v 1.000000 1.000000 1.000000
v 1.000000 0.913803 0.000000
v 1.000000 1.000000 0.000000
vt 0.888484 0.112461
vt 0.887539 0.888484
vt 0.887539 0.888484
vt 0.888484 0.112461
vt 0.888214 0.112191
vt 0.887809 0.888214
vt 0.887809 0.888214
vt 0.888214 0.112191
vt 0.112461 0.111516
vt 0.112461 0.111516
vt 0.887360 0.111338
vt 0.888662 0.887361
vt 0.888662 0.887361
vt 0.887360 0.111338
vt 0.000000 0.000000
vt 1.000000 0.000000
vt 1.000000 1.000000
vt 0.000000 1.000000
vt 0.000000 0.000000
vt 1.000000 0.000000
vt 1.000000 1.000000
vt 0.000000 1.000000
vt 0.934112 0.207714
vt 0.189904 0.207326
vt 0.273290 0.124027
vt 0.850813 0.124328
vt 0.934112 0.207714
vt 0.189904 0.207326
vt 0.273290 0.124027
vt 0.850813 0.124328
vt 0.934112 0.207714
vt 0.189904 0.207326
vt 0.273290 0.124027
vt 0.850813 0.124328
vt 0.934112 0.207714
vt 0.189904 0.207326
vt 0.273290 0.124027
vt 0.850813 0.124328
vt 0.273290 0.124027
vt 0.850813 0.124328
vt 0.189904 0.207326
vt 0.273290 0.124027
vt 0.850813 0.124328
vt 0.934112 0.207714
vt 0.189904 0.207326
vt 0.273290 0.124027
vt 0.850813 0.124328
vt 0.934112 0.207714
vt 0.273290 0.124027
vt 0.850813 0.124328
vt 0.273290 0.124027
vt 0.850813 0.124328
vt 0.189904 0.207326
vt 0.273290 0.124027
vt 0.850813 0.124328
vt 0.934112 0.207714
vt 0.189904 0.207326
vt 0.273290 0.124027
vt 0.850813 0.124328
vt 0.934112 0.207714
vt 0.273290 0.124027
vt 0.850813 0.124328
vt 0.273290 0.124027
vt 0.850813 0.124328
vt 0.273290 0.124027
vt 0.850813 0.124328
vt 0.273290 0.124027
vt 0.850813 0.124328
vt 0.273290 0.124027
vt 0.850813 0.124328
vt 0.114636 0.883277
vt 0.114262 0.107254
vt 0.890285 0.106880
vt 0.890660 0.882903
vt 0.112639 0.888662
vt 0.111338 0.112639
vt 0.111786 0.887809
vt 0.112191 0.111786
vt 0.111516 0.887539
vt 0.114636 0.883277
vt 0.114262 0.107254
vt 0.112639 0.888662
vt 0.111338 0.112639
vt 0.890660 0.882903
vt 0.111786 0.887809
vt 0.112191 0.111786
vt 0.111516 0.887539
vt 0.890285 0.106880
vt 0.000839 1.000838
vt 0.000000 0.865849
vt 0.999998 0.864172
vt 1.000838 0.999161
vt 0.000839 1.000838
vt 0.000000 0.865849
vt 0.999998 0.864172
vt 1.000838 0.999161
vt 0.000839 1.000838
vt 0.000000 0.865849
vt 0.999998 0.864172
vt 1.000838 0.999161
vt 0.000839 1.000838
vt 0.000000 0.865849
vt 0.999998 0.864172
vt 1.000838 0.999161
vt 0.000000 0.000000
vt 1.000000 0.000000
vt 1.000000 1.000000
vt 0.000000 1.000000
vt 0.058907 0.099213
vt 0.913189 0.099213
vt 0.913189 1.000000
vt 0.058907 1.000000
vt 0.000839 1.000838
vt 0.000000 0.865849
vt 0.999998 0.864172
vt 1.000838 0.999161
vt 0.000839 1.000838
vt 0.000000 0.865849
vt 0.999998 0.864172
vt 1.000838 0.999161
vt 0.000839 1.000838
vt 0.000000 0.865849
vt 0.999998 0.864172
vt 1.000838 0.999161
vt 0.000839 1.000838
vt 0.000000 0.865849
vt 0.999998 0.864172
vt 1.000838 0.999161
vt 0.000000 0.000000
vt 1.000000 0.000000
vt 1.000000 1.000000
vt 0.000000 1.000000
vt 0.058907 0.099213
vt 0.913189 0.099213
vt 0.913189 1.000000
vt 0.058907 1.000000
vn 1.0000 0.0000 0.0000
vn 0.0000 0.0000 -1.0000
vn 0.0000 -1.0000 0.0000
vn -1.0000 0.0000 0.0000
vn 0.0000 1.0000 0.0000
vn 0.0000 0.0000 1.0000
usemtl Oak
s off
f 23/1/1 24/2/1 39/3/1 40/4/1
f 19/5/2 20/6/2 35/7/2 36/8/2
f 22/9/3 23/1/3 40/4/3 37/10/3
f 15/11/4 16/12/4 31/13/4 32/14/4
f 3/15/3 7/16/3 5/17/3 1/18/3
f 8/19/5 4/20/5 2/21/5 6/22/5
f 1/23/4 2/24/4 10/25/4 9/26/4
f 2/27/4 4/28/4 11/29/4 10/30/4
f 4/31/4 3/32/4 12/33/4 11/34/4
f 3/35/4 1/36/4 9/37/4 12/38/4
f 3/35/2 4/28/2 14/39/2 13/40/2
f 4/31/2 8/41/2 15/42/2 14/43/2
f 8/44/2 7/45/2 16/46/2 15/47/2
f 7/48/2 3/32/2 13/49/2 16/50/2
f 7/48/1 8/41/1 18/51/1 17/52/1
f 8/44/1 6/53/1 19/54/1 18/55/1
f 6/56/1 5/57/1 20/58/1 19/59/1
f 5/60/1 7/45/1 17/61/1 20/62/1
f 5/60/6 6/53/6 22/63/6 21/64/6
f 6/56/6 2/24/6 23/65/6 22/66/6
f 2/27/6 1/36/6 24/67/6 23/68/6
f 1/23/6 5/57/6 21/69/6 24/70/6
f 25/71/4 26/72/4 28/73/4 27/74/4
f 30/75/2 29/76/2 32/14/2 31/13/2
f 34/77/1 33/78/1 36/8/1 35/7/1
f 38/79/6 37/10/6 40/4/6 39/3/6
f 9/80/2 10/81/2 26/72/2 25/71/2
f 13/82/1 14/83/1 29/76/1 30/75/1
f 12/84/5 9/80/5 25/71/5 27/74/5
f 17/85/6 18/86/6 33/78/6 34/77/6
f 16/12/5 13/82/5 30/75/5 31/13/5
f 21/87/4 22/9/4 37/10/4 38/79/4
f 10/81/3 11/88/3 28/73/3 26/72/3
f 20/6/5 17/85/5 34/77/5 35/7/5
f 14/83/3 15/11/3 32/14/3 29/76/3
f 24/2/5 21/87/5 38/79/5 39/3/5
f 11/88/6 12/84/6 27/74/6 28/73/6
f 18/86/3 19/5/3 36/8/3 33/78/3
f 41/89/4 42/90/4 44/91/4 43/92/4
f 43/93/2 44/94/2 48/95/2 47/96/2
f 47/97/1 48/98/1 46/99/1 45/100/1
f 45/101/6 46/102/6 42/103/6 41/104/6
f 43/105/3 47/106/3 45/107/3 41/108/3
f 48/109/5 44/110/5 42/111/5 46/112/5
f 49/113/4 50/114/4 52/115/4 51/116/4
f 51/117/2 52/118/2 56/119/2 55/120/2
f 55/121/1 56/122/1 54/123/1 53/124/1
f 53/125/6 54/126/6 50/127/6 49/128/6
f 51/129/3 55/130/3 53/131/3 49/132/3
f 56/133/5 52/134/5 50/135/5 54/136/5
