# Blender 3.6.1
# www.blender.org
mtllib large_barrel.mtl
o Small_Barrell.001
v 0.500000 0.004413 0.083201
v 0.500000 1.285303 0.128895
v 0.793662 0.004413 0.204840
v 0.761352 1.285303 0.237150
v 0.915301 0.004413 0.498502
v 0.869607 1.285303 0.498502
v 0.793662 0.004413 0.792163
v 0.761352 1.285303 0.759853
v 0.500000 0.004413 0.913802
v 0.500000 1.285303 0.868109
v 0.206338 0.004413 0.792163
v 0.238648 1.285303 0.759853
v 0.084699 0.004413 0.498502
v 0.130393 1.285303 0.498502
v 0.206338 0.004413 0.204840
v 0.238648 1.285303 0.237150
v 0.500000 0.422220 0.004899
v 0.500000 0.970488 0.004899
v 0.849030 0.970488 0.149472
v 0.849030 0.422220 0.149472
v 0.993603 0.970488 0.498502
v 0.993603 0.422220 0.498502
v 0.849030 0.970488 0.847532
v 0.849030 0.422220 0.847532
v 0.500000 0.970488 0.992105
v 0.500000 0.422220 0.992105
v 0.150970 0.970488 0.847532
v 0.150970 0.422220 0.847532
v 0.006397 0.970488 0.498502
v 0.006397 0.422220 0.498502
v 0.150970 0.970488 0.149472
v 0.150970 0.422220 0.149472
v 0.793662 1.388294 0.204840
v 0.500000 1.388294 0.083201
v 0.915301 1.388294 0.498502
v 0.793662 1.388294 0.792163
v 0.500000 1.388294 0.913802
v 0.206338 1.388294 0.792163
v 0.084699 1.388294 0.498502
v 0.206338 1.388294 0.204840
v 0.771377 1.388294 0.227125
v 0.500000 1.388294 0.114717
v 0.883784 1.388294 0.498502
v 0.771377 1.388294 0.769878
v 0.500000 1.388294 0.882286
v 0.228623 1.388294 0.769878
v 0.116216 1.388294 0.498502
v 0.228623 1.388294 0.227125
vn 0.3771 0.1706 -0.9103
vn 0.9103 0.1706 -0.3771
vn 0.9103 0.1706 0.3771
vn 0.3771 0.1706 0.9103
vn -0.3771 0.1706 0.9103
vn -0.9103 0.1706 0.3771
vn -0.0000 1.0000 -0.0000
vn -0.9103 0.1706 -0.3771
vn -0.3771 0.1706 -0.9103
vn -0.0000 -1.0000 -0.0000
vn -0.3771 -0.1706 -0.9103
vn -0.3827 -0.0000 -0.9239
vn -0.9103 -0.1706 -0.3771
vn -0.9239 -0.0000 -0.3827
vn -0.9103 -0.1706 0.3771
vn -0.9239 -0.0000 0.3827
vn -0.3771 -0.1706 0.9103
vn -0.3827 -0.0000 0.9239
vn 0.3771 -0.1706 0.9103
vn 0.3827 -0.0000 0.9239
vn 0.9103 -0.1706 0.3771
vn 0.9239 -0.0000 0.3827
vn 0.9103 -0.1706 -0.3771
vn 0.9239 -0.0000 -0.3827
vn 0.3771 -0.1706 -0.9103
vn 0.3827 -0.0000 -0.9239
vn -0.3796 0.1262 0.9165
vn -0.9165 0.1262 0.3796
vn -0.9165 0.1262 -0.3796
vn -0.3796 0.1262 -0.9165
vn 0.3796 0.1262 -0.9165
vn 0.9165 0.1262 -0.3796
vn 0.9165 0.1262 0.3796
vn 0.3796 0.1262 0.9165
vt 0.255558 0.307801
vt 0.293007 -0.001171
vt 0.703065 -0.002775
vt 0.742931 0.305895
vt 0.120301 0.342938
vt 0.342572 0.120453
vt 0.342938 0.879699
vt 0.120453 0.657428
vt 0.339379 0.882596
vt 0.114371 0.657588
vt 0.114371 0.339379
vt 0.339379 0.114371
vt 0.296934 1.002775
vt 0.257069 0.694105
vt 0.744442 0.692198
vt 0.706993 1.001171
vt 0.962143 0.091395
vt 0.040144 0.091395
vt 0.002286 0.000000
vt 1.000000 0.000000
vt 0.026564 -0.000000
vt 0.981682 -0.000000
vt 1.000000 0.096225
vt 0.008246 0.096225
vt 0.879699 0.657062
vt 0.657428 0.879547
vt 0.657062 0.120301
vt 0.879547 0.342572
vt 0.882596 0.339379
vt 0.882596 0.657588
vt 0.657588 0.882596
vt 0.657588 0.114371
s 0
usemtl Barrel_Top
f 2/5/7 16/6/7 6/7/7 4/8/7
f 7/9/10 9/10/10 11/11/10 13/12/10
f 10/25/7 8/26/7 14/27/7 12/28/7
f 8/26/7 6/7/7 16/6/7 14/27/7
f 1/29/10 3/30/10 5/31/10 15/32/10
f 5/31/10 7/9/10 13/12/10 15/32/10
usemtl Barrel_Side
f 18/1/1 34/2/1 33/3/1 19/4/1
f 19/1/2 33/2/2 35/3/2 21/4/2
f 21/1/3 35/2/3 36/3/3 23/4/3
f 23/1/4 36/2/4 37/3/4 25/4/4
f 25/1/5 37/2/5 38/3/5 27/4/5
f 27/1/6 38/2/6 39/3/6 29/4/6
f 29/1/8 39/2/8 40/3/8 31/4/8
f 31/1/9 40/2/9 34/3/9 18/4/9
f 15/13/11 32/14/11 17/15/11 1/16/11
f 32/14/12 31/1/12 18/4/12 17/15/12
f 13/13/13 30/14/13 32/15/13 15/16/13
f 30/14/14 29/1/14 31/4/14 32/15/14
f 11/13/15 28/14/15 30/15/15 13/16/15
f 28/14/16 27/1/16 29/4/16 30/15/16
f 9/13/17 26/14/17 28/15/17 11/16/17
f 26/14/18 25/1/18 27/4/18 28/15/18
f 7/13/19 24/14/19 26/15/19 9/16/19
f 24/14/20 23/1/20 25/4/20 26/15/20
f 5/13/21 22/14/21 24/15/21 7/16/21
f 22/14/22 21/1/22 23/4/22 24/15/22
f 3/13/23 20/14/23 22/15/23 5/16/23
f 20/14/24 19/1/24 21/4/24 22/15/24
f 1/13/25 17/14/25 20/15/25 3/16/25
f 17/14/26 18/1/26 19/4/26 20/15/26
f 42/17/7 41/18/7 33/19/7 34/20/7
f 41/17/7 43/18/7 35/19/7 33/20/7
f 43/17/7 44/18/7 36/19/7 35/20/7
f 44/17/7 45/18/7 37/19/7 36/20/7
f 45/17/7 46/18/7 38/19/7 37/20/7
f 46/17/7 47/18/7 39/19/7 38/20/7
f 47/17/7 48/18/7 40/19/7 39/20/7
f 48/17/7 42/18/7 34/19/7 40/20/7
f 2/21/27 4/22/27 41/23/27 42/24/27
f 4/21/28 6/22/28 43/23/28 41/24/28
f 6/21/29 8/22/29 44/23/29 43/24/29
f 8/21/30 10/22/30 45/23/30 44/24/30
f 10/21/31 12/22/31 46/23/31 45/24/31
f 12/21/32 14/22/32 47/23/32 46/24/32
f 14/21/33 16/22/33 48/23/33 47/24/33
f 16/21/34 2/22/34 42/23/34 48/24/34
