# Blender v3.0.0 OBJ File: 'Objects.blend'
# www.blender.org
mtllib market_tray_filled_dates.mtl
o Market_Tray_Filled_Cube.004
v 0.004587 0.443522 0.816955
v 0.119517 0.527297 0.749115
v 1.000000 -0.000000 0.812500
v 0.992389 0.142018 0.744661
v 0.004587 0.443522 0.150288
v 0.119517 0.527297 0.218128
v 1.000000 -0.000000 0.145833
v 0.992389 0.142018 0.213673
v 1.080489 0.169345 0.812500
v 0.085076 0.612867 0.816955
v 0.085076 0.612867 0.150288
v 1.080489 0.169345 0.145833
v 1.025020 0.195709 0.751084
v 0.140546 0.586503 0.755539
v 0.140546 0.586503 0.211704
v 1.025020 0.195709 0.207249
v -0.000000 -0.000000 0.801176
v 0.004587 0.443522 0.805631
v -0.000000 -0.000000 0.687500
v 0.004587 0.443522 0.691955
v 0.050619 0.000000 0.801176
v 0.055207 0.443522 0.805631
v 0.050619 0.000000 0.687500
v 0.055207 0.443522 0.691955
v -0.000000 -0.000000 0.275288
v 0.004587 0.443522 0.279743
v -0.000000 -0.000000 0.158969
v 0.004587 0.443522 0.163424
v 0.050619 0.000000 0.275288
v 0.055207 0.443522 0.279743
v 0.050619 0.000000 0.158969
v 0.055207 0.443522 0.163424
v 0.119517 0.527297 0.749115
v 0.992389 0.142018 0.744661
v 0.119517 0.527297 0.218128
v 0.992389 0.142018 0.213673
v 0.139056 0.518673 0.737130
v 0.972850 0.150643 0.716828
v 0.139056 0.518673 0.229914
v 0.972850 0.150643 0.214972
v 0.139056 0.518673 0.568058
v 0.139056 0.518673 0.398986
v 0.972850 0.150643 0.394730
v 0.972850 0.150643 0.563803
v 0.812122 0.317166 0.668742
v 0.354487 0.520996 0.695995
v 0.354487 0.520996 0.261568
v 0.804236 0.315480 0.269867
v 0.354487 0.520996 0.397567
v 0.821101 0.322358 0.421786
v 0.354487 0.520996 0.566639
v 0.821101 0.320882 0.560878
vt 0.067839 0.401173
vt 0.932160 0.401173
vt 0.932160 0.932160
vt 0.067839 0.932160
vt 0.000000 0.747804
vt 0.000609 1.000000
vt 1.000609 0.998782
vt 0.999999 0.746586
vt 0.666281 0.380610
vt 0.672482 1.000000
vt 0.448433 1.000000
vt 0.442232 0.380610
vt 0.999894 1.000000
vt 1.000000 0.749784
vt 0.000106 0.749784
vt 0.000000 1.000000
vt 0.004202 0.755069
vt 0.999917 0.755069
vt 0.995715 0.534195
vt 0.000000 0.534195
vt 0.000000 0.333333
vt 1.000000 0.333333
vt 1.000000 1.000000
vt 0.000000 1.000000
vt 0.061416 0.938584
vt 0.938584 0.938584
vt 1.000000 1.000000
vt 0.000000 1.000000
vt 0.938584 0.394749
vt 1.000000 0.333333
vt 0.061416 0.394749
vt 0.000000 0.333333
vt 0.002668 0.620292
vt 1.000000 0.620292
vt 0.997433 0.785960
vt 0.000101 0.785960
vt 0.002668 0.620292
vt 1.000000 0.620292
vt 0.997433 0.785960
vt 0.000101 0.785960
vt 0.002668 0.620292
vt 1.000000 0.620292
vt 0.997433 0.785960
vt 0.000101 0.785960
vt 0.002668 0.620292
vt 1.000000 0.620292
vt 0.997433 0.785960
vt 0.000101 0.785960
vt 0.125000 0.500000
vt 0.375000 0.500000
vt 0.375000 0.750000
vt 0.125000 0.750000
vt 0.625000 0.500000
vt 0.875000 0.500000
vt 0.875000 0.750000
vt 0.625000 0.750000
vt 0.997271 0.689661
vt 0.000000 0.689661
vt 0.002729 0.518065
vt 1.000000 0.518065
vt 0.997271 0.689661
vt 0.000000 0.689661
vt 0.002729 0.518065
vt 1.000000 0.518065
vt 0.997271 0.689661
vt 0.000000 0.689661
vt 0.002729 0.518065
vt 1.000000 0.518065
vt 0.997271 0.689661
vt 0.000000 0.689661
vt 0.002729 0.518065
vt 1.000000 0.518065
vt 0.125000 0.500000
vt 0.375000 0.500000
vt 0.375000 0.750000
vt 0.125000 0.750000
vt 0.625000 0.500000
vt 0.875000 0.500000
vt 0.875000 0.750000
vt 0.625000 0.750000
vt 0.067839 0.401173
vt 0.932160 0.401173
vt 0.932160 0.932160
vt 0.067839 0.932160
vt 0.000053 0.663853
vt 0.282680 0.666649
vt 0.282680 0.999947
vt 0.000053 0.918856
vt 0.000053 0.062455
vt 0.282680 0.000053
vt 0.282680 0.333351
vt 0.000053 0.330555
vt 0.312169 0.641798
vt 0.008374 0.587460
vt 0.010012 0.310328
vt 0.312382 0.304940
vt 0.000931 0.369072
vt 0.777614 0.313087
vt 0.777669 0.702202
vt 0.000088 0.689207
vt 0.312919 0.999944
vt 0.000056 0.892051
vt 0.020481 0.018160
vt 0.777802 0.000088
vt 0.005900 0.094640
vt 0.312919 0.000056
vt 0.777802 0.999912
vt 0.010517 0.937964
vt 0.786157 0.353207
vt 1.000000 0.615947
vt 0.000000 0.589746
vt 0.230942 0.324737
vt 0.786157 0.353207
vt 1.000000 0.615947
vt 0.000000 0.589746
vt 0.230942 0.324737
vn 0.4038 0.9148 0.0000
vn 0.0037 -0.0018 1.0000
vn -0.9032 0.4293 0.0000
vn 0.9032 -0.4293 0.0000
vn -0.0037 0.0018 -1.0000
vn -0.4070 -0.9134 0.0000
vn 0.4057 0.9140 0.0000
vn 0.4293 0.9032 0.0000
vn 0.0371 0.0955 -0.9947
vn 0.9423 -0.3347 0.0000
vn -0.8546 0.5194 0.0000
vn 0.0455 0.0916 0.9948
vn -0.9999 0.0103 0.0000
vn 0.0000 0.0100 -0.9999
vn 0.9999 -0.0103 0.0000
vn 0.0000 -0.0100 0.9999
vn 0.0000 -1.0000 0.0000
vn 0.0000 1.0000 0.0000
vn -0.0108 0.9999 0.0000
vn 0.7480 0.6637 0.0032
vn 0.3928 0.9196 0.0044
vn 0.7172 0.6950 -0.0509
vn 0.4045 0.9134 -0.0455
vn 0.7300 0.6826 0.0348
vn 0.4012 0.9155 0.0295
vn 0.1796 0.4122 -0.8932
vn 0.2110 0.4024 0.8908
usemtl Oak
s off
f 8/1/1 6/2/1 2/3/1 4/4/1
f 3/5/2 9/6/2 10/7/2 1/8/2
f 10/9/3 11/10/3 5/11/3 1/12/3
f 7/13/4 12/14/4 9/15/4 3/16/4
f 11/17/5 12/18/5 7/19/5 5/20/5
f 5/21/6 7/22/6 3/23/6 1/24/6
f 13/25/7 14/26/7 10/27/7 9/28/7
f 14/26/8 15/29/8 11/30/8 10/27/8
f 16/31/8 13/25/8 9/28/8 12/32/8
f 15/29/7 16/31/7 12/32/7 11/30/7
f 4/4/9 2/3/9 14/26/9 13/25/9
f 2/3/10 6/2/10 15/29/10 14/26/10
f 8/1/11 4/4/11 13/25/11 16/31/11
f 6/2/12 8/1/12 16/31/12 15/29/12
f 17/33/13 18/34/13 20/35/13 19/36/13
f 19/37/14 20/38/14 24/39/14 23/40/14
f 23/41/15 24/42/15 22/43/15 21/44/15
f 21/45/16 22/46/16 18/47/16 17/48/16
f 19/49/17 23/50/17 21/51/17 17/52/17
f 24/53/18 20/54/18 18/55/18 22/56/18
f 25/57/13 26/58/13 28/59/13 27/60/13
f 27/61/14 28/62/14 32/63/14 31/64/14
f 31/65/15 32/66/15 30/67/15 29/68/15
f 29/69/16 30/70/16 26/71/16 25/72/16
f 27/73/17 31/74/17 29/75/17 25/76/17
f 32/77/18 28/78/18 26/79/18 30/80/18
f 36/81/1 35/82/1 33/83/1 34/84/1
usemtl Fillling_Texture
f 51/85/19 41/86/19 37/87/19 46/88/19
f 47/89/19 39/90/19 42/91/19 49/92/19
f 49/92/19 42/91/19 41/86/19 51/85/19
f 43/93/20 50/94/20 52/95/20 44/96/20
f 50/97/21 49/98/21 51/99/21 52/100/21
f 40/101/22 48/102/22 50/94/22 43/93/22
f 48/103/23 47/104/23 49/98/23 50/97/23
f 44/96/24 52/95/24 45/105/24 38/106/24
f 52/100/25 51/99/25 46/107/25 45/108/25
f 48/109/26 40/110/26 39/111/26 47/112/26
f 46/113/27 37/114/27 38/115/27 45/116/27
