# Blender v3.0.0 OBJ File: 'Objects.blend'
# www.blender.org
mtllib square_barrel_offset.mtl
o Square_Barrel_Offset_Cube.047
v 0.029750 0.050000 1.476237
v 0.029750 0.950000 1.476237
v 0.029750 0.050000 0.523763
v 0.029750 0.950000 0.523763
v 0.970250 0.050000 1.476237
v 0.970250 0.950000 1.476237
v 0.970250 0.050000 0.523763
v 0.970250 0.950000 0.523763
v 0.096693 0.050000 0.591559
v 0.903307 0.050000 0.591559
v 0.903307 0.050000 1.408441
v 0.096693 0.050000 1.408441
v 0.903307 0.950000 0.591559
v 0.096693 0.950000 0.591559
v 0.096693 0.950000 1.408441
v 0.903307 0.950000 1.408441
v 0.903307 0.001365 0.591559
v 0.096693 0.001365 0.591559
v 0.096693 0.001365 1.408441
v 0.903307 0.001365 1.408441
v 0.096693 0.998635 0.591559
v 0.903307 0.998635 0.591559
v 0.903307 0.998635 1.408441
v 0.096693 0.998635 1.408441
v 0.157243 0.001365 0.652879
v 0.842757 0.001365 0.652879
v 0.842757 0.001365 1.347121
v 0.157243 0.001365 1.347121
v 0.842757 0.998635 0.652879
v 0.157243 0.998635 0.652879
v 0.157243 0.998635 1.347121
v 0.842757 0.998635 1.347121
v 0.842757 0.058910 0.652879
v 0.157243 0.058910 0.652879
v 0.157243 0.058910 1.347121
v 0.842757 0.058910 1.347121
v 0.157243 0.941090 0.652879
v 0.842757 0.941090 0.652879
v 0.842757 0.941090 1.347121
v 0.157243 0.941090 1.347121
v -0.001757 0.762500 1.502694
v -0.001757 0.862500 1.502694
v -0.001757 0.762500 0.497306
v -0.001757 0.862500 0.497306
v 1.001757 0.762500 1.502694
v 1.001757 0.862500 1.502694
v 1.001757 0.762500 0.497306
v 1.001757 0.862500 0.497306
v -0.001757 0.144109 1.502694
v -0.001757 0.244109 1.502694
v -0.001757 0.144109 0.497306
v -0.001757 0.244109 0.497306
v 1.001757 0.144109 1.502694
v 1.001757 0.244109 1.502694
v 1.001757 0.144109 0.497306
v 1.001757 0.244109 0.497306
vt 0.999739 1.000261
vt -0.000261 0.999739
vt 0.000261 -0.000261
vt 1.000261 0.000261
vt 0.999739 1.000261
vt -0.000261 0.999739
vt 0.000261 -0.000261
vt 1.000261 0.000261
vt 0.999739 1.000261
vt -0.000261 0.999739
vt 0.000261 -0.000261
vt 1.000261 0.000261
vt 0.999739 1.000261
vt -0.000261 0.999739
vt 0.000261 -0.000261
vt 1.000261 0.000261
vt 0.928822 0.928822
vt 0.071178 0.928822
vt 0.071178 0.928822
vt 0.928822 0.928822
vt 0.928822 0.071178
vt 0.928822 0.928822
vt 0.928822 0.928822
vt 0.928822 0.071178
vt 0.000000 0.000000
vt 1.000000 0.000000
vt 0.071178 0.071178
vt 1.000000 1.000000
vt 0.000000 1.000000
vt 0.071178 0.928822
vt 0.000000 0.000000
vt 1.000000 0.000000
vt 0.928822 0.071178
vt 0.071178 0.071178
vt 1.000000 1.000000
vt 0.000000 1.000000
vt 0.135559 0.864442
vt 0.135559 0.135559
vt 0.135559 0.135559
vt 0.135559 0.864442
vt 0.864441 0.864441
vt 0.864441 0.864441
vt 0.071178 0.071178
vt 0.071178 0.071178
vt 0.071178 0.928822
vt 0.928822 0.071178
vt 0.864441 0.135559
vt 0.864441 0.135559
vt 0.135559 0.135559
vt 0.864441 0.864441
vt 0.135559 0.864442
vt 0.864441 0.135559
vt 0.135559 0.135559
vt 0.864441 0.135559
vt 0.864441 0.864441
vt 0.135559 0.864442
vt -0.000609 0.999391
vt 0.000001 0.907362
vt 1.000000 0.908580
vt 0.999391 1.000609
vt -0.000609 0.999391
vt 0.000001 0.907362
vt 1.000000 0.908580
vt 0.999391 1.000609
vt -0.000609 0.999391
vt 0.000001 0.907362
vt 1.000000 0.908580
vt 0.999391 1.000609
vt -0.000609 0.999391
vt 0.000001 0.907362
vt 1.000000 0.908580
vt 0.999391 1.000609
vt 0.000001 0.907362
vt 1.000000 0.908580
vt -0.000609 0.999391
vt 0.999391 1.000609
vt -0.000609 0.999391
vt 0.000001 0.907362
vt 1.000000 0.908580
vt 0.999391 1.000609
vt -0.000609 0.999391
vt 0.000001 0.907362
vt 1.000000 0.908580
vt 0.999391 1.000609
vt -0.000609 0.999391
vt 0.000001 0.907362
vt 1.000000 0.908580
vt 0.999391 1.000609
vt -0.000609 0.999391
vt 0.000001 0.907362
vt 1.000000 0.908580
vt 0.999391 1.000609
vt 0.000001 0.907362
vt 1.000000 0.908580
vt -0.000609 0.999391
vt 0.999391 1.000609
vn -1.0000 0.0000 0.0000
vn 0.0000 0.0000 -1.0000
vn 1.0000 0.0000 0.0000
vn 0.0000 0.0000 1.0000
vn 0.0000 -1.0000 0.0000
vn 0.0000 1.0000 0.0000
usemtl Oak
s off
f 1/1/1 2/2/1 4/3/1 3/4/1
f 3/5/2 4/6/2 8/7/2 7/8/2
f 7/9/3 8/10/3 6/11/3 5/12/3
f 5/13/4 6/14/4 2/15/4 1/16/4
f 15/17/4 16/18/4 23/19/4 24/20/4
f 10/21/3 11/22/3 20/23/3 17/24/3
f 3/25/5 7/26/5 10/21/5 9/27/5
f 7/26/5 5/28/5 11/22/5 10/21/5
f 5/28/5 1/29/5 12/30/5 11/22/5
f 1/29/5 3/25/5 9/27/5 12/30/5
f 8/31/6 4/32/6 14/33/6 13/34/6
f 4/32/6 2/35/6 15/17/6 14/33/6
f 2/35/6 6/36/6 16/18/6 15/17/6
f 6/36/6 8/31/6 13/34/6 16/18/6
f 28/37/3 25/38/3 34/39/3 35/40/3
f 27/41/2 28/37/2 35/40/2 36/42/2
f 9/27/2 10/21/2 17/24/2 18/43/2
f 16/18/3 13/34/3 22/44/3 23/19/3
f 11/22/4 12/30/4 19/45/4 20/23/4
f 12/30/1 9/27/1 18/43/1 19/45/1
f 14/33/1 15/17/1 24/20/1 21/46/1
f 13/34/2 14/33/2 21/46/2 22/44/2
f 18/43/5 17/24/5 26/47/5 25/38/5
f 17/24/5 20/23/5 27/41/5 26/47/5
f 20/23/5 19/45/5 28/37/5 27/41/5
f 19/45/5 18/43/5 25/38/5 28/37/5
f 22/44/6 21/46/6 30/48/6 29/49/6
f 21/46/6 24/20/6 31/50/6 30/48/6
f 24/20/6 23/19/6 32/51/6 31/50/6
f 23/19/6 22/44/6 29/49/6 32/51/6
f 34/39/5 33/52/5 36/42/5 35/40/5
f 38/53/6 37/54/6 40/55/6 39/56/6
f 30/48/3 31/50/3 40/55/3 37/54/3
f 29/49/4 30/48/4 37/54/4 38/53/4
f 26/47/1 27/41/1 36/42/1 33/52/1
f 31/50/2 32/51/2 39/56/2 40/55/2
f 25/38/4 26/47/4 33/52/4 34/39/4
f 32/51/1 29/49/1 38/53/1 39/56/1
usemtl Barrel_Side
f 41/57/1 42/58/1 44/59/1 43/60/1
f 43/61/2 44/62/2 48/63/2 47/64/2
f 47/65/3 48/66/3 46/67/3 45/68/3
f 45/69/4 46/70/4 42/71/4 41/72/4
f 43/61/5 47/73/5 45/74/5 41/72/5
f 48/75/6 44/62/6 42/71/6 46/76/6
f 49/77/1 50/78/1 52/79/1 51/80/1
f 51/81/2 52/82/2 56/83/2 55/84/2
f 55/85/3 56/86/3 54/87/3 53/88/3
f 53/89/4 54/90/4 50/91/4 49/92/4
f 51/81/5 55/93/5 53/94/5 49/92/5
f 56/95/6 52/82/6 50/91/6 54/96/6
