# Blender 3.6.1
# www.blender.org
mtllib wide_vase.mtl
o Wide_vase
v 0.500000 0.000302 0.196143
v 0.714859 0.000302 0.285141
v 0.803857 0.000302 0.500000
v 0.714859 0.000302 0.714859
v 0.500000 0.000302 0.803857
v 0.285141 0.000302 0.714859
v 0.196143 0.000302 0.500000
v 0.285141 0.000302 0.285141
v 0.500000 0.466796 0.023406
v 0.837003 0.466796 0.162997
v 0.976594 0.466796 0.500000
v 0.837003 0.466796 0.837003
v 0.500000 0.466796 0.976594
v 0.162997 0.466796 0.837003
v 0.023406 0.466796 0.500000
v 0.162997 0.466796 0.162997
v 0.834737 0.237274 0.165263
v 0.973389 0.237274 0.500000
v 0.834737 0.237274 0.834737
v 0.500000 0.237274 0.973389
v 0.165263 0.237274 0.834737
v 0.026611 0.237274 0.500000
v 0.165263 0.237274 0.165263
v 0.500000 0.237274 0.026611
v 0.500000 0.849162 0.392665
v 0.575897 0.849162 0.424103
v 0.607335 0.849162 0.500000
v 0.575897 0.849162 0.575897
v 0.500000 0.849162 0.607335
v 0.424103 0.849162 0.575897
v 0.392665 0.849162 0.500000
v 0.424103 0.849162 0.424103
v 0.500000 0.943013 0.288498
v 0.649554 0.943013 0.350446
v 0.711502 0.943013 0.500000
v 0.649554 0.943013 0.649554
v 0.500000 0.943013 0.711502
v 0.350446 0.943013 0.649554
v 0.288498 0.943013 0.500000
v 0.350446 0.943013 0.350446
v 0.500000 0.950721 0.282032
v 0.654127 0.950721 0.345873
v 0.717968 0.950721 0.500000
v 0.654127 0.950721 0.654127
v 0.500000 0.950721 0.717968
v 0.345873 0.950721 0.654127
v 0.282032 0.950721 0.500000
v 0.345873 0.950721 0.345873
v 0.500000 0.973727 0.283509
v 0.653082 0.973727 0.346918
v 0.716491 0.973727 0.500000
v 0.653082 0.973727 0.653082
v 0.500000 0.973727 0.716491
v 0.346918 0.973727 0.653082
v 0.283509 0.973727 0.500000
v 0.346918 0.973727 0.346918
v 0.500000 0.940244 0.323031
v 0.500000 0.972919 0.316435
v 0.625136 0.940244 0.374864
v 0.629800 0.972919 0.370200
v 0.676969 0.940244 0.500000
v 0.683565 0.972919 0.500000
v 0.625136 0.940244 0.625136
v 0.629800 0.972919 0.629800
v 0.500000 0.940244 0.676969
v 0.500000 0.972919 0.683565
v 0.374864 0.940244 0.625136
v 0.370200 0.972919 0.629800
v 0.323031 0.940244 0.500000
v 0.316435 0.972919 0.500000
v 0.374864 0.940244 0.374864
v 0.370200 0.972919 0.370200
v 0.755833 0.659523 0.244167
v 0.861803 0.659523 0.500000
v 0.755833 0.659523 0.755833
v 0.500000 0.659523 0.861803
v 0.244167 0.659523 0.755833
v 0.138197 0.659523 0.500000
v 0.244167 0.659523 0.244167
v 0.500000 0.659523 0.138197
vn -0.3820 0.0592 -0.9223
vn 0.9223 0.0592 0.3820
vn 0.3820 0.0592 0.9223
vn -0.3820 0.0592 0.9223
vn -0.9223 0.0592 0.3820
vn -0.9223 0.0592 -0.3820
vn 0.3820 0.0592 -0.9223
vn 0.9223 0.0592 -0.3820
vn -0.0000 -1.0000 -0.0000
vn -0.3827 -0.0129 -0.9238
vn -0.9238 -0.0129 -0.3827
vn -0.9238 -0.0129 0.3827
vn -0.3827 -0.0129 0.9238
vn 0.3827 -0.0129 0.9238
vn 0.9238 -0.0129 0.3827
vn 0.9238 -0.0129 -0.3827
vn 0.3827 -0.0129 -0.9238
vn 0.3193 -0.5514 -0.7707
vn 0.7707 -0.5514 -0.3193
vn 0.7707 -0.5514 0.3193
vn 0.3193 -0.5514 0.7707
vn -0.3193 -0.5514 0.7707
vn -0.7707 -0.5514 0.3193
vn -0.7707 -0.5514 -0.3193
vn -0.3193 -0.5514 -0.7707
vn -0.2403 0.7783 -0.5800
vn -0.5800 0.7783 -0.2403
vn -0.5800 0.7783 0.2403
vn -0.2403 0.7783 0.5800
vn 0.2403 0.7783 0.5800
vn 0.5800 0.7783 0.2403
vn 0.5800 0.7783 -0.2403
vn 0.2403 0.7783 -0.5800
vn -0.2672 -0.7159 -0.6450
vn -0.6450 -0.7159 -0.2672
vn -0.6450 -0.7159 0.2672
vn -0.2672 -0.7159 0.6450
vn 0.2672 -0.7159 0.6450
vn 0.6450 -0.7159 0.2672
vn 0.6450 -0.7159 -0.2672
vn 0.2672 -0.7159 -0.6450
vn -0.3025 -0.6126 -0.7302
vn -0.7302 -0.6126 -0.3025
vn -0.7302 -0.6126 0.3025
vn -0.3025 -0.6126 0.7302
vn 0.3025 -0.6126 0.7302
vn 0.7302 -0.6126 0.3025
vn 0.7302 -0.6126 -0.3025
vn 0.3025 -0.6126 -0.7302
vn -0.0000 1.0000 -0.0000
vn -0.0245 0.9996 -0.0102
vn -0.0102 0.9996 -0.0245
vn 0.0102 0.9996 -0.0245
vn 0.0245 0.9996 -0.0102
vn 0.0245 0.9996 0.0102
vn -0.0102 0.9996 0.0245
vn -0.0245 0.9996 0.0102
vn -0.3762 0.1834 0.9082
vn -0.9082 0.1834 0.3762
vn -0.9082 0.1834 -0.3762
vn -0.3762 0.1834 -0.9082
vn 0.3762 0.1834 -0.9082
vn 0.9082 0.1834 -0.3762
vn 0.9082 0.1834 0.3762
vn 0.3762 0.1834 0.9082
vn 0.0102 0.9996 0.0245
vn 0.3353 0.4821 -0.8094
vn 0.8094 0.4821 -0.3353
vn 0.8094 0.4821 0.3353
vn 0.3353 0.4821 0.8094
vn -0.3353 0.4821 0.8094
vn -0.8094 0.4821 0.3353
vn -0.8094 0.4821 -0.3353
vn -0.3353 0.4821 -0.8094
vt 1.000000 0.439279
vt 0.996611 0.563664
vt 0.003389 0.563663
vt 0.000000 0.439279
vt 0.999900 0.292935
vt 0.999900 0.707065
vt 0.707065 0.999900
vt 0.292935 0.999900
vt 0.000100 0.707065
vt 0.000100 0.292935
vt 0.292934 0.000100
vt 0.707065 0.000100
vt 0.986748 0.250975
vt 0.884390 0.769935
vt 0.097597 0.766330
vt 0.000000 0.246453
vt 0.791121 0.000000
vt 0.923951 0.692356
vt 0.068190 0.696574
vt 0.194189 0.002942
vt 0.934683 0.741779
vt 0.884390 1.000000
vt 0.097597 0.996395
vt 0.049672 0.737724
vt 0.934684 0.741779
vt 0.049672 0.737723
vt 0.934683 0.741779
vt 0.049672 0.737724
vt 0.934683 0.741779
vt 0.049672 0.737723
vt 0.986748 0.481040
vt 0.000000 0.476518
vt 0.985166 0.121287
vt 1.000000 0.176167
vt 0.000000 0.176167
vt 0.014834 0.121287
vt 0.000077 0.000077
vt 0.999923 0.999924
vt 0.414227 0.999924
vt 0.000077 0.585773
vt 0.000064 0.999935
vt 0.000065 0.000064
vt 0.414225 0.000065
vt 0.414225 0.999936
vt 0.414227 0.999923
vt 0.000077 0.585773
vt 0.000076 0.000076
vt 0.999923 0.999923
s 0
usemtl Teracotta
f 48/1/1 56/2/1 49/3/1 41/4/1
f 43/1/2 51/2/2 52/3/2 44/4/2
f 44/1/3 52/2/3 53/3/3 45/4/3
f 45/1/4 53/2/4 54/3/4 46/4/4
f 46/1/5 54/2/5 55/3/5 47/4/5
f 47/1/6 55/2/6 56/3/6 48/4/6
f 41/1/7 49/2/7 50/3/7 42/4/7
f 42/1/8 50/2/8 51/3/8 43/4/8
f 1/5/9 2/6/9 3/7/9 4/8/9 5/9/9 6/10/9 7/11/9 8/12/9
f 23/13/10 16/14/10 9/15/10 24/16/10
f 22/13/11 15/14/11 16/15/11 23/16/11
f 21/13/12 14/14/12 15/15/12 22/16/12
f 20/13/13 13/14/13 14/15/13 21/16/13
f 19/13/14 12/14/14 13/15/14 20/16/14
f 18/13/15 11/14/15 12/15/15 19/16/15
f 17/13/16 10/14/16 11/15/16 18/16/16
f 24/13/17 9/14/17 10/15/17 17/16/17
f 1/17/18 24/18/18 17/19/18 2/20/18
f 2/17/19 17/18/19 18/19/19 3/20/19
f 3/17/20 18/18/20 19/19/20 4/20/20
f 4/17/21 19/18/21 20/19/21 5/20/21
f 5/17/22 20/18/22 21/19/22 6/20/22
f 6/17/23 21/18/23 22/19/23 7/20/23
f 7/17/24 22/18/24 23/19/24 8/20/24
f 8/17/25 23/18/25 24/19/25 1/20/25
f 79/21/26 32/22/26 25/23/26 80/24/26
f 78/25/27 31/22/27 32/23/27 79/26/27
f 77/27/28 30/22/28 31/23/28 78/28/28
f 76/25/29 29/22/29 30/23/29 77/26/29
f 75/27/30 28/22/30 29/23/30 76/28/30
f 74/25/31 27/22/31 28/23/31 75/26/31
f 73/27/32 26/22/32 27/23/32 74/28/32
f 80/29/33 25/22/33 26/23/33 73/30/33
f 32/31/34 40/22/34 33/23/34 25/32/34
f 31/31/35 39/22/35 40/23/35 32/32/35
f 30/31/36 38/22/36 39/23/36 31/32/36
f 29/31/37 37/22/37 38/23/37 30/32/37
f 28/31/38 36/22/38 37/23/38 29/32/38
f 27/31/39 35/22/39 36/23/39 28/32/39
f 26/31/40 34/22/40 35/23/40 27/32/40
f 25/31/41 33/22/41 34/23/41 26/32/41
f 40/33/42 48/34/42 41/35/42 33/36/42
f 39/33/43 47/34/43 48/35/43 40/36/43
f 38/33/44 46/34/44 47/35/44 39/36/44
f 37/33/45 45/34/45 46/35/45 38/36/45
f 36/33/46 44/34/46 45/35/46 37/36/46
f 35/33/47 43/34/47 44/35/47 36/36/47
f 34/33/48 42/34/48 43/35/48 35/36/48
f 33/33/49 41/34/49 42/35/49 34/36/49
f 52/1/51 51/2/51 62/3/51 64/4/51
f 53/1/52 52/2/52 64/3/52 66/4/52
f 54/1/53 53/2/53 66/3/53 68/4/53
f 55/1/54 54/2/54 68/3/54 70/4/54
f 56/1/55 55/2/55 70/3/55 72/4/55
f 50/1/56 49/2/56 58/3/56 60/4/56
f 51/1/57 50/2/57 60/3/57 62/4/57
f 57/1/58 59/2/58 60/3/58 58/4/58
f 59/1/59 61/2/59 62/3/59 60/4/59
f 61/1/60 63/2/60 64/3/60 62/4/60
f 63/1/61 65/2/61 66/3/61 64/4/61
f 65/1/62 67/2/62 68/3/62 66/4/62
f 67/1/63 69/2/63 70/3/63 68/4/63
f 69/1/64 71/2/64 72/3/64 70/4/64
f 71/1/65 57/2/65 58/3/65 72/4/65
f 49/1/66 56/2/66 72/3/66 58/4/66
f 9/31/67 80/29/67 73/30/67 10/32/67
f 10/31/68 73/27/68 74/28/68 11/32/68
f 11/31/69 74/25/69 75/26/69 12/32/69
f 12/31/70 75/27/70 76/28/70 13/32/70
f 13/31/71 76/25/71 77/26/71 14/32/71
f 14/31/72 77/27/72 78/28/72 15/32/72
f 15/31/73 78/25/73 79/26/73 16/32/73
f 16/31/74 79/21/74 80/24/74 9/32/74
usemtl Darkness
f 61/37/50 67/38/50 65/39/50 63/40/50
f 59/41/50 69/42/50 67/43/50 61/44/50
f 57/45/50 71/46/50 69/47/50 59/48/50
