# Blender v3.0.0 OBJ File: 'palm leaves.blend'
# www.blender.org
mtllib palm_leaves_1.mtl
o Frond.038_Cube.005
v -1.122394 1.908994 1.741602
v -0.731906 2.597001 1.161698
v -1.123989 1.907612 1.740081
v -0.733501 2.595619 1.160177
v 1.537983 -0.254825 0.942612
v 1.928471 0.433182 0.362708
v 1.536388 -0.256208 0.941091
v 1.926876 0.431799 0.361187
v -1.352736 1.897816 0.912001
v -0.728463 2.582380 1.226262
v -1.352106 1.899258 0.909910
v -0.727832 2.583822 1.224171
v 1.360674 -0.244953 0.245073
v 1.984947 0.439610 0.559333
v 1.361304 -0.243511 0.242981
v 1.985578 0.441052 0.557242
vt 0.000000 0.125000
vt 0.250000 0.125000
vt 0.125000 0.375000
vt 0.000000 0.375000
vt 0.000000 0.000000
vt 0.250000 0.000000
vt 0.250000 0.250000
vt 0.000000 0.250000
vt 0.125000 0.500000
vt 0.250000 0.625000
vt 0.375000 0.750000
vt 0.125000 0.750000
vt 0.000000 0.000000
vt 0.250000 0.000000
vt 0.250000 0.250000
vt 0.000000 0.250000
vt 0.645620 0.754914
vt 0.648866 1.000000
vt 0.000000 0.998532
vt 0.000561 0.750271
vt 0.000000 1.000000
vt 0.611976 0.999594
vt 0.613081 0.762562
vt 0.000000 0.762562
vt 0.125000 0.500000
vt 0.250000 0.625000
vt 0.375000 0.750000
vt 0.125000 0.750000
vt 0.000000 0.000000
vt 0.250000 0.000000
vt 0.250000 0.250000
vt 0.000000 0.250000
vt 0.612438 0.761118
vt 0.613316 1.000000
vt 0.015625 1.000000
vt 0.015625 0.762856
vt 0.000000 1.000000
vt 0.611976 0.999594
vt 0.613081 0.762562
vt 0.000000 0.762562
vn -0.7524 0.6183 0.2269
vn -0.7674 0.6121 0.1909
vn -0.5906 -0.5701 -0.5712
vn 0.5906 0.5701 0.5711
vn -0.5225 -0.3564 -0.7746
vn 0.5225 0.3564 0.7746
vn -0.2386 -0.5808 0.7783
vn 0.2386 0.5808 -0.7783
vn 0.0629 0.3684 -0.9275
vn -0.0629 -0.3684 0.9275
usemtl Palm_Frond
s off
f 1/1/1 2/2/1 4/3/1 3/4/1
f 9/5/2 10/6/2 12/7/2 11/8/2
f 11/9/3 15/10/3 13/11/3 9/12/3
f 16/13/4 12/14/4 10/15/4 14/16/4
f 3/17/5 4/18/5 8/19/5 7/20/5
f 6/21/6 2/22/6 1/23/6 5/24/6
f 3/25/7 7/26/7 5/27/7 1/28/7
f 8/29/8 4/30/8 2/31/8 6/32/8
f 11/33/9 12/34/9 16/35/9 15/36/9
f 14/37/10 10/38/10 9/39/10 13/40/10
o Frond.039_Cube.005
v 0.917738 1.524299 2.886490
v 0.553522 2.099687 2.164423
v 0.914855 1.523140 2.885936
v 0.550640 2.098528 2.163870
v 1.911892 -0.183215 0.919347
v 1.547677 0.392173 0.197280
v 1.909010 -0.184374 0.918793
v 1.544794 0.391014 0.196726
v -0.184193 1.514968 2.257866
v 0.628648 2.087408 2.220714
v -0.186080 1.516175 2.255662
v 0.626761 2.088615 2.218509
v 0.997408 -0.174920 0.382431
v 1.810249 0.397520 0.345279
v 0.995521 -0.173713 0.380227
v 1.808362 0.398727 0.343074
vt 0.000000 0.125000
vt 0.250000 0.125000
vt 0.125000 0.375000
vt 0.000000 0.375000
vt 0.000000 0.000000
vt 0.250000 0.000000
vt 0.250000 0.250000
vt 0.000000 0.250000
vt 0.125000 0.500000
vt 0.250000 0.625000
vt 0.375000 0.750000
vt 0.125000 0.750000
vt 0.000000 0.000000
vt 0.250000 0.000000
vt 0.250000 0.250000
vt 0.000000 0.250000
vt 0.645620 0.754914
vt 0.648866 1.000000
vt 0.000000 0.998532
vt 0.000561 0.750271
vt 0.000000 1.000000
vt 0.611976 0.999594
vt 0.613081 0.762562
vt 0.000000 0.762562
vt 0.125000 0.500000
vt 0.250000 0.625000
vt 0.375000 0.750000
vt 0.125000 0.750000
vt 0.000000 0.000000
vt 0.250000 0.000000
vt 0.250000 0.250000
vt 0.000000 0.250000
vt 0.612438 0.761118
vt 0.613316 1.000000
vt 0.015625 1.000000
vt 0.015625 0.762856
vt 0.000000 1.000000
vt 0.611976 0.999594
vt 0.613081 0.762562
vt 0.000000 0.762562
vn -0.3809 0.6199 0.6861
vn -0.4013 0.6139 0.6798
vn -0.6838 -0.7014 0.2012
vn 0.6838 0.7014 -0.2012
vn -0.8549 -0.5185 0.0180
vn 0.8549 0.5185 -0.0180
vn 0.1516 -0.7073 0.6905
vn -0.1516 0.7073 -0.6905
vn -0.4099 0.5340 -0.7395
vn 0.4099 -0.5340 0.7395
usemtl Palm_Frond
s off
f 17/41/11 18/42/11 20/43/11 19/44/11
f 25/45/12 26/46/12 28/47/12 27/48/12
f 27/49/13 31/50/13 29/51/13 25/52/13
f 32/53/14 28/54/14 26/55/14 30/56/14
f 19/57/15 20/58/15 24/59/15 23/60/15
f 22/61/16 18/62/16 17/63/16 21/64/16
f 19/65/17 23/66/17 21/67/17 17/68/17
f 24/69/18 20/70/18 18/71/18 22/72/18
f 27/73/19 28/74/19 32/75/19 31/76/19
f 30/77/20 26/78/20 25/79/20 29/80/20
o Frond.040_Cube.005
v -1.799837 -0.521929 0.965265
v -1.922432 0.319334 0.490846
v -1.799657 -0.523695 0.963345
v -1.922252 0.317567 0.488925
v 1.847952 -0.041586 0.876073
v 1.725357 0.799677 0.401654
v 1.848133 -0.043352 0.874152
v 1.725539 0.797911 0.399733
v -1.797665 -0.539241 0.082969
v -1.921405 0.300174 0.555765
v -1.797890 -0.537450 0.081058
v -1.921630 0.301965 0.553853
v 1.847117 -0.031761 0.138454
v 1.723377 0.807654 0.611250
v 1.846892 -0.029970 0.136543
v 1.723153 0.809444 0.609338
vt 0.000000 0.125000
vt 0.250000 0.125000
vt 0.125000 0.375000
vt 0.000000 0.375000
vt 0.000000 0.000000
vt 0.250000 0.000000
vt 0.250000 0.250000
vt 0.000000 0.250000
vt 0.125000 0.500000
vt 0.250000 0.625000
vt 0.375000 0.750000
vt 0.125000 0.750000
vt 0.000000 0.000000
vt 0.250000 0.000000
vt 0.250000 0.250000
vt 0.000000 0.250000
vt 0.645620 0.754914
vt 0.648866 1.000000
vt 0.000000 0.998532
vt 0.000561 0.750271
vt 0.000000 1.000000
vt 0.611976 0.999594
vt 0.613081 0.762562
vt 0.000000 0.762562
vt 0.125000 0.500000
vt 0.250000 0.625000
vt 0.375000 0.750000
vt 0.125000 0.750000
vt 0.000000 0.000000
vt 0.250000 0.000000
vt 0.250000 0.250000
vt 0.000000 0.250000
vt 0.612438 0.761118
vt 0.613316 1.000000
vt 0.015625 1.000000
vt 0.015625 0.762856
vt 0.000000 1.000000
vt 0.611976 0.999594
vt 0.613081 0.762562
vt 0.000000 0.762562
vn -0.9912 -0.1298 0.0260
vn -0.9903 -0.1385 -0.0134
vn 0.1105 -0.7188 -0.6864
vn -0.1105 0.7188 0.6864
vn 0.0427 -0.4860 -0.8729
vn -0.0427 0.4860 0.8729
vn 0.1122 -0.7261 0.6783
vn -0.1122 0.7262 -0.6783
vn -0.0541 0.4840 -0.8734
vn 0.0541 -0.4840 0.8734
usemtl Palm_Frond
s off
f 33/81/21 34/82/21 36/83/21 35/84/21
f 41/85/22 42/86/22 44/87/22 43/88/22
f 43/89/23 47/90/23 45/91/23 41/92/23
f 48/93/24 44/94/24 42/95/24 46/96/24
f 35/97/25 36/98/25 40/99/25 39/100/25
f 38/101/26 34/102/26 33/103/26 37/104/26
f 35/105/27 39/106/27 37/107/27 33/108/27
f 40/109/28 36/110/28 34/111/28 38/112/28
f 43/113/29 44/114/29 48/115/29 47/116/29
f 46/117/30 42/118/30 41/119/30 45/120/30
o Frond.041_Cube.005
v -0.199847 -0.477525 2.894372
v -0.678027 0.421152 2.570513
v -0.201710 -0.479045 2.892293
v -0.679889 0.419632 2.568434
v 1.782184 -0.086267 0.779406
v 1.304004 0.812410 0.455546
v 1.780322 -0.087786 0.777326
v 1.302143 0.810891 0.453467
v -1.053712 -0.384305 2.044058
v -0.615741 0.393955 2.630886
v -1.055582 -0.382280 2.042481
v -0.617611 0.395980 2.629310
v 1.068285 0.015884 0.071832
v 1.506256 0.794144 0.658661
v 1.066414 0.017909 0.070256
v 1.504385 0.796169 0.657085
vt 0.000000 0.125000
vt 0.250000 0.125000
vt 0.125000 0.375000
vt 0.000000 0.375000
vt 0.000000 0.000000
vt 0.250000 0.000000
vt 0.250000 0.250000
vt 0.000000 0.250000
vt 0.125000 0.500000
vt 0.250000 0.625000
vt 0.375000 0.750000
vt 0.125000 0.750000
vt 0.000000 0.000000
vt 0.250000 0.000000
vt 0.250000 0.250000
vt 0.000000 0.250000
vt 0.645620 0.754914
vt 0.648866 1.000000
vt 0.000000 0.998532
vt 0.000561 0.750271
vt 0.000000 1.000000
vt 0.611976 0.999594
vt 0.613081 0.762562
vt 0.000000 0.762562
vt 0.125000 0.500000
vt 0.250000 0.625000
vt 0.375000 0.750000
vt 0.125000 0.750000
vt 0.000000 0.000000
vt 0.250000 0.000000
vt 0.250000 0.250000
vt 0.000000 0.250000
vt 0.612438 0.761118
vt 0.613316 1.000000
vt 0.015625 1.000000
vt 0.015625 0.762856
vt 0.000000 1.000000
vt 0.611976 0.999594
vt 0.613081 0.762562
vt 0.000000 0.762562
vn -0.6965 -0.1154 0.7082
vn -0.7126 -0.1201 0.6912
vn -0.3621 -0.7574 -0.5433
vn 0.3621 0.7574 0.5433
vn -0.5680 -0.5293 -0.6302
vn 0.5680 0.5293 0.6302
vn 0.4333 -0.8671 0.2456
vn -0.4333 0.8672 -0.2456
vn -0.5665 0.6751 -0.4725
vn 0.5665 -0.6751 0.4725
usemtl Palm_Frond
s off
f 49/121/31 50/122/31 52/123/31 51/124/31
f 57/125/32 58/126/32 60/127/32 59/128/32
f 59/129/33 63/130/33 61/131/33 57/132/33
f 64/133/34 60/134/34 58/135/34 62/136/34
f 51/137/35 52/138/35 56/139/35 55/140/35
f 54/141/36 50/142/36 49/143/36 53/144/36
f 51/145/37 55/146/37 53/147/37 49/148/37
f 56/149/38 52/150/38 50/151/38 54/152/38
f 59/153/39 60/154/39 64/155/39 63/156/39
f 62/157/40 58/158/40 57/159/40 61/160/40
o Frond.042_Cube.005
v 1.665389 -1.810372 2.495477
v 0.662566 -1.325716 2.665712
v 1.663093 -1.811985 2.493195
v 0.660271 -1.327329 2.663429
v 2.172848 0.197317 0.444848
v 1.170026 0.681973 0.615083
v 2.170553 0.195704 0.442565
v 1.167730 0.680360 0.612800
v 0.345014 -1.992046 1.889116
v 0.766367 -1.327152 2.699497
v 0.341532 -1.991171 1.888846
v 0.762885 -1.326277 2.699227
v 1.060812 0.062473 -0.048447
v 1.482165 0.727366 0.761934
v 1.057330 0.063348 -0.048717
v 1.478683 0.728241 0.761664
vt 0.000000 0.125000
vt 0.250000 0.125000
vt 0.125000 0.375000
vt 0.000000 0.375000
vt 0.000000 0.000000
vt 0.250000 0.000000
vt 0.250000 0.250000
vt 0.000000 0.250000
vt 0.125000 0.500000
vt 0.250000 0.625000
vt 0.375000 0.750000
vt 0.125000 0.750000
vt 0.000000 0.000000
vt 0.250000 0.000000
vt 0.250000 0.250000
vt 0.000000 0.250000
vt 0.645620 0.754914
vt 0.648866 1.000000
vt 0.000000 0.998532
vt 0.000561 0.750271
vt 0.000000 1.000000
vt 0.611976 0.999594
vt 0.613081 0.762562
vt 0.000000 0.762562
vt 0.125000 0.500000
vt 0.250000 0.625000
vt 0.375000 0.750000
vt 0.125000 0.750000
vt 0.000000 0.000000
vt 0.250000 0.000000
vt 0.250000 0.250000
vt 0.000000 0.250000
vt 0.612438 0.761118
vt 0.613316 1.000000
vt 0.015625 1.000000
vt 0.015625 0.762856
vt 0.000000 1.000000
vt 0.611976 0.999594
vt 0.613081 0.762562
vt 0.000000 0.762562
vn -0.2124 -0.6845 0.6974
vn -0.2269 -0.6918 0.6855
vn -0.1089 -0.6617 -0.7418
vn 0.1088 0.6617 0.7418
vn -0.4070 -0.6003 -0.6885
vn 0.4070 0.6003 0.6885
vn 0.7488 -0.5567 -0.3597
vn -0.7488 0.5566 0.3597
vn -0.8977 0.4245 0.1185
vn 0.8977 -0.4245 -0.1185
usemtl Palm_Frond
s off
f 65/161/41 66/162/41 68/163/41 67/164/41
f 73/165/42 74/166/42 76/167/42 75/168/42
f 75/169/43 79/170/43 77/171/43 73/172/43
f 80/173/44 76/174/44 74/175/44 78/176/44
f 67/177/45 68/178/45 72/179/45 71/180/45
f 70/181/46 66/182/46 65/183/46 69/184/46
f 67/185/47 71/186/47 69/187/47 65/188/47
f 72/189/48 68/190/48 66/191/48 70/192/48
f 75/193/49 76/194/49 80/195/49 79/196/49
f 78/197/50 74/198/50 73/199/50 77/200/50
o Frond.043_Cube.005
v -0.040718 -2.286876 1.547159
v -0.781013 -1.729748 1.392925
v -0.040469 -2.287930 1.544816
v -0.780764 -1.730802 1.390582
v 1.934460 0.134650 0.666958
v 1.194165 0.691778 0.512724
v 1.934710 0.133596 0.664615
v 1.194414 0.690724 0.510381
v -0.410211 -2.249859 0.728706
v -0.741929 -1.746392 1.446741
v -0.412153 -2.248603 0.727537
v -0.743871 -1.745136 1.445573
v 1.610636 0.181446 -0.009350
v 1.278917 0.684913 0.708685
v 1.608694 0.182702 -0.010518
v 1.276976 0.686169 0.707517
vt 0.000000 0.125000
vt 0.250000 0.125000
vt 0.125000 0.375000
vt 0.000000 0.375000
vt 0.000000 0.000000
vt 0.250000 0.000000
vt 0.250000 0.250000
vt 0.000000 0.250000
vt 0.125000 0.500000
vt 0.250000 0.625000
vt 0.375000 0.750000
vt 0.125000 0.750000
vt 0.000000 0.000000
vt 0.250000 0.000000
vt 0.250000 0.250000
vt 0.000000 0.250000
vt 0.645620 0.754914
vt 0.648866 1.000000
vt 0.000000 0.998532
vt 0.000561 0.750271
vt 0.000000 1.000000
vt 0.611976 0.999594
vt 0.613081 0.762562
vt 0.000000 0.762562
vt 0.125000 0.500000
vt 0.250000 0.625000
vt 0.375000 0.750000
vt 0.125000 0.750000
vt 0.000000 0.000000
vt 0.250000 0.000000
vt 0.250000 0.250000
vt 0.000000 0.250000
vt 0.612438 0.761118
vt 0.613316 1.000000
vt 0.015625 1.000000
vt 0.015625 0.762856
vt 0.000000 1.000000
vt 0.611976 0.999594
vt 0.613081 0.762562
vt 0.000000 0.762562
vn -0.6143 -0.7419 0.2686
vn -0.6236 -0.7457 0.2347
vn 0.2275 -0.4511 -0.8630
vn -0.2275 0.4511 0.8630
vn -0.0383 -0.3136 -0.9488
vn 0.0383 0.3136 0.9488
vn 0.7878 -0.5261 0.3204
vn -0.7878 0.5261 -0.3205
vn -0.6956 0.3963 -0.5992
vn 0.6956 -0.3963 0.5992
usemtl Palm_Frond
s off
f 81/201/51 82/202/51 84/203/51 83/204/51
f 89/205/52 90/206/52 92/207/52 91/208/52
f 91/209/53 95/210/53 93/211/53 89/212/53
f 96/213/54 92/214/54 90/215/54 94/216/54
f 83/217/55 84/218/55 88/219/55 87/220/55
f 86/221/56 82/222/56 81/223/56 85/224/56
f 83/225/57 87/226/57 85/227/57 81/228/57
f 88/229/58 84/230/58 82/231/58 86/232/58
f 91/233/59 92/234/59 96/235/59 95/236/59
f 94/237/60 90/238/60 89/239/60 93/240/60
o Frond.044_Cube.004
v 1.255722 0.570352 0.498379
o Frond.045_Cube.006
v 0.802397 2.644771 1.813694
v 1.103601 2.957702 0.837727
v 0.799501 2.644337 1.812458
v 1.100705 2.957268 0.836491
v 1.496311 -0.094374 1.058590
v 1.797515 0.218557 0.082624
v 1.493416 -0.094809 1.057354
v 1.794620 0.218123 0.081388
v 0.106360 2.688551 0.826563
v 1.138405 2.948926 0.921248
v 0.106308 2.689239 0.823464
v 1.138353 2.949614 0.918149
v 0.933796 -0.050198 0.220514
v 1.965840 0.210177 0.315199
v 0.933744 -0.049510 0.217415
v 1.965788 0.210865 0.312100
vt 0.000000 0.125000
vt 0.250000 0.125000
vt 0.125000 0.375000
vt 0.000000 0.375000
vt 0.000000 0.000000
vt 0.250000 0.000000
vt 0.250000 0.250000
vt 0.000000 0.250000
vt 0.125000 0.500000
vt 0.250000 0.625000
vt 0.375000 0.750000
vt 0.125000 0.750000
vt 0.000000 0.000000
vt 0.250000 0.000000
vt 0.250000 0.250000
vt 0.000000 0.250000
vt 0.645620 0.754914
vt 0.648866 1.000000
vt 0.000000 0.998532
vt 0.000561 0.750271
vt 0.000000 1.000000
vt 0.611976 0.999594
vt 0.613081 0.762562
vt 0.000000 0.762562
vt 0.125000 0.500000
vt 0.250000 0.625000
vt 0.375000 0.750000
vt 0.125000 0.750000
vt 0.000000 0.000000
vt 0.250000 0.000000
vt 0.250000 0.250000
vt 0.000000 0.250000
vt 0.612438 0.761118
vt 0.613316 1.000000
vt 0.015625 1.000000
vt 0.015625 0.762856
vt 0.000000 1.000000
vt 0.611976 0.999594
vt 0.613081 0.762562
vt 0.000000 0.762562
vn -0.2390 0.9437 0.2288
vn -0.2574 0.9424 0.2134
vn -0.9590 -0.2796 -0.0459
vn 0.9590 0.2796 0.0459
vn -0.9316 -0.1440 -0.3337
vn 0.9316 0.1440 0.3337
vn -0.3291 -0.3275 0.8857
vn 0.3290 0.3275 -0.8857
vn 0.0325 0.2253 -0.9737
vn -0.0325 -0.2253 0.9737
usemtl Palm_Frond
s off
f 98/241/61 99/242/61 101/243/61 100/244/61
f 106/245/62 107/246/62 109/247/62 108/248/62
f 108/249/63 112/250/63 110/251/63 106/252/63
f 113/253/64 109/254/64 107/255/64 111/256/64
f 100/257/65 101/258/65 105/259/65 104/260/65
f 103/261/66 99/262/66 98/263/66 102/264/66
f 100/265/67 104/266/67 102/267/67 98/268/67
f 105/269/68 101/270/68 99/271/68 103/272/68
f 108/273/69 109/274/69 113/275/69 112/276/69
f 111/277/70 107/278/70 106/279/70 110/280/70
