# Made in Blockbench 4.8.3
mtllib lapis_five_arch_top.mtl

o cube
v 0.11751676854554427 0.4728840162830412 1.012499985098839
v 0.11751676854554427 0.4728840162830412 -0.01250001490116126
v 0.3563363590761308 0.39895700377203 1.012499985098839
v 0.3563363590761308 0.39895700377203 -0.01250001490116126
v 0.08055326229003867 0.3534742210177484 1.012499985098839
v 0.08055326229003867 0.3534742210177484 -0.01250001490116126
v 0.3193728528206252 0.2795472085067372 1.012499985098839
v 0.3193728528206252 0.2795472085067372 -0.01250001490116126
v 0.36781230112714125 0.39478010245530015 1.012499985098839
v 0.36781230112714125 0.39478010245530015 -0.01250001490116126
v 0.5982780890242649 0.29790120584227253 1.012499985098839
v 0.5982780890242649 0.29790120584227253 -0.01250001490116126
v 0.31937285282062655 0.2795472085067381 1.012499985098839
v 0.31937285282062655 0.2795472085067381 -0.01250001490116126
v 0.5498386407177511 0.18266831189371047 1.012499985098839
v 0.5498386407177511 0.18266831189371047 -0.01250001490116126
v 0.6092916668515356 0.292624383502039 1.012499985098839
v 0.6092916668515356 0.292624383502039 -0.01250001490116126
v 0.82920381006819 0.17371833123446834 1.012499985098839
v 0.82920381006819 0.17371833123446834 -0.01250001490116126
v 0.5498386407177511 0.18266831189371047 1.012499985098839
v 0.5498386407177511 0.18266831189371047 -0.01250001490116126
v 0.7697507839344055 0.06376225962614157 1.012499985098839
v 0.7697507839344055 0.06376225962614157 -0.01250001490116126
v 0.8396498968682491 0.16739195619552127 1.012499985098839
v 0.8396498968682491 0.16739195619552127 -0.01250001490116126
v 1.046909290007009 0.027593730327835075 1.012499985098839
v 1.046909290007009 0.027593730327835075 -0.01250001490116126
v 0.7697507839344055 0.06376225962614157 1.012499985098839
v 0.7697507839344055 0.06376225962614157 -0.01250001490116126
v 0.9770101770731658 -0.07603596624154552 1.012499985098839
v 0.9770101770731658 -0.07603596624154552 -0.01250001490116126
v 1.0000000000000004 1 1
v 1.0000000000000004 1 0
v 0.9999999999999996 0.375 1
v 0.9999999999999996 0.375 0
v 0 1 1
v 0 1 0
v -8.881784197001252e-16 0.375 1
v -8.881784197001252e-16 0.375 0
v 0.9999999999999996 0.375 1
v 0.9999999999999996 0.375 0
v 1 0.25 1
v 1 0.25 0
v 0.3749999999999991 0.375 1
v 0.3749999999999991 0.375 0
v 0.37500000000000044 0.2499999999999991 1
v 0.37500000000000044 0.2499999999999991 0
v 1 0.25 1
v 1 0.25 0
v 1 0.125 1
v 1 0.125 0
v 0.6875 0.25 1
v 0.6875 0.25 0
v 0.6875 0.125 1
v 0.6875 0.125 0
v 1 0.125 1
v 1 0.125 0
v 1 -8.881784197001252e-16 1
v 1 -8.881784197001252e-16 0
v 0.875 0.125 1
v 0.875 0.125 0
v 0.875 0 1
v 0.875 0 0
vt 1 0.75
vt 1 1
vt 0 1
vt 0 0.75
vt 1 0.75
vt 1 1
vt 0 1
vt 0 0.75
vt 0.125 0
vt 0.125 1
vt 0 1
vt 0 0
vt 0.125 0
vt 0.125 1
vt 0 1
vt 0 0
vt 0.78125 0.25
vt 0.78125 0.53125
vt 0.25 0.53125
vt 0.25 0.25
vt 0.78125 0.25
vt 0.78125 0.53125
vt 0.25 0.53125
vt 0.25 0.25
vt 1 0.75
vt 1 1
vt 0 1
vt 0 0.75
vt 1 0.75
vt 1 1
vt 0 1
vt 0 0.75
vt 0.125 0
vt 0.125 1
vt 0 1
vt 0 0
vt 0.125 0
vt 0.125 1
vt 0 1
vt 0 0
vt 0.78125 0.25
vt 0.78125 0.53125
vt 0.25 0.53125
vt 0.25 0.25
vt 0.78125 0.25
vt 0.78125 0.53125
vt 0.25 0.53125
vt 0.25 0.25
vt 1 0.75
vt 1 1
vt 0 1
vt 0 0.75
vt 1 0.75
vt 1 1
vt 0 1
vt 0 0.75
vt 0.125 0
vt 0.125 1
vt 0 1
vt 0 0
vt 0.125 0
vt 0.125 1
vt 0 1
vt 0 0
vt 0.78125 0.25
vt 0.78125 0.53125
vt 0.25 0.53125
vt 0.25 0.25
vt 0.78125 0.25
vt 0.78125 0.53125
vt 0.25 0.53125
vt 0.25 0.25
vt 1 0.75
vt 1 1
vt 0 1
vt 0 0.75
vt 1 0.75
vt 1 1
vt 0 1
vt 0 0.75
vt 0.125 0
vt 0.125 1
vt 0 1
vt 0 0
vt 0.125 0
vt 0.125 1
vt 0 1
vt 0 0
vt 0.78125 0.25
vt 0.78125 0.53125
vt 0.25 0.53125
vt 0.25 0.25
vt 0.78125 0.25
vt 0.78125 0.53125
vt 0.25 0.53125
vt 0.25 0.25
vt 1 0.375
vt 1 1
vt 0 1
vt 0 0.375
vt 1 0.375
vt 1 1
vt 0 1
vt 0 0.375
vt 1 0
vt 1 1
vt 0 1
vt 0 0
vt 1 0
vt 1 1
vt 0 1
vt 0 0
vt 1 0.375
vt 1 1
vt 0 1
vt 0 0.375
vt 0 0.625
vt 0 0
vt 1 0
vt 1 0.625
vt 1 0.875
vt 1 1
vt 0 1
vt 0 0.875
vt 1 0.875
vt 1 1
vt 0 1
vt 0 0.875
vt 0.625 0
vt 0.625 1
vt 0 1
vt 0 0
vt 0.625 0
vt 0.625 1
vt 0 1
vt 0 0
vt 0 0.75
vt 0 0.625
vt 0.625 0.625
vt 0.625 0.75
vt 0.375 0.75
vt 0.375 0.625
vt 1 0.625
vt 1 0.75
vt 1 0.875
vt 1 1
vt 0 1
vt 0 0.875
vt 1 0.875
vt 1 1
vt 0 1
vt 0 0.875
vt 0.3125 0
vt 0.3125 1
vt 0 1
vt 0 0
vt 0.3125 0
vt 0.3125 1
vt 0 1
vt 0 0
vt 0 0.875
vt 0 0.75
vt 0.3125 0.75
vt 0.3125 0.875
vt 0.6875 0.875
vt 0.6875 0.75
vt 1 0.75
vt 1 0.875
vt 1 0.875
vt 1 1
vt 0 1
vt 0 0.875
vt 1 0.875
vt 1 1
vt 0 1
vt 0 0.875
vt 0.125 0
vt 0.125 1
vt 0 1
vt 0 0
vt 0.125 0
vt 0.125 1
vt 0 1
vt 0 0
vt 0.125 0.875
vt 0.125 1
vt 0 1
vt 0 0.875
vt 1 0.875
vt 1 1
vt 0.875 1
vt 0.875 0.875
vn 0.29570805004404377 0.9552783621223446 0
vn -0.29570805004404377 -0.9552783621223446 0
vn -0.9552783621223446 0.29570805004404377 0
vn 0.9552783621223446 -0.29570805004404377 0
vn 0 0 1
vn 0 0 -1
vn 0.3875155864521073 0.9218631515884989 0
vn -0.3875155864521073 -0.9218631515884989 0
vn -0.9218631515884974 0.38751558645211054 0
vn 0.9218631515884974 -0.38751558645211054 0
vn 0 0 1
vn 0 0 -1
vn 0.47562420907027847 0.8796485728666148 0
vn -0.47562420907027847 -0.8796485728666148 0
vn -0.8796485728666166 0.47562420907027547 0
vn 0.8796485728666166 -0.47562420907027547 0
vn 0 0 1
vn 0 0 -1
vn 0.559192903470747 0.8290375725550416 0
vn -0.559192903470747 -0.8290375725550416 0
vn -0.8290375725550422 0.5591929034707462 0
vn 0.8290375725550422 -0.5591929034707462 0
vn 0 0 1
vn 0 0 -1
vn 1 -6.106226635438361e-16 0
vn -1 8.881784197001252e-16 0
vn -1.6653345369377348e-16 1 0
vn -7.771561172376096e-16 -1 0
vn 0 0 1
vn 0 0 -1
vn 1 1.5543122344752192e-15 0
vn -1 -2.8310687127941484e-15 0
vn 1.1102230246251563e-15 1 0
vn 4.440892098500626e-16 -1 0
vn 0 0 1
vn 0 0 -1
vn 1 1.5543122344752192e-15 0
vn -1 -4.9404924595819466e-15 0
vn 0 1 0
vn 4.440892098500626e-16 -1 0
vn 0 0 1
vn 0 0 -1
vn 1 -5.551115123125782e-16 0
vn -1 5.551115123125782e-16 0
vn 2.942091015256665e-15 1 0
vn -2.942091015256665e-15 -1 0
vn 0 0 1
vn 0 0 -1
usemtl m_251fc1b2-c543-6222-6a73-773ba2d4a2b8
f 4/1/1 2/2/1 1/3/1 3/4/1
f 7/5/2 5/6/2 6/7/2 8/8/2
f 1/9/3 2/10/3 6/11/3 5/12/3
f 4/13/4 3/14/4 7/15/4 8/16/4
f 3/17/5 1/18/5 5/19/5 7/20/5
f 8/21/6 6/22/6 2/23/6 4/24/6
f 12/25/7 10/26/7 9/27/7 11/28/7
f 15/29/8 13/30/8 14/31/8 16/32/8
f 9/33/9 10/34/9 14/35/9 13/36/9
f 12/37/10 11/38/10 15/39/10 16/40/10
f 11/41/11 9/42/11 13/43/11 15/44/11
f 16/45/12 14/46/12 10/47/12 12/48/12
f 20/49/13 18/50/13 17/51/13 19/52/13
f 23/53/14 21/54/14 22/55/14 24/56/14
f 17/57/15 18/58/15 22/59/15 21/60/15
f 20/61/16 19/62/16 23/63/16 24/64/16
f 19/65/17 17/66/17 21/67/17 23/68/17
f 24/69/18 22/70/18 18/71/18 20/72/18
f 28/73/19 26/74/19 25/75/19 27/76/19
f 31/77/20 29/78/20 30/79/20 32/80/20
f 25/81/21 26/82/21 30/83/21 29/84/21
f 28/85/22 27/86/22 31/87/22 32/88/22
f 27/89/23 25/90/23 29/91/23 31/92/23
f 32/93/24 30/94/24 26/95/24 28/96/24
usemtl m_05d519db-892e-9f81-4888-f719dcdd6fda
f 36/97/25 34/98/25 33/99/25 35/100/25
f 39/101/26 37/102/26 38/103/26 40/104/26
f 33/105/27 34/106/27 38/107/27 37/108/27
f 36/109/28 35/110/28 39/111/28 40/112/28
f 35/113/29 33/114/29 37/115/29 39/116/29
usemtl m_251fc1b2-c543-6222-6a73-773ba2d4a2b8
f 40/117/30 38/118/30 34/119/30 36/120/30
usemtl m_05d519db-892e-9f81-4888-f719dcdd6fda
f 44/121/31 42/122/31 41/123/31 43/124/31
f 47/125/32 45/126/32 46/127/32 48/128/32
f 41/129/33 42/130/33 46/131/33 45/132/33
f 44/133/34 43/134/34 47/135/34 48/136/34
usemtl m_251fc1b2-c543-6222-6a73-773ba2d4a2b8
f 43/137/35 41/138/35 45/139/35 47/140/35
f 48/141/36 46/142/36 42/143/36 44/144/36
usemtl m_05d519db-892e-9f81-4888-f719dcdd6fda
f 52/145/37 50/146/37 49/147/37 51/148/37
f 55/149/38 53/150/38 54/151/38 56/152/38
f 49/153/39 50/154/39 54/155/39 53/156/39
f 52/157/40 51/158/40 55/159/40 56/160/40
usemtl m_251fc1b2-c543-6222-6a73-773ba2d4a2b8
f 51/161/41 49/162/41 53/163/41 55/164/41
f 56/165/42 54/166/42 50/167/42 52/168/42
usemtl m_05d519db-892e-9f81-4888-f719dcdd6fda
f 60/169/43 58/170/43 57/171/43 59/172/43
f 63/173/44 61/174/44 62/175/44 64/176/44
f 57/177/45 58/178/45 62/179/45 61/180/45
f 60/181/46 59/182/46 63/183/46 64/184/46
usemtl m_251fc1b2-c543-6222-6a73-773ba2d4a2b8
f 59/185/47 57/186/47 61/187/47 63/188/47
f 64/189/48 62/190/48 58/191/48 60/192/48