# Made in Blockbench 4.8.3
mtllib lapis_five_arch_mid.mtl

o cube
v 1 1 1
v 1 1 0
v 1 0 1
v 1 0 0
v 0 1 0
v 0 1 1
v 0 0 0
v 0 0 1
vt 0 1
vt 1 1
vt 1 0
vt 0 0
vt 0 1
vt 1 1
vt 1 0
vt 0 0
vt 0 1
vt 1 1
vt 1 0
vt 0 0
vt 0 1
vt 1 1
vt 1 0
vt 0 0
vt 0 1
vt 1 1
vt 1 0
vt 0 0
vt 0 1
vt 1 1
vt 1 0
vt 0 0
vn 0 0 -1
vn 1 0 0
vn 0 0 1
vn -1 0 0
vn 0 1 0
vn 0 -1 0
usemtl m_05d519db-892e-9f81-4888-f719dcdd6fda
f 4/4/1 7/3/1 5/2/1 2/1/1
f 3/8/2 4/7/2 2/6/2 1/5/2
f 8/12/3 3/11/3 1/10/3 6/9/3
f 7/16/4 8/15/4 6/14/4 5/13/4
f 6/20/5 1/19/5 2/18/5 5/17/5
f 7/24/6 4/23/6 3/22/6 8/21/6
o cube
v 2.056688175791752 2.0202781891054284 1.012499985098839
v 2.056688175791752 2.0202781891054284 -0.01250001490116115
v 2.2493164864857 1.8609221916682563 1.012499985098839
v 2.2493164864857 1.8609221916682563 -0.01250001490116115
v 1.9770101770731663 1.9239640337584545 -0.01250001490116115
v 1.9770101770731663 1.9239640337584545 1.012499985098839
v 2.1696384877671138 1.7646080363212824 -0.01250001490116115
v 2.1696384877671138 1.7646080363212824 1.012499985098839
vt 0.25 0.53125
vt 0.78125 0.53125
vt 0.78125 0.25
vt 0.25 0.25
vt 0 1
vt 1 1
vt 1 0.75
vt 0 0.75
vt 0.25 0.53125
vt 0.78125 0.53125
vt 0.78125 0.25
vt 0.25 0.25
vt 0 1
vt 1 1
vt 1 0.75
vt 0 0.75
vt 0 1
vt 0.125 1
vt 0.125 0
vt 0 0
vt 0 1
vt 0.125 1
vt 0.125 0
vt 0 0
vn 0 0 -1
vn 0.6374239897486886 0.7705132427757903 0
vn 0 0 1
vn -0.6374239897486886 -0.7705132427757903 0
vn -0.7705132427757903 0.6374239897486886 0
vn 0.7705132427757903 -0.6374239897486886 0
usemtl m_251fc1b2-c543-6222-6a73-773ba2d4a2b8
f 12/28/7 15/27/7 13/26/7 10/25/7
f 11/32/8 12/31/8 10/30/8 9/29/8
f 16/36/9 11/35/9 9/34/9 14/33/9
f 15/40/10 16/39/10 14/38/10 13/37/10
f 14/44/11 9/43/11 10/42/11 13/41/11
f 15/48/12 12/47/12 11/46/12 16/45/12
o cube
v 2.2583348298341783 1.852687312566732 1.012499985098839
v 2.2583348298341783 1.852687312566732 -0.01250001490116115
v 2.4344933823250776 1.6752946284326025 1.012499985098839
v 2.4344933823250776 1.6752946284326025 -0.01250001490116115
v 2.1696384877671138 1.7646080363212828 -0.01250001490116115
v 2.1696384877671138 1.7646080363212828 1.012499985098839
v 2.3457970402580126 1.5872153521871528 -0.01250001490116115
v 2.3457970402580126 1.5872153521871528 1.012499985098839
vt 0.25 0.53125
vt 0.78125 0.53125
vt 0.78125 0.25
vt 0.25 0.25
vt 0 1
vt 1 1
vt 1 0.75
vt 0 0.75
vt 0.25 0.53125
vt 0.78125 0.53125
vt 0.78125 0.25
vt 0.25 0.25
vt 0 1
vt 1 1
vt 1 0.75
vt 0 0.75
vt 0 1
vt 0.125 1
vt 0.125 0
vt 0 0
vt 0 1
vt 0.125 1
vt 0.125 0
vt 0 0
vn 0 0 -1
vn 0.7095707365365187 0.7046342099635969 0
vn 0 0 1
vn -0.7095707365365187 -0.7046342099635969 0
vn -0.7046342099635969 0.7095707365365187 0
vn 0.7046342099635969 -0.7095707365365187 0
usemtl m_251fc1b2-c543-6222-6a73-773ba2d4a2b8
f 20/52/13 23/51/13 21/50/13 18/49/13
f 19/56/14 20/55/14 18/54/14 17/53/14
f 24/60/15 19/59/15 17/58/15 22/57/15
f 23/64/16 24/63/16 22/62/16 21/61/16
f 22/68/17 17/67/17 18/66/17 21/65/17
f 23/72/18 20/71/18 19/70/18 24/69/18
o cube
v 2.4426651013460354 1.6662190150202587 1.012499985098839
v 2.4426651013460354 1.6662190150202587 -0.01250001490116115
v 2.6006724270122477 1.4724828928442133 1.012499985098839
v 2.6006724270122477 1.4724828928442133 -0.01250001490116115
v 2.345797040258013 1.5872153521871528 -0.01250001490116115
v 2.345797040258013 1.5872153521871528 1.012499985098839
v 2.503804365924225 1.3934792300111072 -0.01250001490116115
v 2.503804365924225 1.3934792300111072 1.012499985098839
vt 0.25 0.53125
vt 0.78125 0.53125
vt 0.78125 0.25
vt 0.25 0.25
vt 0 1
vt 1 1
vt 1 0.75
vt 0 0.75
vt 0.25 0.53125
vt 0.78125 0.53125
vt 0.78125 0.25
vt 0.25 0.25
vt 0 1
vt 1 1
vt 1 0.75
vt 0 0.75
vt 0 1
vt 0.125 1
vt 0.125 0
vt 0 0
vt 0 1
vt 0.125 1
vt 0.125 0
vt 0 0
vn 0 0 -1
vn 0.7749444887041816 0.6320293026648484 0
vn 0 0 1
vn -0.7749444887041816 -0.6320293026648484 0
vn -0.6320293026648484 0.7749444887041816 0
vn 0.6320293026648484 -0.7749444887041816 0
usemtl m_251fc1b2-c543-6222-6a73-773ba2d4a2b8
f 28/76/19 31/75/19 29/74/19 26/73/19
f 27/80/20 28/79/20 26/78/20 25/77/20
f 32/84/21 27/83/21 25/82/21 30/81/21
f 31/88/22 32/87/22 30/86/22 29/85/22
f 30/92/23 25/91/23 26/90/23 29/89/23
f 31/96/24 28/95/24 27/94/24 32/93/24
o cube
v 2.6079195210129877 1.462653173666525 1.012499985098839
v 2.6079195210129877 1.462653173666525 -0.01250001490116115
v 2.746267408323823 1.2544228634889998 1.012499985098839
v 2.746267408323823 1.2544228634889998 -0.01250001490116115
v 2.503804365924225 1.3934792300111072 -0.01250001490116115
v 2.503804365924225 1.3934792300111072 1.012499985098839
v 2.6421522532350608 1.185248919833582 -0.01250001490116115
v 2.6421522532350608 1.185248919833582 1.012499985098839
vt 0.25 0.53125
vt 0.78125 0.53125
vt 0.78125 0.25
vt 0.25 0.25
vt 0 1
vt 1 1
vt 1 0.75
vt 0 0.75
vt 0.25 0.53125
vt 0.78125 0.53125
vt 0.78125 0.25
vt 0.25 0.25
vt 0 1
vt 1 1
vt 1 0.75
vt 0 0.75
vt 0 1
vt 0.125 1
vt 0.125 0
vt 0 0
vt 0 1
vt 0.125 1
vt 0.125 0
vt 0 0
vn 0 0 -1
vn 0.8329212407101004 0.5533915492433427 0
vn 0 0 1
vn -0.8329212407101004 -0.5533915492433427 0
vn -0.5533915492433427 0.8329212407101004 0
vn 0.5533915492433427 -0.8329212407101004 0
usemtl m_251fc1b2-c543-6222-6a73-773ba2d4a2b8
f 36/100/25 39/99/25 37/98/25 34/97/25
f 35/104/26 36/103/26 34/102/26 33/101/26
f 40/108/27 35/107/27 33/106/27 38/105/27
f 39/112/28 40/111/28 38/110/28 37/109/28
f 38/116/29 33/115/29 34/114/29 37/113/29
f 39/120/30 36/119/30 35/118/30 40/117/30
o cube
v 2.7525207023424265 1.243932865181819 1.012499985098839
v 2.7525207023424265 1.243932865181819 -0.01250001490116115
v 2.8698885930388993 1.0231959669670871 1.012499985098839
v 2.8698885930388993 1.0231959669670871 -0.01250001490116115
v 2.6421522532350608 1.1852489198335825 -0.01250001490116115
v 2.6421522532350608 1.1852489198335825 1.012499985098839
v 2.759520143931533 0.9645120216188507 -0.01250001490116115
v 2.759520143931533 0.9645120216188507 1.012499985098839
vt 0.25 0.53125
vt 0.78125 0.53125
vt 0.78125 0.25
vt 0.25 0.25
vt 0 1
vt 1 1
vt 1 0.75
vt 0 0.75
vt 0.25 0.53125
vt 0.78125 0.53125
vt 0.78125 0.25
vt 0.25 0.25
vt 0 1
vt 1 1
vt 1 0.75
vt 0 0.75
vt 0 1
vt 0.125 1
vt 0.125 0
vt 0 0
vt 0 1
vt 0.125 1
vt 0.125 0
vt 0 0
vn 0 0 -1
vn 0.882947592858927 0.46947156278589075 0
vn 0 0 1
vn -0.882947592858927 -0.46947156278589075 0
vn -0.46947156278589075 0.882947592858927 0
vn 0.46947156278589075 -0.882947592858927 0
usemtl m_251fc1b2-c543-6222-6a73-773ba2d4a2b8
f 44/124/31 47/123/31 45/122/31 42/121/31
f 43/128/32 44/127/32 42/126/32 41/125/32
f 48/132/33 43/131/33 41/130/33 46/129/33
f 47/136/34 48/135/34 46/134/34 45/133/34
f 46/140/35 41/139/35 42/138/35 45/137/35
f 47/144/36 44/143/36 43/142/36 48/141/36
o cube
v 3 2 1
v 3 2 0
v 3 1.8125 1
v 3 1.8125 0
v 2.125 2 0
v 2.125 2 1
v 2.125 1.8125 0
v 2.125 1.8125 1
vt 0.125 0
vt 1 0
vt 1 0.1875
vt 0.125 0.1875
vt 0 1
vt 1 1
vt 1 0.8125
vt 0 0.8125
vt 0.125 0
vt 1 0
vt 1 0.1875
vt 0.125 0.1875
vt 0 1
vt 1 1
vt 1 0.8125
vt 0 0.8125
vt 0 1
vt 0.875 1
vt 0.875 0
vt 0 0
vt 0 1
vt 0.875 1
vt 0.875 0
vt 0 0
vn 0 0 -1
vn 1 0 0
vn 0 0 1
vn -1 0 0
vn 0 1 0
vn 0 -1 0
usemtl m_251fc1b2-c543-6222-6a73-773ba2d4a2b8
f 52/148/37 55/147/37 53/146/37 50/145/37
usemtl m_05d519db-892e-9f81-4888-f719dcdd6fda
f 51/152/38 52/151/38 50/150/38 49/149/38
usemtl m_251fc1b2-c543-6222-6a73-773ba2d4a2b8
f 56/156/39 51/155/39 49/154/39 54/153/39
usemtl m_05d519db-892e-9f81-4888-f719dcdd6fda
f 55/160/40 56/159/40 54/158/40 53/157/40
f 54/164/41 49/163/41 50/162/41 53/161/41
f 55/168/42 52/167/42 51/166/42 56/165/42
o cube
v 3 1.8125 1
v 3 1.8125 0
v 3 1.625 1
v 3 1.625 0
v 2.3125 1.8125 0
v 2.3125 1.8125 1
v 2.3125 1.625 0
v 2.3125 1.625 1
vt 0 0.1875
vt 0.6875 0.1875
vt 0.6875 0.375
vt 0 0.375
vt 0 1
vt 1 1
vt 1 0.8125
vt 0 0.8125
vt 0.3125 0.1875
vt 1 0.1875
vt 1 0.375
vt 0.3125 0.375
vt 0 1
vt 1 1
vt 1 0.8125
vt 0 0.8125
vt 0 1
vt 0.6875 1
vt 0.6875 0
vt 0 0
vt 0 1
vt 0.6875 1
vt 0.6875 0
vt 0 0
vn 0 0 -1
vn 1 0 0
vn 0 0 1
vn -1 0 0
vn 0 1 0
vn 0 -1 0
usemtl m_251fc1b2-c543-6222-6a73-773ba2d4a2b8
f 60/172/43 63/171/43 61/170/43 58/169/43
usemtl m_05d519db-892e-9f81-4888-f719dcdd6fda
f 59/176/44 60/175/44 58/174/44 57/173/44
usemtl m_251fc1b2-c543-6222-6a73-773ba2d4a2b8
f 64/180/45 59/179/45 57/178/45 62/177/45
usemtl m_05d519db-892e-9f81-4888-f719dcdd6fda
f 63/184/46 64/183/46 62/182/46 61/181/46
f 62/188/47 57/187/47 58/186/47 61/185/47
f 63/192/48 60/191/48 59/190/48 64/189/48
o cube
v 3 1.625 1
v 3 1.625 0
v 3 1.4374999999999998 1
v 3 1.4374999999999998 0
v 2.5 1.625 0
v 2.5 1.625 1
v 2.5 1.4374999999999998 0
v 2.5 1.4374999999999998 1
vt 0 0.375
vt 0.5 0.375
vt 0.5 0.5625
vt 0 0.5625
vt 0 1
vt 1 1
vt 1 0.8125
vt 0 0.8125
vt 0 0.375
vt 0.5 0.375
vt 0.5 0.5625
vt 0 0.5625
vt 0 1
vt 1 1
vt 1 0.8125
vt 0 0.8125
vt 0 1
vt 0.5 1
vt 0.5 0
vt 0 0
vt 0 1
vt 0.5 1
vt 0.5 0
vt 0 0
vn 0 0 -1
vn 1 0 0
vn 0 0 1
vn -1 0 0
vn 0 1 0
vn 0 -1 0
usemtl m_251fc1b2-c543-6222-6a73-773ba2d4a2b8
f 68/196/49 71/195/49 69/194/49 66/193/49
usemtl m_05d519db-892e-9f81-4888-f719dcdd6fda
f 67/200/50 68/199/50 66/198/50 65/197/50
usemtl m_251fc1b2-c543-6222-6a73-773ba2d4a2b8
f 72/204/51 67/203/51 65/202/51 70/201/51
usemtl m_05d519db-892e-9f81-4888-f719dcdd6fda
f 71/208/52 72/207/52 70/206/52 69/205/52
f 70/212/53 65/211/53 66/210/53 69/209/53
f 71/216/54 68/215/54 67/214/54 72/213/54
o cube
v 3 1.4374999999999998 1
v 3 1.4374999999999998 0
v 3 1.2499999999999998 1
v 3 1.2499999999999998 0
v 2.625 1.4374999999999998 0
v 2.625 1.4374999999999998 1
v 2.625 1.2499999999999998 0
v 2.625 1.2499999999999998 1
vt 0 0.71875
vt 0.375 0.71875
vt 0.375 0.53125
vt 0 0.53125
vt 0 1
vt 1 1
vt 1 0.8125
vt 0 0.8125
vt 0.375 0.71875
vt 0 0.71875
vt 0 0.53125
vt 0.375 0.53125
vt 0 1
vt 1 1
vt 1 0.8125
vt 0 0.8125
vt 0 1
vt 0.375 1
vt 0.375 0
vt 0 0
vt 0 1
vt 0.375 1
vt 0.375 0
vt 0 0
vn 0 0 -1
vn 1 0 0
vn 0 0 1
vn -1 0 0
vn 0 1 0
vn 0 -1 0
usemtl m_251fc1b2-c543-6222-6a73-773ba2d4a2b8
f 76/220/55 79/219/55 77/218/55 74/217/55
usemtl m_05d519db-892e-9f81-4888-f719dcdd6fda
f 75/224/56 76/223/56 74/222/56 73/221/56
usemtl m_251fc1b2-c543-6222-6a73-773ba2d4a2b8
f 80/228/57 75/227/57 73/226/57 78/225/57
usemtl m_05d519db-892e-9f81-4888-f719dcdd6fda
f 79/232/58 80/231/58 78/230/58 77/229/58
f 78/236/59 73/235/59 74/234/59 77/233/59
f 79/240/60 76/239/60 75/238/60 80/237/60
o cube
v 3 1.2499999999999998 1
v 3 1.2499999999999998 0
v 3 0.9999999999999998 1
v 3 0.9999999999999998 0
v 2.75 1.2499999999999998 0
v 2.75 1.2499999999999998 1
v 2.75 0.9999999999999998 0
v 2.75 0.9999999999999998 1
vt 0 1
vt 0.25 1
vt 0.25 0.75
vt 0 0.75
vt 0 1
vt 1 1
vt 1 0.75
vt 0 0.75
vt 0.25 1
vt 0 1
vt 0 0.75
vt 0.25 0.75
vt 0 1
vt 1 1
vt 1 0.75
vt 0 0.75
vt 0 1
vt 0.25 1
vt 0.25 0
vt 0 0
vt 0 1
vt 0.25 1
vt 0.25 0
vt 0 0
vn 0 0 -1
vn 1 0 0
vn 0 0 1
vn -1 0 0
vn 0 1 0
vn 0 -1 0
usemtl m_251fc1b2-c543-6222-6a73-773ba2d4a2b8
f 84/244/61 87/243/61 85/242/61 82/241/61
usemtl m_05d519db-892e-9f81-4888-f719dcdd6fda
f 83/248/62 84/247/62 82/246/62 81/245/62
usemtl m_251fc1b2-c543-6222-6a73-773ba2d4a2b8
f 88/252/63 83/251/63 81/250/63 86/249/63
usemtl m_05d519db-892e-9f81-4888-f719dcdd6fda
f 87/256/64 88/255/64 86/254/64 85/253/64
f 86/260/65 81/259/65 82/258/65 85/257/65
f 87/264/66 84/263/66 83/262/66 88/261/66
o cube
v 0.056688175791751894 1.0202781891054293 1.012499985098839
v 0.056688175791751894 1.0202781891054293 -0.012500014901161371
v 0.2493164864856996 0.8609221916682572 1.012499985098839
v 0.2493164864856996 0.8609221916682572 -0.012500014901161371
v -0.022989822926834158 0.9239640337584554 1.012499985098839
v -0.022989822926834158 0.9239640337584554 -0.012500014901161371
v 0.16963848776711354 0.7646080363212833 1.012499985098839
v 0.16963848776711354 0.7646080363212833 -0.012500014901161371
v 0.25833482983417744 0.8526873125667329 1.012499985098839
v 0.25833482983417744 0.8526873125667329 -0.012500014901161371
v 0.43449338232507695 0.6752946284326029 1.012499985098839
v 0.43449338232507695 0.6752946284326029 -0.012500014901161371
v 0.16963848776711266 0.7646080363212837 1.012499985098839
v 0.16963848776711266 0.7646080363212837 -0.012500014901161371
v 0.34579704025801195 0.5872153521871541 1.012499985098839
v 0.34579704025801195 0.5872153521871541 -0.012500014901161371
v 0.4426651013460352 0.6662190150202592 1.012499985098839
v 0.4426651013460352 0.6662190150202592 -0.012500014901161371
v 0.6006724270122474 0.47248289284421396 1.012499985098839
v 0.6006724270122474 0.47248289284421396 -0.012500014901161371
v 0.34579704025801283 0.5872153521871533 1.012499985098839
v 0.34579704025801283 0.5872153521871533 -0.012500014901161371
v 0.5038043659242246 0.39347923001110807 1.012499985098839
v 0.5038043659242246 0.39347923001110807 -0.012500014901161371
v 0.6079195210129875 0.4626531736665265 1.012499985098839
v 0.6079195210129875 0.4626531736665265 -0.012500014901161371
v 0.746267408323823 0.2544228634890011 1.012499985098839
v 0.746267408323823 0.2544228634890011 -0.012500014901161371
v 0.5038043659242251 0.39347923001110896 1.012499985098839
v 0.5038043659242251 0.39347923001110896 -0.012500014901161371
v 0.6421522532350603 0.18524891983358316 1.012499985098839
v 0.6421522532350603 0.18524891983358316 -0.012500014901161371
v 0.7525207023424261 0.24393286518182 1.012499985098839
v 0.7525207023424261 0.24393286518182 -0.012500014901161371
v 0.8698885930388992 0.02319596696708759 1.012499985098839
v 0.8698885930388992 0.02319596696708759 -0.012500014901161371
v 0.6421522532350601 0.1852489198335836 1.012499985098839
v 0.6421522532350601 0.1852489198335836 -0.012500014901161371
v 0.7595201439315327 -0.035487978381148366 1.012499985098839
v 0.7595201439315327 -0.035487978381148366 -0.012500014901161371
v 1 1.0000000000000004 0
v 1 1.0000000000000004 1
v 0.9999999999999998 0.8125000000000009 1
v 0.9999999999999998 0.8125000000000009 0
v 0.12499999999999978 1.0000000000000009 1
v 0.12499999999999978 1.0000000000000009 0
v 0.12499999999999978 0.8125000000000009 1
v 0.12499999999999978 0.8125000000000009 0
v 0.9999999999999998 0.8125000000000009 1
v 0.9999999999999998 0.8125000000000009 0
v 0.9999999999999998 0.6250000000000009 1
v 0.9999999999999998 0.6250000000000009 0
v 0.3125000000000002 0.8125000000000009 1
v 0.3125000000000002 0.8125000000000009 0
v 0.3124999999999998 0.6250000000000004 1
v 0.3124999999999998 0.6250000000000004 0
v 0.9999999999999998 0.6250000000000009 1
v 0.9999999999999998 0.6250000000000009 0
v 1 0.43750000000000044 1
v 1 0.43750000000000044 0
v 0.4999999999999998 0.6250000000000009 1
v 0.4999999999999998 0.6250000000000009 0
v 0.49999999999999933 0.43750000000000044 1
v 0.49999999999999933 0.43750000000000044 0
v 1 0.43750000000000044 1
v 1 0.43750000000000044 0
v 0.9999999999999999 0.2500000000000009 1
v 0.9999999999999999 0.2500000000000009 0
v 0.6249999999999996 0.43750000000000044 1
v 0.6249999999999996 0.43750000000000044 0
v 0.6249999999999998 0.25000000000000044 1
v 0.6249999999999998 0.25000000000000044 0
v 0.9999999999999999 0.2500000000000009 1
v 0.9999999999999999 0.2500000000000009 0
v 1 8.881784197001252e-16 1
v 1 8.881784197001252e-16 0
v 0.7499999999999998 0.25000000000000044 1
v 0.7499999999999998 0.25000000000000044 0
v 0.7499999999999997 4.440892098500626e-16 1
v 0.7499999999999997 4.440892098500626e-16 0
vt 1 0.75
vt 1 1
vt 0 1
vt 0 0.75
vt 1 0.75
vt 1 1
vt 0 1
vt 0 0.75
vt 0.125 0
vt 0.125 1
vt 0 1
vt 0 0
vt 0.125 0
vt 0.125 1
vt 0 1
vt 0 0
vt 0.78125 0.25
vt 0.78125 0.53125
vt 0.25 0.53125
vt 0.25 0.25
vt 0.78125 0.25
vt 0.78125 0.53125
vt 0.25 0.53125
vt 0.25 0.25
vt 1 0.75
vt 1 1
vt 0 1
vt 0 0.75
vt 1 0.75
vt 1 1
vt 0 1
vt 0 0.75
vt 0.125 0
vt 0.125 1
vt 0 1
vt 0 0
vt 0.125 0
vt 0.125 1
vt 0 1
vt 0 0
vt 0.78125 0.25
vt 0.78125 0.53125
vt 0.25 0.53125
vt 0.25 0.25
vt 0.78125 0.25
vt 0.78125 0.53125
vt 0.25 0.53125
vt 0.25 0.25
vt 1 0.75
vt 1 1
vt 0 1
vt 0 0.75
vt 1 0.75
vt 1 1
vt 0 1
vt 0 0.75
vt 0.125 0
vt 0.125 1
vt 0 1
vt 0 0
vt 0.125 0
vt 0.125 1
vt 0 1
vt 0 0
vt 0.78125 0.25
vt 0.78125 0.53125
vt 0.25 0.53125
vt 0.25 0.25
vt 0.78125 0.25
vt 0.78125 0.53125
vt 0.25 0.53125
vt 0.25 0.25
vt 1 0.75
vt 1 1
vt 0 1
vt 0 0.75
vt 1 0.75
vt 1 1
vt 0 1
vt 0 0.75
vt 0.125 0
vt 0.125 1
vt 0 1
vt 0 0
vt 0.125 0
vt 0.125 1
vt 0 1
vt 0 0
vt 0.78125 0.25
vt 0.78125 0.53125
vt 0.25 0.53125
vt 0.25 0.25
vt 0.78125 0.25
vt 0.78125 0.53125
vt 0.25 0.53125
vt 0.25 0.25
vt 1 0.75
vt 1 1
vt 0 1
vt 0 0.75
vt 1 0.75
vt 1 1
vt 0 1
vt 0 0.75
vt 0.125 0
vt 0.125 1
vt 0 1
vt 0 0
vt 0.125 0
vt 0.125 1
vt 0 1
vt 0 0
vt 0.78125 0.25
vt 0.78125 0.53125
vt 0.25 0.53125
vt 0.25 0.25
vt 0.78125 0.25
vt 0.78125 0.53125
vt 0.25 0.53125
vt 0.25 0.25
vt 1 0.8125
vt 1 1
vt 0 1
vt 0 0.8125
vt 1 0.8125
vt 1 1
vt 0 1
vt 0 0.8125
vt 0.875 0
vt 0.875 1
vt 0 1
vt 0 0
vt 0.875 0
vt 0.875 1
vt 0 1
vt 0 0
vt 1 0.1875
vt 1 0
vt 0.125 0
vt 0.125 0.1875
vt 1 0.1875
vt 1 0
vt 0.125 0
vt 0.125 0.1875
vt 1 0.8125
vt 1 1
vt 0 1
vt 0 0.8125
vt 1 0.8125
vt 1 1
vt 0 1
vt 0 0.8125
vt 0.6875 0
vt 0.6875 1
vt 0 1
vt 0 0
vt 0.6875 0
vt 0.6875 1
vt 0 1
vt 0 0
vt 1 0.375
vt 1 0.1875
vt 0.3125 0.1875
vt 0.3125 0.375
vt 0.6875 0.375
vt 0.6875 0.1875
vt 0 0.1875
vt 0 0.375
vt 1 0.8125
vt 1 1
vt 0 1
vt 0 0.8125
vt 1 0.8125
vt 1 1
vt 0 1
vt 0 0.8125
vt 0.5 0
vt 0.5 1
vt 0 1
vt 0 0
vt 0.5 0
vt 0.5 1
vt 0 1
vt 0 0
vt 0.5 0.5625
vt 0.5 0.375
vt 0 0.375
vt 0 0.5625
vt 0.5 0.5625
vt 0.5 0.375
vt 0 0.375
vt 0 0.5625
vt 1 0.8125
vt 1 1
vt 0 1
vt 0 0.8125
vt 1 0.8125
vt 1 1
vt 0 1
vt 0 0.8125
vt 0.375 0
vt 0.375 1
vt 0 1
vt 0 0
vt 0.375 0
vt 0.375 1
vt 0 1
vt 0 0
vt 0 0.53125
vt 0 0.71875
vt 0.375 0.71875
vt 0.375 0.53125
vt 0.375 0.53125
vt 0.375 0.71875
vt 0 0.71875
vt 0 0.53125
vt 1 0.75
vt 1 1
vt 0 1
vt 0 0.75
vt 1 0.75
vt 1 1
vt 0 1
vt 0 0.75
vt 0.25 0
vt 0.25 1
vt 0 1
vt 0 0
vt 0.25 0
vt 0.25 1
vt 0 1
vt 0 0
vt 0 0.75
vt 0 1
vt 0.25 1
vt 0.25 0.75
vt 0.25 0.75
vt 0.25 1
vt 0 1
vt 0 0.75
vn 0.6374239897486886 0.7705132427757903 0
vn -0.6374239897486886 -0.7705132427757903 0
vn -0.7705132427757903 0.6374239897486886 0
vn 0.7705132427757903 -0.6374239897486886 0
vn 0 0 1
vn 0 0 -1
vn 0.7095707365365189 0.7046342099635966 0
vn -0.7095707365365189 -0.7046342099635966 0
vn -0.7046342099635953 0.7095707365365205 0
vn 0.7046342099635953 -0.7095707365365205 0
vn 0 0 1
vn 0 0 -1
vn 0.774944488704181 0.6320293026648491 0
vn -0.7749444887041824 -0.6320293026648476 0
vn -0.6320293026648498 0.7749444887041806 0
vn 0.6320293026648461 -0.7749444887041834 0
vn 0 0 1
vn 0 0 -1
vn 0.8329212407101012 0.5533915492433414 0
vn -0.8329212407101017 -0.5533915492433411 0
vn -0.553391549243344 0.8329212407100998 0
vn 0.5533915492433411 -0.8329212407101017 0
vn 0 0 1
vn 0 0 -1
vn 0.8829475928589263 0.4694715627858922 0
vn -0.8829475928589274 -0.4694715627858901 0
vn -0.46947156278588986 0.8829475928589275 0
vn 0.4694715627858882 -0.8829475928589285 0
vn 0 0 1
vn 0 0 -1
vn 1 -1.1102230246251568e-16 0
vn -1 1.1102230246251568e-16 0
vn 0 1 0
vn 0 -1 0
vn 0 0 1
vn 0 0 -1
vn 1 -7.216449660063519e-16 0
vn -1 1.6653345369377352e-15 0
vn 1.1102230246251568e-16 1 0
vn -3.3306690738754706e-16 -1 0
vn 0 0 1
vn 0 0 -1
vn 1 7.771561172376096e-16 0
vn -1 1.6653345369377352e-15 0
vn 2.7755575615628914e-16 1 0
vn 5.551115123125783e-17 -1 0
vn 0 0 1
vn 0 0 -1
vn 1 -1.1102230246251568e-16 0
vn -1 1.1102230246251568e-16 0
vn -1.1102230246251568e-16 1 0
vn 1.1102230246251568e-16 -1 0
vn 0 0 1
vn 0 0 -1
vn 1 0 0
vn -1 0 0
vn -1.387778780781446e-15 1 0
vn 1.387778780781446e-15 -1 0
vn 0 0 1
vn 0 0 -1
usemtl m_251fc1b2-c543-6222-6a73-773ba2d4a2b8
f 92/265/67 90/266/67 89/267/67 91/268/67
f 95/269/68 93/270/68 94/271/68 96/272/68
f 89/273/69 90/274/69 94/275/69 93/276/69
f 92/277/70 91/278/70 95/279/70 96/280/70
f 91/281/71 89/282/71 93/283/71 95/284/71
f 96/285/72 94/286/72 90/287/72 92/288/72
f 100/289/73 98/290/73 97/291/73 99/292/73
f 103/293/74 101/294/74 102/295/74 104/296/74
f 97/297/75 98/298/75 102/299/75 101/300/75
f 100/301/76 99/302/76 103/303/76 104/304/76
f 99/305/77 97/306/77 101/307/77 103/308/77
f 104/309/78 102/310/78 98/311/78 100/312/78
f 108/313/79 106/314/79 105/315/79 107/316/79
f 111/317/80 109/318/80 110/319/80 112/320/80
f 105/321/81 106/322/81 110/323/81 109/324/81
f 108/325/82 107/326/82 111/327/82 112/328/82
f 107/329/83 105/330/83 109/331/83 111/332/83
f 112/333/84 110/334/84 106/335/84 108/336/84
f 116/337/85 114/338/85 113/339/85 115/340/85
f 119/341/86 117/342/86 118/343/86 120/344/86
f 113/345/87 114/346/87 118/347/87 117/348/87
f 116/349/88 115/350/88 119/351/88 120/352/88
f 115/353/89 113/354/89 117/355/89 119/356/89
f 120/357/90 118/358/90 114/359/90 116/360/90
f 124/361/91 122/362/91 121/363/91 123/364/91
f 127/365/92 125/366/92 126/367/92 128/368/92
f 121/369/93 122/370/93 126/371/93 125/372/93
f 124/373/94 123/374/94 127/375/94 128/376/94
f 123/377/95 121/378/95 125/379/95 127/380/95
f 128/381/96 126/382/96 122/383/96 124/384/96
usemtl m_05d519db-892e-9f81-4888-f719dcdd6fda
f 132/385/97 129/386/97 130/387/97 131/388/97
f 135/389/98 133/390/98 134/391/98 136/392/98
f 130/393/99 129/394/99 134/395/99 133/396/99
f 132/397/100 131/398/100 135/399/100 136/400/100
usemtl m_251fc1b2-c543-6222-6a73-773ba2d4a2b8
f 131/401/101 130/402/101 133/403/101 135/404/101
f 136/405/102 134/406/102 129/407/102 132/408/102
usemtl m_05d519db-892e-9f81-4888-f719dcdd6fda
f 140/409/103 138/410/103 137/411/103 139/412/103
f 143/413/104 141/414/104 142/415/104 144/416/104
f 137/417/105 138/418/105 142/419/105 141/420/105
f 140/421/106 139/422/106 143/423/106 144/424/106
usemtl m_251fc1b2-c543-6222-6a73-773ba2d4a2b8
f 139/425/107 137/426/107 141/427/107 143/428/107
f 144/429/108 142/430/108 138/431/108 140/432/108
usemtl m_05d519db-892e-9f81-4888-f719dcdd6fda
f 148/433/109 146/434/109 145/435/109 147/436/109
f 151/437/110 149/438/110 150/439/110 152/440/110
f 145/441/111 146/442/111 150/443/111 149/444/111
f 148/445/112 147/446/112 151/447/112 152/448/112
usemtl m_251fc1b2-c543-6222-6a73-773ba2d4a2b8
f 147/449/113 145/450/113 149/451/113 151/452/113
f 152/453/114 150/454/114 146/455/114 148/456/114
usemtl m_05d519db-892e-9f81-4888-f719dcdd6fda
f 156/457/115 154/458/115 153/459/115 155/460/115
f 159/461/116 157/462/116 158/463/116 160/464/116
f 153/465/117 154/466/117 158/467/117 157/468/117
f 156/469/118 155/470/118 159/471/118 160/472/118
usemtl m_251fc1b2-c543-6222-6a73-773ba2d4a2b8
f 155/473/119 153/474/119 157/475/119 159/476/119
f 160/477/120 158/478/120 154/479/120 156/480/120
usemtl m_05d519db-892e-9f81-4888-f719dcdd6fda
f 164/481/121 162/482/121 161/483/121 163/484/121
f 167/485/122 165/486/122 166/487/122 168/488/122
f 161/489/123 162/490/123 166/491/123 165/492/123
f 164/493/124 163/494/124 167/495/124 168/496/124
usemtl m_251fc1b2-c543-6222-6a73-773ba2d4a2b8
f 163/497/125 161/498/125 165/499/125 167/500/125
f 168/501/126 166/502/126 162/503/126 164/504/126