# Made in Blockbench 4.8.3
mtllib narrow_sandstone_single_arch_tall.mtl

o cube
v 1.0560359670105033 0.27383383721008236 1.0124999850988388
v 1.0560359670105033 0.27383383721008236 -0.01250001490116115
v 1.1207407282861335 0.03235238063781498 1.0124999850988388
v 1.1207407282861335 0.03235238063781498 -0.01250001490116115
v 0.9352952387243698 0.24148145657226716 1.0124999850988388
v 0.9352952387243698 0.24148145657226716 -0.01250001490116115
v 1 0 1.0124999850988388
v 1 0 -0.01250001490116115
v 0.5000000000000001 0.29374999999999996 0.8125
v 0.5000000000000001 0.29374999999999996 0.1875
v 0.5 0.17500000000000004 0.8125
v 0.5 0.17500000000000004 0.1875
v 0.43749999999999994 0.29374999999999973 0.8125
v 0.43749999999999994 0.29374999999999973 0.1875
v 0.4375 0.17499999999999982 0.8125
v 0.4375 0.17499999999999982 0.1875
v -0.0025630773867990064 0.5025630773867973 0.15624999999999994
v -0.0025630773868008383 0.5025630773867964 0.84375
v -0.0025630773867980072 0.3775630773867973 0.15624999999999972
v -0.002563077386799839 0.3775630773867964 0.8437499999999998
v 0.12243692261320097 0.5025630773867984 0.15625000000000028
v 0.12243692261319916 0.5025630773867975 0.8437500000000002
v 0.12243692261320199 0.3775630773867982 0.15625000000000006
v 0.12243692261320016 0.3775630773867973 0.84375
v 0.5000000000000001 0.3812500000000001 0.8125
v 0.5000000000000001 0.3812500000000001 0.1875
v 0.5 0.2937500000000002 0.8125
v 0.5 0.2937500000000002 0.1875
v 0.30625 0.3812500000000001 0.8125
v 0.30625 0.3812500000000001 0.1875
v 0.3062500000000001 0.29374999999999996 0.8125
v 0.3062500000000001 0.29374999999999996 0.1875
v 1 1 0.8125
v 1 1 0.1875
v 1.0000000000000002 0 0.8125
v 1.0000000000000002 0 0.1875
v 0.5 1 0.8125
v 0.5 1 0.1875
v 0.5 0 0.8125
v 0.5 0 0.1875
v 0.5 1 0.8125
v 0.5 1 0.1875
v 0.5000000000000001 0.3812500000000001 0.8125
v 0.5000000000000001 0.3812500000000001 0.1875
v 0 1 0.8125
v 0 1 0.1875
v 5.551115123125783e-17 0.3812500000000001 0.8125
v 5.551115123125783e-17 0.3812500000000001 0.1875
v 0.3434997640047043 0.42129487538225496 0.15625000000000006
v 0.34349976400470433 0.42129487538225674 0.84375
v 0.1702723516588382 0.49304801895070915 0.15624999999999983
v 0.17027235165883828 0.49304801895071115 0.8437499999999998
v 0.295664334959068 0.3058099338183442 0.1562500000000004
v 0.295664334959068 0.30580993381834576 0.8437500000000004
v 0.12243692261320194 0.3775630773867982 0.15625000000000017
v 0.12243692261320199 0.37756307738680017 0.8437500000000002
v 0.5166352040798641 0.26161575999418485 0.15625
v 0.5166352040798635 0.2616157599941833 0.84375
v 0.3840526826073865 0.39419828146666247 0.15625000000000017
v 0.3840526826073858 0.3941982814666609 0.8437500000000002
v 0.42824685643154564 0.17322741234586636 0.15624999999999972
v 0.42824685643154503 0.1732274123458648 0.8437499999999998
v 0.295664334959068 0.3058099338183442 0.1562499999999999
v 0.2956643349590674 0.30580993381834265 0.8437499999999998
v 0.6154849415639109 0.0478354290456362 0.15625000000000017
v 0.6154849415639099 0.04783542904563709 0.8437500000000002
v 0.5437317979954565 0.22106284139150256 0.1562499999999999
v 0.5437317979954553 0.22106284139150323 0.8437499999999998
v 0.49999999999999994 0 0.15625
v 0.49999999999999906 6.661338147750939e-16 0.84375
v 0.42824685643154564 0.17322741234586636 0.15624999999999972
v 0.42824685643154464 0.17322741234586703 0.8437499999999998
v 1 0.6375000000000002 1
v 1 0.6375000000000002 0
v 1 0.4500000000000002 1
v 1 0.4500000000000002 0
v 0.8187500000000001 0.6375 1
v 0.8187500000000001 0.6375 0
v 0.8187500000000001 0.4500000000000002 1
v 0.8187500000000001 0.4500000000000002 0
v 1 1 1
v 1 1 0
v 1 0.8250000000000002 1
v 1 0.8250000000000002 0
v 0 1 1
v 0 1 0
v 0 0.8250000000000002 1
v 0 0.8250000000000002 0
v 1 0.8250000000000002 1
v 1 0.8250000000000002 0
v 1 0.7562500000000001 1
v 1 0.7562500000000001 0
v 0.4187500000000001 0.8250000000000002 1
v 0.4187500000000001 0.8250000000000002 0
v 0.41875000000000007 0.7562500000000001 1
v 0.41875000000000007 0.7562500000000001 0
v 1 0.7562499999999999 1
v 1 0.7562499999999999 0
v 1 0.6375000000000002 1
v 1 0.6375000000000002 0
v 0.625 0.7562499999999999 1
v 0.625 0.7562499999999999 0
v 0.6249999999999999 0.6375 1
v 0.6249999999999999 0.6375 0
v 1 0.4500000000000002 1
v 1 0.4500000000000002 0
v 1 0.20625000000000004 1
v 1 0.20625000000000004 0
v 0.9437500000000001 0.44999999999999996 1
v 0.9437500000000001 0.44999999999999996 0
v 0.9437500000000001 0.20625000000000027 1
v 0.9437500000000001 0.20625000000000027 0
v 0.9185484141974247 0.520487807518377 1.0124999850988388
v 0.9185484141974247 0.520487807518377 -0.01250001490116115
v 1.0435484141974247 0.30398145657226716 1.0124999850988388
v 1.0435484141974247 0.30398145657226716 -0.01250001490116115
v 0.8102952387243699 0.4579878075183772 1.0124999850988388
v 0.8102952387243699 0.4579878075183772 -0.01250001490116115
v 0.93529523872437 0.24148145657226716 1.0124999850988388
v 0.93529523872437 0.24148145657226716 -0.01250001490116115
v 0.7219068910760515 0.723152850463332 1.0124999850988388
v 0.7219068910760515 0.723152850463332 -0.01250001490116115
v 0.8986835863726881 0.5463761551666955 1.0124999850988388
v 0.8986835863726881 0.5463761551666955 -0.01250001490116115
v 0.6335185434277333 0.634764502815014 1.0124999850988388
v 0.6335185434277333 0.634764502815014 -0.01250001490116115
v 0.8102952387243699 0.4579878075183772 1.0124999850988388
v 0.8102952387243699 0.4579878075183772 -0.01250001490116115
v 0.47951219248162247 0.8680176782880691 1.0124999850988388
v 0.47951219248162247 0.8680176782880691 -0.01250001490116115
v 0.6960185434277331 0.7430176782880689 1.0124999850988388
v 0.6960185434277331 0.7430176782880689 -0.01250001490116115
v 0.41701219248162275 0.7597645028150142 1.0124999850988388
v 0.41701219248162275 0.7597645028150142 -0.01250001490116115
v 0.6335185434277331 0.6347645028150137 1.0124999850988388
v 0.6335185434277331 0.6347645028150137 -0.01250001490116115
v 0.20788311654716946 0.9452099923767783 1.0124999850988388
v 0.20788311654716946 0.9452099923767783 -0.01250001490116115
v 0.4493645731194377 0.8805052311011479 1.0124999850988388
v 0.4493645731194377 0.8805052311011479 -0.01250001490116115
v 0.17553073590935458 0.8244692640906446 1.0124999850988388
v 0.17553073590935458 0.8244692640906446 -0.01250001490116115
v 0.41701219248162275 0.7597645028150142 1.0124999850988388
v 0.41701219248162275 0.7597645028150142 -0.01250001490116115
v 0.0005307359093547626 0.9494692640906446 1.0124999850988388
v 0.0005307359093547626 0.9494692640906446 -0.01250001490116115
v 0.17553073590935458 0.9494692640906446 1.0124999850988388
v 0.17553073590935458 0.9494692640906446 -0.01250001490116115
v 0.000530735909354707 0.8244692640906446 1.0124999850988388
v 0.000530735909354707 0.8244692640906446 -0.01250001490116115
v 0.17553073590935458 0.8244692640906446 1.0124999850988388
v 0.17553073590935458 0.8244692640906446 -0.01250001490116115
vt 1 0.75
vt 1 1
vt 0 1
vt 0 0.75
vt 1 0.75
vt 1 1
vt 0 1
vt 0 0.75
vt 0.125 0
vt 0.125 1
vt 0 1
vt 0 0
vt 0.125 0
vt 0.125 1
vt 0 1
vt 0 0
vt 0.75 0.46875
vt 0.75 0.75
vt 0.21875 0.75
vt 0.21875 0.46875
vt 0.75 0.46875
vt 0.75 0.75
vt 0.21875 0.75
vt 0.21875 0.46875
vt 0.625 0.8812500000000001
vt 0.625 1
vt 0 1
vt 0 0.8812500000000001
vt 0.625 0.8812500000000001
vt 0.625 1
vt 0 1
vt 0 0.8812500000000001
vt 0.0625 0.375
vt 0.0625 1
vt 0 1
vt 0 0.375
vt 0.0625 0.375
vt 0.0625 1
vt 0 1
vt 0 0.375
vt 0.0625 0.8812500000000001
vt 0.0625 1
vt 0 1
vt 0 0.8812500000000001
vt 0.0625 0.8812500000000001
vt 0.0625 1
vt 0 1
vt 0 0.8812500000000001
vt 1 0.21875
vt 1 0.34375
vt 0 0.34375
vt 0 0.21875
vt 0.6875 0.875
vt 0.6875 1
vt 0 1
vt 0 0.875
vt 0.125 0.3125
vt 0.125 1
vt 0 1
vt 0 0.3125
vt 0.125 0.3125
vt 0.125 1
vt 0 1
vt 0 0.3125
vt 0.5 0.46875
vt 0.5 0.75
vt 0.21875 0.75
vt 0.21875 0.46875
vt 0.5 0.46875
vt 0.5 0.75
vt 0.21875 0.75
vt 0.21875 0.46875
vt 0.625 0.9125000000000001
vt 0.625 1
vt 0 1
vt 0 0.9125000000000001
vt 0.625 0.9125000000000001
vt 0.625 1
vt 0 1
vt 0 0.9125000000000001
vt 0.19374999999999998 0.375
vt 0.19374999999999998 1
vt 0 1
vt 0 0.375
vt 0.19374999999999998 0.375
vt 0.19374999999999998 1
vt 0 1
vt 0 0.375
vt 0.50625 0.3187500000000001
vt 0.50625 0.40625
vt 0.3125 0.40625
vt 0.3125 0.3187500000000001
vt 0.69375 0.3187500000000001
vt 0.69375 0.40625
vt 0.5 0.40625
vt 0.5 0.3187500000000001
vt 0.625 0
vt 0.625 1
vt 0 1
vt 0 0
vt 0.625 0
vt 0.625 1
vt 0 1
vt 0 0
vt 0.5 0.375
vt 0.5 1
vt 0 1
vt 0 0.375
vt 0.5 0.375
vt 0.5 1
vt 0 1
vt 0 0.375
vt 0.5 0
vt 0.5 1
vt 0 1
vt 0 0
vt 0.5 0
vt 0.5 1
vt 0 1
vt 0 0
vt 0.625 0.3812500000000001
vt 0.625 1
vt 0 1
vt 0 0.3812500000000001
vt 0.625 0.3812500000000001
vt 0.625 1
vt 0 1
vt 0 0.3812500000000001
vt 0.5 0.375
vt 0.5 1
vt 0 1
vt 0 0.375
vt 0.5 0.375
vt 0.5 1
vt 0 1
vt 0 0.375
vt 0.5 0.3812500000000001
vt 0.5 1
vt 0 1
vt 0 0.3812500000000001
vt 0.5 0.3812500000000001
vt 0.5 1
vt 0 1
vt 0 0.3812500000000001
vt 1 0.21875000000000022
vt 1 0.5
vt 0 0.5
vt 0 0.21875000000000022
vt 0.6875 0.8125000000000002
vt 0.6875 1
vt 0 1
vt 0 0.8125000000000002
vt 0.125 0.3125
vt 0.125 1
vt 0 1
vt 0 0.3125
vt 0.125 0.3125
vt 0.125 1
vt 0 1
vt 0 0.3125
vt 0.75 0.4687500000000002
vt 0.75 0.75
vt 0.21875 0.75
vt 0.21875 0.4687500000000002
vt 0.75 0.4687500000000002
vt 0.75 0.75
vt 0.21875 0.75
vt 0.21875 0.4687500000000002
vt 1 0.21875
vt 1 0.5
vt 0 0.5
vt 0 0.21875
vt 0.6875 0.8125
vt 0.6875 1
vt 0 1
vt 0 0.8125
vt 0.125 0.3125
vt 0.125 1
vt 0 1
vt 0 0.3125
vt 0.125 0.3125
vt 0.125 1
vt 0 1
vt 0 0.3125
vt 0.75 0.46875
vt 0.75 0.75
vt 0.21875 0.75
vt 0.21875 0.46875
vt 0.75 0.46875
vt 0.75 0.75
vt 0.21875 0.75
vt 0.21875 0.46875
vt 1 0.21875
vt 1 0.5
vt 0 0.5
vt 0 0.21875
vt 0.6875 0.8125
vt 0.6875 1
vt 0 1
vt 0 0.8125
vt 0.125 0.3125
vt 0.125 1
vt 0 1
vt 0 0.3125
vt 0.125 0.3125
vt 0.125 1
vt 0 1
vt 0 0.3125
vt 0.75 0.46875
vt 0.75 0.75
vt 0.21875 0.75
vt 0.21875 0.46875
vt 0.75 0.46875
vt 0.75 0.75
vt 0.21875 0.75
vt 0.21875 0.46875
vt 1 0.9312499999999999
vt 1 1
vt 0 1
vt 0 0.9312499999999999
vt 1 0.9312499999999999
vt 1 1
vt 0 1
vt 0 0.9312499999999999
vt 0.58125 0
vt 0.58125 1
vt 0 1
vt 0 0
vt 0.58125 0
vt 0.58125 1
vt 0 1
vt 0 0
vt 1 0.4624999999999999
vt 1 0.65625
vt 0.825 0.65625
vt 0.825 0.4624999999999999
vt 0.17500000000000004 0.4624999999999999
vt 0.17500000000000004 0.65625
vt 0 0.65625
vt 0 0.4624999999999999
vt 1 0.825
vt 1 1
vt 0 1
vt 0 0.825
vt 1 0.825
vt 1 1
vt 0 1
vt 0 0.825
vt 1 0
vt 1 1
vt 0 1
vt 0 0
vt 1 0
vt 1 1
vt 0 1
vt 0 0
vt 1 0.825
vt 1 1
vt 0 1
vt 0 0.825
vt 1 0.825
vt 1 1
vt 0 1
vt 0 0.825
vt 1 0.9312499999999999
vt 1 1
vt 0 1
vt 0 0.9312499999999999
vt 1 0.9312499999999999
vt 1 1
vt 0 1
vt 0 0.9312499999999999
vt 0.58125 0
vt 0.58125 1
vt 0 1
vt 0 0
vt 0.58125 0
vt 0.58125 1
vt 0 1
vt 0 0
vt 1 0.7749999999999999
vt 1 0.84375
vt 0.38749999999999996 0.84375
vt 0.38749999999999996 0.7749999999999999
vt 0.6125 0.7749999999999999
vt 0.6125 0.84375
vt 0 0.84375
vt 0 0.7749999999999999
vt 1 0.9312499999999999
vt 1 1
vt 0 1
vt 0 0.9312499999999999
vt 1 0.9312499999999999
vt 1 1
vt 0 1
vt 0 0.9312499999999999
vt 0.58125 0
vt 0.58125 1
vt 0 1
vt 0 0
vt 0.58125 0
vt 0.58125 1
vt 0 1
vt 0 0
vt 1 0.6187499999999999
vt 1 0.75
vt 0.60625 0.75
vt 0.60625 0.6187499999999999
vt 0.39375000000000004 0.6187499999999999
vt 0.39375000000000004 0.75
vt 0 0.75
vt 0 0.6187499999999999
vt 1 0.9312499999999999
vt 1 1
vt 0 1
vt 0 0.9312499999999999
vt 1 0.9312499999999999
vt 1 1
vt 0 1
vt 0 0.9312499999999999
vt 0.58125 0
vt 0.58125 1
vt 0 1
vt 0 0
vt 0.58125 0
vt 0.58125 1
vt 0 1
vt 0 0
vt 1 0.2437499999999999
vt 1 0.46875
vt 0.9375 0.46875
vt 0.9375 0.2437499999999999
vt 0.050000000000000044 0.2437499999999999
vt 0.050000000000000044 0.46875
vt 0 0.46875
vt 0 0.2437499999999999
vt 1 0.75
vt 1 1
vt 0 1
vt 0 0.75
vt 1 0.75
vt 1 1
vt 0 1
vt 0 0.75
vt 0.125 0
vt 0.125 1
vt 0 1
vt 0 0
vt 0.125 0
vt 0.125 1
vt 0 1
vt 0 0
vt 0.75 0.46875
vt 0.75 0.75
vt 0.21875 0.75
vt 0.21875 0.46875
vt 0.75 0.46875
vt 0.75 0.75
vt 0.21875 0.75
vt 0.21875 0.46875
vt 1 0.75
vt 1 1
vt 0 1
vt 0 0.75
vt 1 0.75
vt 1 1
vt 0 1
vt 0 0.75
vt 0.125 0
vt 0.125 1
vt 0 1
vt 0 0
vt 0.125 0
vt 0.125 1
vt 0 1
vt 0 0
vt 0.75 0.46875
vt 0.75 0.75
vt 0.21875 0.75
vt 0.21875 0.46875
vt 0.75 0.46875
vt 0.75 0.75
vt 0.21875 0.75
vt 0.21875 0.46875
vt 1 0.75
vt 1 1
vt 0 1
vt 0 0.75
vt 1 0.75
vt 1 1
vt 0 1
vt 0 0.75
vt 0.125 0
vt 0.125 1
vt 0 1
vt 0 0
vt 0.125 0
vt 0.125 1
vt 0 1
vt 0 0
vt 0.75 0.46875
vt 0.75 0.75
vt 0.21875 0.75
vt 0.21875 0.46875
vt 0.75 0.46875
vt 0.75 0.75
vt 0.21875 0.75
vt 0.21875 0.46875
vt 1 0.75
vt 1 1
vt 0 1
vt 0 0.75
vt 1 0.75
vt 1 1
vt 0 1
vt 0 0.75
vt 0.125 0
vt 0.125 1
vt 0 1
vt 0 0
vt 0.125 0
vt 0.125 1
vt 0 1
vt 0 0
vt 0.75 0.46875
vt 0.75 0.75
vt 0.21875 0.75
vt 0.21875 0.46875
vt 0.75 0.46875
vt 0.75 0.75
vt 0.21875 0.75
vt 0.21875 0.46875
vt 1 0.75
vt 1 1
vt 0 1
vt 0 0.75
vt 1 0.75
vt 1 1
vt 0 1
vt 0 0.75
vt 0.125 0
vt 0.125 1
vt 0 1
vt 0 0
vt 0.125 0
vt 0.125 1
vt 0 1
vt 0 0
vt 0.75 0.46875
vt 0.75 0.75
vt 0.21875 0.75
vt 0.21875 0.46875
vt 0.75 0.46875
vt 0.75 0.75
vt 0.21875 0.75
vt 0.21875 0.46875
vn 0.9659258262890683 0.25881904510252074 0
vn -0.9659258262890683 -0.25881904510252074 0
vn -0.25881904510252074 0.9659258262890683 0
vn 0.25881904510252074 -0.9659258262890683 0
vn 0 0 1
vn 0 0 -1
vn 1 -9.992007221626409e-16 0
vn -1 -3.885780586188048e-16 0
vn 2.081668171172169e-15 1 0
vn 9.15933995315754e-16 -1 0
vn 0 0 1
vn 0 0 -1
vn -1 -8.132383655379272e-15 -2.6443493859253703e-15
vn 1 8.076872504148014e-15 2.6443493859253707e-15
vn -8.243405957841786e-15 1 1.3762641316687036e-15
vn 8.298917109073045e-15 -1 -1.371039643248989e-15
vn 2.664535259100361e-15 1.7763568394002698e-15 -1
vn -1.7763568394002359e-15 -1.7763568394002627e-15 1
vn 1 -8.049116928532385e-16 0
vn -1 -4.163336342344337e-16 0
vn 6.10622663543836e-16 1 0
vn 3.885780586188048e-16 -1 0
vn 0 0 1
vn 0 0 -1
vn 1 1.1102230246251563e-16 0
vn -1 -2.7755575615628914e-17 0
vn 8.326672684688674e-17 1 0
vn 2.7755575615628914e-17 -1 0
vn 0 0 1
vn 0 0 -1
vn 1 2.2204460492503126e-16 0
vn -1 8.326672684688674e-17 0
vn 8.326672684688674e-17 1 0
vn 2.7755575615628914e-17 -1 0
vn 0 0 1
vn 0 0 -1
vn 0.3826834323650906 0.9238795325112865 -2.5568772688336967e-15
vn -0.3826834323650895 -0.9238795325112871 2.476133776133686e-15
vn 0.9238795325112865 -0.3826834323650905 9.323315715715042e-16
vn -0.9238795325112871 0.3826834323650895 -9.323315715715017e-16
vn 7.441965229521683e-17 -2.9148978111420896e-15 -1
vn 2.6547151390822506e-16 3.735467674321255e-15 1
vn 0.7071067811865472 0.7071067811865479 2.0993308102002957e-15
vn -0.7071067811865476 -0.7071067811865476 -2.2339032980336487e-15
vn 0.7071067811865474 -0.7071067811865477 -1.0322740392437472e-15
vn -0.7071067811865474 0.7071067811865477 8.707870538437245e-16
vn 9.420554752102661e-16 2.1981294421572847e-15 -1
vn -8.373826446313465e-16 -1.6747652892626922e-15 1
vn 0.9238795325112864 0.3826834323650911 7.536059318667734e-16
vn -0.9238795325112868 -0.3826834323650895 -8.747211709167896e-16
vn 0.38268343236509095 -0.9238795325112864 1.7275241063201624e-15
vn -0.3826834323650894 0.923879532511287 -1.449469785207681e-15
vn 1.7973400717744883e-15 -8.577796893267738e-16 -1
vn -2.0943279479629243e-15 4.14310818498662e-16 1
vn 1 -3.3306690738754696e-16 0
vn -1 -8.881784197001252e-16 0
vn -2.7755575615628907e-17 1 0
vn -3.3306690738754696e-16 -1 0
vn 0 0 1
vn 0 0 -1
vn 1 3.608224830031759e-16 0
vn -1 -8.326672684688674e-17 0
vn 8.326672684688674e-17 1 0
vn -8.326672684688674e-17 -1 0
vn 0 0 1
vn 0 0 -1
vn 1 -6.661338147750937e-16 0
vn -1 6.661338147750937e-16 0
vn 8.326672684688674e-17 1 0
vn -8.326672684688674e-17 -1 0
vn 0 0 1
vn 0 0 -1
vn 1 -4.996003610813204e-16 0
vn -1 4.996003610813204e-16 0
vn -2.498001805406602e-16 1 0
vn 2.498001805406602e-16 -1 0
vn 0 0 1
vn 0 0 -1
vn 1 3.3306690738754696e-16 0
vn -1 -8.326672684688674e-17 0
vn -1.3600232051658168e-15 1 0
vn -2.442490654175344e-15 -1 0
vn 0 0 1
vn 0 0 -1
vn 0.8660254037844388 0.4999999999999999 0
vn -0.8660254037844388 -0.49999999999999967 0
vn -0.4999999999999994 0.8660254037844392 0
vn 0.5000000000000009 -0.8660254037844383 0
vn 0 0 1
vn 0 0 -1
vn 0.7071067811865477 0.7071067811865475 0
vn -0.7071067811865477 -0.7071067811865475 0
vn -0.707106781186548 0.7071067811865471 0
vn 0.707106781186548 -0.7071067811865471 0
vn 0 0 1
vn 0 0 -1
vn 0.49999999999999956 0.8660254037844392 0
vn -0.5000000000000001 -0.8660254037844388 0
vn -0.8660254037844399 0.4999999999999979 0
vn 0.8660254037844394 -0.499999999999999 0
vn 0 0 1
vn 0 0 -1
vn 0.25881904510252013 0.9659258262890685 0
vn -0.25881904510252035 -0.9659258262890685 0
vn -0.965925826289069 0.2588190451025189 0
vn 0.9659258262890688 -0.25881904510251963 0
vn 0 0 1
vn 0 0 -1
vn 8.326672684688672e-16 1 0
vn -8.881784197001252e-16 -1 0
vn -1 -8.326672684688674e-17 0
vn 1 -1.3877787807814457e-16 0
vn 0 0 1
vn 0 0 -1
usemtl m_a3edef23-e59f-c963-810f-b10731b80900
f 4/1/1 2/2/1 1/3/1 3/4/1
f 7/5/2 5/6/2 6/7/2 8/8/2
f 1/9/3 2/10/3 6/11/3 5/12/3
f 4/13/4 3/14/4 7/15/4 8/16/4
f 3/17/5 1/18/5 5/19/5 7/20/5
f 8/21/6 6/22/6 2/23/6 4/24/6
usemtl none
f 12/25/7 10/26/7 9/27/7 11/28/7
f 15/29/8 13/30/8 14/31/8 16/32/8
f 9/33/9 10/34/9 14/35/9 13/36/9
f 12/37/10 11/38/10 15/39/10 16/40/10
usemtl m_8b019388-06cf-13bd-1087-66f53a8b6c31
f 11/41/11 9/42/11 13/43/11 15/44/11
f 16/45/12 14/46/12 10/47/12 12/48/12
f 20/49/13 18/50/13 17/51/13 19/52/13
f 23/53/14 21/54/14 22/55/14 24/56/14
f 17/57/15 18/58/15 22/59/15 21/60/15
f 20/61/16 19/62/16 23/63/16 24/64/16
f 19/65/17 17/66/17 21/67/17 23/68/17
f 24/69/18 22/70/18 18/71/18 20/72/18
usemtl none
f 28/73/19 26/74/19 25/75/19 27/76/19
f 31/77/20 29/78/20 30/79/20 32/80/20
f 25/81/21 26/82/21 30/83/21 29/84/21
f 28/85/22 27/86/22 31/87/22 32/88/22
usemtl m_8b019388-06cf-13bd-1087-66f53a8b6c31
f 27/89/23 25/90/23 29/91/23 31/92/23
f 32/93/24 30/94/24 26/95/24 28/96/24
f 36/97/25 34/98/25 33/99/25 35/100/25
usemtl none
f 39/101/26 37/102/26 38/103/26 40/104/26
usemtl m_8b019388-06cf-13bd-1087-66f53a8b6c31
f 33/105/27 34/106/27 38/107/27 37/108/27
f 36/109/28 35/110/28 39/111/28 40/112/28
f 35/113/29 33/114/29 37/115/29 39/116/29
f 40/117/30 38/118/30 34/119/30 36/120/30
usemtl none
f 44/121/31 42/122/31 41/123/31 43/124/31
usemtl m_8b019388-06cf-13bd-1087-66f53a8b6c31
f 47/125/32 45/126/32 46/127/32 48/128/32
f 41/129/33 42/130/33 46/131/33 45/132/33
usemtl none
f 44/133/34 43/134/34 47/135/34 48/136/34
usemtl m_8b019388-06cf-13bd-1087-66f53a8b6c31
f 43/137/35 41/138/35 45/139/35 47/140/35
f 48/141/36 46/142/36 42/143/36 44/144/36
f 52/145/37 50/146/37 49/147/37 51/148/37
f 55/149/38 53/150/38 54/151/38 56/152/38
f 49/153/39 50/154/39 54/155/39 53/156/39
f 52/157/40 51/158/40 55/159/40 56/160/40
f 51/161/41 49/162/41 53/163/41 55/164/41
f 56/165/42 54/166/42 50/167/42 52/168/42
f 60/169/43 58/170/43 57/171/43 59/172/43
f 63/173/44 61/174/44 62/175/44 64/176/44
f 57/177/45 58/178/45 62/179/45 61/180/45
f 60/181/46 59/182/46 63/183/46 64/184/46
f 59/185/47 57/186/47 61/187/47 63/188/47
f 64/189/48 62/190/48 58/191/48 60/192/48
f 68/193/49 66/194/49 65/195/49 67/196/49
f 71/197/50 69/198/50 70/199/50 72/200/50
f 65/201/51 66/202/51 70/203/51 69/204/51
f 68/205/52 67/206/52 71/207/52 72/208/52
f 67/209/53 65/210/53 69/211/53 71/212/53
f 72/213/54 70/214/54 66/215/54 68/216/54
usemtl m_a3edef23-e59f-c963-810f-b10731b80900
f 76/217/55 74/218/55 73/219/55 75/220/55
f 79/221/56 77/222/56 78/223/56 80/224/56
f 73/225/57 74/226/57 78/227/57 77/228/57
f 76/229/58 75/230/58 79/231/58 80/232/58
f 75/233/59 73/234/59 77/235/59 79/236/59
f 80/237/60 78/238/60 74/239/60 76/240/60
f 84/241/61 82/242/61 81/243/61 83/244/61
f 87/245/62 85/246/62 86/247/62 88/248/62
f 81/249/63 82/250/63 86/251/63 85/252/63
f 84/253/64 83/254/64 87/255/64 88/256/64
f 83/257/65 81/258/65 85/259/65 87/260/65
f 88/261/66 86/262/66 82/263/66 84/264/66
f 92/265/67 90/266/67 89/267/67 91/268/67
f 95/269/68 93/270/68 94/271/68 96/272/68
f 89/273/69 90/274/69 94/275/69 93/276/69
f 92/277/70 91/278/70 95/279/70 96/280/70
f 91/281/71 89/282/71 93/283/71 95/284/71
f 96/285/72 94/286/72 90/287/72 92/288/72
f 100/289/73 98/290/73 97/291/73 99/292/73
f 103/293/74 101/294/74 102/295/74 104/296/74
f 97/297/75 98/298/75 102/299/75 101/300/75
f 100/301/76 99/302/76 103/303/76 104/304/76
f 99/305/77 97/306/77 101/307/77 103/308/77
f 104/309/78 102/310/78 98/311/78 100/312/78
f 108/313/79 106/314/79 105/315/79 107/316/79
f 111/317/80 109/318/80 110/319/80 112/320/80
f 105/321/81 106/322/81 110/323/81 109/324/81
f 108/325/82 107/326/82 111/327/82 112/328/82
f 107/329/83 105/330/83 109/331/83 111/332/83
f 112/333/84 110/334/84 106/335/84 108/336/84
f 116/337/85 114/338/85 113/339/85 115/340/85
f 119/341/86 117/342/86 118/343/86 120/344/86
f 113/345/87 114/346/87 118/347/87 117/348/87
f 116/349/88 115/350/88 119/351/88 120/352/88
f 115/353/89 113/354/89 117/355/89 119/356/89
f 120/357/90 118/358/90 114/359/90 116/360/90
f 124/361/91 122/362/91 121/363/91 123/364/91
f 127/365/92 125/366/92 126/367/92 128/368/92
f 121/369/93 122/370/93 126/371/93 125/372/93
f 124/373/94 123/374/94 127/375/94 128/376/94
f 123/377/95 121/378/95 125/379/95 127/380/95
f 128/381/96 126/382/96 122/383/96 124/384/96
f 132/385/97 130/386/97 129/387/97 131/388/97
f 135/389/98 133/390/98 134/391/98 136/392/98
f 129/393/99 130/394/99 134/395/99 133/396/99
f 132/397/100 131/398/100 135/399/100 136/400/100
f 131/401/101 129/402/101 133/403/101 135/404/101
f 136/405/102 134/406/102 130/407/102 132/408/102
f 140/409/103 138/410/103 137/411/103 139/412/103
f 143/413/104 141/414/104 142/415/104 144/416/104
f 137/417/105 138/418/105 142/419/105 141/420/105
f 140/421/106 139/422/106 143/423/106 144/424/106
f 139/425/107 137/426/107 141/427/107 143/428/107
f 144/429/108 142/430/108 138/431/108 140/432/108
f 148/433/109 146/434/109 145/435/109 147/436/109
f 151/437/110 149/438/110 150/439/110 152/440/110
f 145/441/111 146/442/111 150/443/111 149/444/111
f 148/445/112 147/446/112 151/447/112 152/448/112
f 147/449/113 145/450/113 149/451/113 151/452/113
f 152/453/114 150/454/114 146/455/114 148/456/114