# Blender v3.0.0 OBJ File: 'trees.blend'
# www.blender.org
mtllib cypress.mtl
o Leaves.014_Plane.047
v -0.438427 4.616530 -0.324657
v 1.524677 4.616530 -0.324657
v -0.438427 0.564883 0.389758
v 1.524677 0.564883 0.389758
v -0.438427 4.620791 -0.300491
v 1.524677 4.620791 -0.300491
v -0.438427 0.569144 0.413924
v 1.524677 0.569144 0.413924
vt 0.475340 0.999845
vt 0.015625 0.999923
vt 0.015625 0.000077
vt 0.475340 0.000000
vt 0.475340 0.999845
vt 0.475340 0.000000
vt 0.015625 0.000077
vt 0.015625 0.999923
vn 0.0000 -0.1736 -0.9848
vn 0.0000 0.1736 0.9848
vn -1.0000 0.0000 0.0000
vn 0.0000 0.9848 -0.1736
vn 1.0000 0.0000 0.0000
vn 0.0000 -0.9848 0.1736
usemtl Cypress_Leaves.001
s off
f 1/1/1 2/2/1 4/3/1 3/4/1
f 5/5/2 7/6/2 8/7/2 6/8/2
f 1/1/3 3/4/3 7/6/3 5/5/3
f 2/2/4 1/1/4 5/5/4 6/8/4
f 4/3/5 2/2/5 6/8/5 8/7/5
f 3/4/6 4/3/6 8/7/6 7/6/6
o Leaves.015_Plane.048
v 1.524677 4.616530 1.410907
v -0.438427 4.616530 1.410907
v 1.524677 0.564883 0.696492
v -0.438427 0.564883 0.696493
v 1.524677 4.620791 1.386741
v -0.438427 4.620791 1.386741
v 1.524677 0.569144 0.672326
v -0.438427 0.569144 0.672327
vt 0.475340 0.999845
vt 0.015625 0.999923
vt 0.015625 0.000077
vt 0.475340 0.000000
vt 0.475340 0.999845
vt 0.475340 0.000000
vt 0.015625 0.000077
vt 0.015625 0.999923
vn 0.0000 -0.1736 0.9848
vn -0.0000 0.1736 -0.9848
vn 1.0000 0.0000 -0.0000
vn 0.0000 0.9848 0.1736
vn -1.0000 0.0000 0.0000
vn -0.0000 -0.9848 -0.1736
usemtl Cypress_Leaves.001
s off
f 9/9/7 10/10/7 12/11/7 11/12/7
f 13/13/8 15/14/8 16/15/8 14/16/8
f 9/9/9 11/12/9 15/14/9 13/13/9
f 10/10/10 9/9/10 13/13/10 14/16/10
f 12/11/11 10/10/11 14/16/11 16/15/11
f 11/12/12 12/11/12 16/15/12 15/14/12
o Leaves.016_Plane.049
v -0.324657 4.616530 1.524677
v -0.324657 4.616530 -0.438427
v 0.389758 0.564883 1.524677
v 0.389757 0.564883 -0.438427
v -0.270284 4.626117 1.524677
v -0.270284 4.626117 -0.438427
v 0.444131 0.574470 1.524677
v 0.444131 0.574470 -0.438427
vt 0.475340 0.999845
vt 0.015625 0.999923
vt 0.015625 0.000077
vt 0.475340 0.000000
vt 0.475340 0.999845
vt 0.475340 0.000000
vt 0.015625 0.000077
vt 0.015625 0.999923
vn -0.9848 -0.1736 0.0000
vn 0.9848 0.1736 -0.0000
vn -0.0000 -0.0000 1.0000
vn -0.1736 0.9848 0.0000
vn -0.0000 0.0000 -1.0000
vn 0.1736 -0.9848 -0.0000
usemtl Cypress_Leaves.001
s off
f 17/17/13 18/18/13 20/19/13 19/20/13
f 21/21/14 23/22/14 24/23/14 22/24/14
f 17/17/15 19/20/15 23/22/15 21/21/15
f 18/18/16 17/17/16 21/21/16 22/24/16
f 20/19/17 18/18/17 22/24/17 24/23/17
f 19/20/18 20/19/18 24/23/18 23/22/18
o Leaves.017_Plane.050
v 1.410907 4.616530 -0.438427
v 1.410907 4.616530 1.524677
v 0.696492 0.564883 -0.438427
v 0.696493 0.564883 1.524677
v 1.386741 4.620791 -0.438427
v 1.386741 4.620791 1.524677
v 0.672326 0.569144 -0.438427
v 0.672327 0.569144 1.524677
vt 0.475340 0.999845
vt 0.015625 0.999923
vt 0.015625 0.000077
vt 0.475340 0.000000
vt 0.475340 0.999845
vt 0.475340 0.000000
vt 0.015625 0.000077
vt 0.015625 0.999923
vn 0.9848 -0.1736 -0.0000
vn -0.9848 0.1736 0.0000
vn 0.0000 -0.0000 -1.0000
vn 0.1736 0.9848 0.0000
vn 0.0000 0.0000 1.0000
vn -0.1736 -0.9848 0.0000
usemtl Cypress_Leaves.001
s off
f 25/25/19 26/26/19 28/27/19 27/28/19
f 29/29/20 31/30/20 32/31/20 30/32/20
f 25/25/21 27/28/21 31/30/21 29/29/21
f 26/26/22 25/25/22 29/29/22 30/32/22
f 28/27/23 26/26/23 30/32/23 32/31/23
f 27/28/24 28/27/24 32/31/24 31/30/24
o Leaves.018_Plane.051
v -0.340272 6.218241 -0.237879
v 1.426522 6.218241 -0.237879
v -0.340272 2.571758 0.405094
v 1.426522 2.571758 0.405094
v -0.340272 6.222076 -0.216130
v 1.426522 6.222076 -0.216130
v -0.340272 2.575593 0.426844
v 1.426522 2.575593 0.426844
vt 0.475340 0.999845
vt 0.015625 0.999923
vt 0.015625 0.000077
vt 0.475340 0.000000
vt 0.475340 0.999845
vt 0.475340 0.000000
vt 0.015625 0.000077
vt 0.015625 0.999923
vn 0.0000 -0.1736 -0.9848
vn 0.0000 0.1736 0.9848
vn -1.0000 0.0000 0.0000
vn 0.0000 0.9848 -0.1737
vn 1.0000 -0.0000 0.0000
vn 0.0000 -0.9848 0.1737
usemtl Cypress_Leaves.001
s off
f 33/33/25 34/34/25 36/35/25 35/36/25
f 37/37/26 39/38/26 40/39/26 38/40/26
f 33/33/27 35/36/27 39/38/27 37/37/27
f 34/34/28 33/33/28 37/37/28 38/40/28
f 36/35/29 34/34/29 38/40/29 40/39/29
f 35/36/30 36/35/30 40/39/30 39/38/30
o Leaves.019_Plane.052
v 1.426522 6.218241 1.324129
v -0.340272 6.218241 1.324129
v 1.426522 2.571758 0.681156
v -0.340272 2.571758 0.681156
v 1.426522 6.222076 1.302380
v -0.340272 6.222076 1.302380
v 1.426522 2.575593 0.659406
v -0.340272 2.575593 0.659407
vt 0.475340 0.999845
vt 0.015625 0.999923
vt 0.015625 0.000077
vt 0.475340 0.000000
vt 0.475340 0.999845
vt 0.475340 0.000000
vt 0.015625 0.000077
vt 0.015625 0.999923
vn 0.0000 -0.1736 0.9848
vn -0.0000 0.1736 -0.9848
vn 1.0000 0.0000 -0.0000
vn 0.0000 0.9848 0.1737
vn -1.0000 0.0000 0.0000
vn -0.0000 -0.9848 -0.1737
usemtl Cypress_Leaves.001
s off
f 41/41/31 42/42/31 44/43/31 43/44/31
f 45/45/32 47/46/32 48/47/32 46/48/32
f 41/41/33 43/44/33 47/46/33 45/45/33
f 42/42/34 41/41/34 45/45/34 46/48/34
f 44/43/35 42/42/35 46/48/35 48/47/35
f 43/44/36 44/43/36 48/47/36 47/46/36
o Leaves.020_Plane.053
v -0.237879 6.218241 1.426522
v -0.237879 6.218241 -0.340272
v 0.405094 2.571758 1.426522
v 0.405094 2.571758 -0.340272
v -0.216129 6.222076 1.426522
v -0.216130 6.222076 -0.340272
v 0.426844 2.575593 1.426522
v 0.426844 2.575593 -0.340272
vt 0.475340 0.999845
vt 0.015625 0.999923
vt 0.015625 0.000077
vt 0.475340 0.000000
vt 0.475340 0.999845
vt 0.475340 0.000000
vt 0.015625 0.000077
vt 0.015625 0.999923
vn -0.9848 -0.1736 -0.0000
vn 0.9848 0.1736 -0.0000
vn 0.0000 -0.0000 1.0000
vn -0.1737 0.9848 -0.0000
vn -0.0000 0.0000 -1.0000
vn 0.1736 -0.9848 -0.0000
usemtl Cypress_Leaves.001
s off
f 49/49/37 50/50/37 52/51/37 51/52/37
f 53/53/38 55/54/38 56/55/38 54/56/38
f 49/49/39 51/52/39 55/54/39 53/53/39
f 50/50/40 49/49/40 53/53/40 54/56/40
f 52/51/41 50/50/41 54/56/41 56/55/41
f 51/52/42 52/51/42 56/55/42 55/54/42
o Leaves.021_Plane.054
v 1.324129 6.218241 -0.340272
v 1.324129 6.218241 1.426522
v 0.681156 2.571758 -0.340272
v 0.681156 2.571758 1.426522
v 1.302380 6.222076 -0.340272
v 1.302380 6.222076 1.426522
v 0.659406 2.575593 -0.340272
v 0.659407 2.575593 1.426522
vt 0.475340 0.999845
vt 0.015625 0.999923
vt 0.015625 0.000077
vt 0.475340 0.000000
vt 0.475340 0.999845
vt 0.475340 0.000000
vt 0.015625 0.000077
vt 0.015625 0.999923
vn 0.9848 -0.1736 -0.0000
vn -0.9848 0.1736 0.0000
vn 0.0000 -0.0000 -1.0000
vn 0.1737 0.9848 -0.0000
vn 0.0000 0.0000 1.0000
vn -0.1736 -0.9848 0.0000
usemtl Cypress_Leaves.001
s off
f 57/57/43 58/58/43 60/59/43 59/60/43
f 61/61/44 63/62/44 64/63/44 62/64/44
f 57/57/45 59/60/45 63/62/45 61/61/45
f 58/58/46 57/57/46 61/61/46 62/64/46
f 60/59/47 58/58/47 62/64/47 64/63/47
f 59/60/48 60/59/48 64/63/48 63/62/48
o Leaves.022_Plane.055
v -0.259963 7.826323 0.124265
v 1.346213 7.826323 0.124265
v -0.259963 4.473008 0.417643
v 1.346213 4.473008 0.417643
v -0.259963 7.828073 0.144266
v 1.346213 7.828073 0.144266
v -0.259963 4.474758 0.437643
v 1.346213 4.474758 0.437643
vt 0.475340 0.999845
vt 0.015625 0.999923
vt 0.015625 0.000077
vt 0.475340 0.000000
vt 0.475340 0.999845
vt 0.475340 0.000000
vt 0.015625 0.000077
vt 0.015625 0.999923
vn 0.0000 -0.0872 -0.9962
vn 0.0000 0.0872 0.9962
vn -1.0000 0.0000 0.0000
vn 0.0000 0.9962 -0.0872
vn 1.0000 0.0000 0.0000
vn 0.0000 -0.9962 0.0872
usemtl Cypress_Leaves.001
s off
f 65/65/49 66/66/49 68/67/49 67/68/49
f 69/69/50 71/70/50 72/71/50 70/72/50
f 65/65/51 67/68/51 71/70/51 69/69/51
f 66/66/52 65/65/52 69/69/52 70/72/52
f 68/67/53 66/66/53 70/72/53 72/71/53
f 67/68/54 68/67/54 72/71/54 71/70/54
o Leaves.023_Plane.056
v 1.346213 7.826323 0.961984
v -0.259963 7.826323 0.961985
v 1.346213 4.473008 0.668607
v -0.259963 4.473008 0.668608
v 1.346213 7.828073 0.941984
v -0.259963 7.828073 0.941984
v 1.346213 4.474758 0.648607
v -0.259963 4.474758 0.648607
vt 0.475340 0.999845
vt 0.015625 0.999923
vt 0.015625 0.000077
vt 0.475340 0.000000
vt 0.475340 0.999845
vt 0.475340 0.000000
vt 0.015625 0.000077
vt 0.015625 0.999923
vn 0.0000 -0.0872 0.9962
vn -0.0000 0.0872 -0.9962
vn 1.0000 0.0000 -0.0000
vn 0.0000 0.9962 0.0872
vn -1.0000 0.0000 0.0000
vn -0.0000 -0.9962 -0.0872
usemtl Cypress_Leaves.001
s off
f 73/73/55 74/74/55 76/75/55 75/76/55
f 77/77/56 79/78/56 80/79/56 78/80/56
f 73/73/57 75/76/57 79/78/57 77/77/57
f 74/74/58 73/73/58 77/77/58 78/80/58
f 76/75/59 74/74/59 78/80/59 80/79/59
f 75/76/60 76/75/60 80/79/60 79/78/60
o Leaves.024_Plane.057
v 0.124266 7.826323 1.346213
v 0.124266 7.826323 -0.259963
v 0.417643 4.473008 1.346213
v 0.417642 4.473008 -0.259963
v 0.144267 7.828073 1.346213
v 0.144266 7.828073 -0.259963
v 0.437643 4.474758 1.346213
v 0.437643 4.474758 -0.259963
vt 0.475340 0.999845
vt 0.015625 0.999923
vt 0.015625 0.000077
vt 0.475340 0.000000
vt 0.475340 0.999845
vt 0.475340 0.000000
vt 0.015625 0.000077
vt 0.015625 0.999923
vn -0.9962 -0.0872 0.0000
vn 0.9962 0.0872 -0.0000
vn 0.0000 -0.0000 1.0000
vn -0.0872 0.9962 0.0000
vn 0.0000 0.0000 -1.0000
vn 0.0872 -0.9962 0.0000
usemtl Cypress_Leaves.001
s off
f 81/81/61 82/82/61 84/83/61 83/84/61
f 85/85/62 87/86/62 88/87/62 86/88/62
f 81/81/63 83/84/63 87/86/63 85/85/63
f 82/82/64 81/81/64 85/85/64 86/88/64
f 84/83/65 82/82/65 86/88/65 88/87/65
f 83/84/66 84/83/66 88/87/66 87/86/66
o Leaves.025_Plane.058
v 0.961984 7.826323 -0.259963
v 0.961985 7.826323 1.346213
v 0.668607 4.473008 -0.259963
v 0.668608 4.473008 1.346213
v 0.941983 7.828073 -0.259963
v 0.941984 7.828073 1.346213
v 0.648607 4.474758 -0.259963
v 0.648607 4.474758 1.346213
vt 0.475340 0.999845
vt 0.015625 0.999923
vt 0.015625 0.000077
vt 0.475340 0.000000
vt 0.475340 0.999845
vt 0.475340 0.000000
vt 0.015625 0.000077
vt 0.015625 0.999923
vn 0.9962 -0.0872 -0.0000
vn -0.9962 0.0872 0.0000
vn 0.0000 -0.0000 -1.0000
vn 0.0872 0.9962 0.0000
vn 0.0000 0.0000 1.0000
vn -0.0872 -0.9962 -0.0000
usemtl Cypress_Leaves.001
s off
f 89/89/67 90/90/67 92/91/67 91/92/67
f 93/93/68 95/94/68 96/95/68 94/96/68
f 89/89/69 91/92/69 95/94/69 93/93/69
f 90/90/70 89/89/70 93/93/70 94/96/70
f 92/91/71 90/90/71 94/96/71 96/95/71
f 91/92/72 92/91/72 96/95/72 95/94/72
o Leaves.026_Plane.059
v 1.185596 9.172782 0.543125
v -0.099345 9.172782 0.543125
v 1.185596 6.479883 0.543125
v -0.099346 6.479883 0.543125
v 1.185596 9.172782 0.527063
v -0.099345 9.172782 0.527063
v 1.185596 6.479883 0.527063
v -0.099346 6.479883 0.527063
vt 0.475340 0.999845
vt 0.015625 0.999923
vt 0.015625 0.000077
vt 0.475340 0.000000
vt 0.475340 0.999845
vt 0.475340 0.000000
vt 0.015625 0.000077
vt 0.015625 0.999923
vn 0.0000 -0.0000 1.0000
vn -0.0000 0.0000 -1.0000
vn 1.0000 -0.0000 0.0000
vn 0.0000 1.0000 0.0000
vn -1.0000 0.0000 0.0000
vn 0.0000 -1.0000 0.0000
usemtl Cypress_Leaves.001
s off
f 97/97/73 98/98/73 100/99/73 99/100/73
f 101/101/74 103/102/74 104/103/74 102/104/74
f 97/97/75 99/100/75 103/102/75 101/101/75
f 98/98/76 97/97/76 101/101/76 102/104/76
f 100/99/77 98/98/77 102/104/77 104/103/77
f 99/100/78 100/99/78 104/103/78 103/102/78
o Leaves.027_Plane.060
v 0.543125 9.172782 1.185596
v 0.543125 9.172782 -0.099345
v 0.543125 6.479883 1.185596
v 0.543125 6.479883 -0.099346
v 0.559187 9.172782 1.185596
v 0.559187 9.172782 -0.099345
v 0.559187 6.479883 1.185596
v 0.559187 6.479883 -0.099346
vt 0.475340 0.999845
vt 0.015625 0.999923
vt 0.015625 0.000077
vt 0.475340 0.000000
vt 0.475340 0.999845
vt 0.475340 0.000000
vt 0.015625 0.000077
vt 0.015625 0.999923
vn -1.0000 0.0000 0.0000
vn 1.0000 0.0000 0.0000
vn 0.0000 -0.0000 1.0000
vn 0.0000 1.0000 0.0000
vn 0.0000 0.0000 -1.0000
vn 0.0000 -1.0000 0.0000
usemtl Cypress_Leaves.001
s off
f 105/105/79 106/106/79 108/107/79 107/108/79
f 109/109/80 111/110/80 112/111/80 110/112/80
f 105/105/81 107/108/81 111/110/81 109/109/81
f 106/106/82 105/105/82 109/109/82 110/112/82
f 108/107/83 106/106/83 110/112/83 112/111/83
f 107/108/84 108/107/84 112/111/84 111/110/84
o Trunk.002_Cube.006
v 0.441725 0.000000 0.644525
v 0.441725 0.564883 0.644525
v 0.441725 0.000000 0.441725
v 0.441725 0.564883 0.441725
v 0.644525 0.000000 0.644525
v 0.644525 0.564883 0.644525
v 0.644525 0.000000 0.441725
v 0.644525 0.564883 0.441725
vt 0.002702 0.995320
vt 0.002220 -0.004680
vt 1.002220 -0.005163
vt 1.002702 0.994837
vt 0.000839 1.000838
vt -0.000838 0.000839
vt 0.999161 -0.000838
vt 1.000838 0.999161
vt -0.000261 0.999739
vt 0.000261 -0.000261
vt 1.000261 0.000261
vt 0.999739 1.000261
vt -0.000609 0.999391
vt 0.000609 -0.000609
vt 1.000609 0.000609
vt 0.999391 1.000609
vt 0.000000 0.000000
vt 1.000000 0.000000
vt 1.000000 1.000000
vt 0.000000 1.000000
vt 0.000000 0.000000
vt 1.000000 0.000000
vt 1.000000 1.000000
vt 0.000000 1.000000
vn -1.0000 0.0000 0.0000
vn 0.0000 0.0000 -1.0000
vn 1.0000 0.0000 0.0000
vn 0.0000 0.0000 1.0000
vn 0.0000 -1.0000 0.0000
vn 0.0000 1.0000 0.0000
usemtl Wood
s off
f 113/113/85 114/114/85 116/115/85 115/116/85
f 115/117/86 116/118/86 120/119/86 119/120/86
f 119/121/87 120/122/87 118/123/87 117/124/87
f 117/125/88 118/126/88 114/127/88 113/128/88
f 115/129/89 119/130/89 117/131/89 113/132/89
f 120/133/90 116/134/90 114/135/90 118/136/90
o Trunk.003_Cube.007
v 0.441725 0.564883 0.644525
v 0.441725 4.789883 0.644525
v 0.441725 0.564883 0.441725
v 0.441725 4.789883 0.441725
v 0.644525 0.564883 0.644525
v 0.644525 4.789883 0.644525
v 0.644525 0.564883 0.441725
v 0.644525 4.789883 0.441725
vt 0.002702 0.995320
vt 0.002220 -0.004680
vt 1.002220 -0.005163
vt 1.002702 0.994837
vt 0.000839 1.000838
vt -0.000838 0.000839
vt 0.999161 -0.000838
vt 1.000838 0.999161
vt -0.000261 0.999739
vt 0.000261 -0.000261
vt 1.000261 0.000261
vt 0.999739 1.000261
vt -0.000609 0.999391
vt 0.000609 -0.000609
vt 1.000609 0.000609
vt 0.999391 1.000609
vt 0.000000 0.000000
vt 1.000000 0.000000
vt 1.000000 1.000000
vt 0.000000 1.000000
vt 0.000000 0.000000
vt 1.000000 0.000000
vt 1.000000 1.000000
vt 0.000000 1.000000
vn -1.0000 0.0000 0.0000
vn 0.0000 0.0000 -1.0000
vn 1.0000 0.0000 0.0000
vn 0.0000 0.0000 1.0000
vn 0.0000 -1.0000 0.0000
vn 0.0000 1.0000 0.0000
usemtl Wood
s off
f 121/137/91 122/138/91 124/139/91 123/140/91
f 123/141/92 124/142/92 128/143/92 127/144/92
f 127/145/93 128/146/93 126/147/93 125/148/93
f 125/149/94 126/150/94 122/151/94 121/152/94
f 123/153/95 127/154/95 125/155/95 121/156/95
f 128/157/96 124/158/96 122/159/96 126/160/96
