# Blender v3.0.0 OBJ File: 'trees.blend'
# www.blender.org
mtllib cypress.mtl
o Leaves.028_Plane.062
v 0.201267 1.359129 0.234926
v 0.782067 1.359129 0.234926
v 0.201267 0.160417 0.446292
v 0.782067 0.160417 0.446292
v 0.201267 1.360389 0.242076
v 0.782067 1.360389 0.242076
v 0.201267 0.161677 0.453441
v 0.782067 0.161677 0.453441
vt 0.475340 0.999845
vt 0.015625 0.999923
vt 0.015625 0.000077
vt 0.475340 0.000000
vt 0.475340 0.999845
vt 0.475340 0.000000
vt 0.015625 0.000077
vt 0.015625 0.999923
vn 0.0000 -0.1736 -0.9848
vn 0.0000 0.1736 0.9848
vn -1.0000 0.0000 0.0000
vn 0.0000 0.9848 -0.1736
vn 1.0000 0.0000 0.0000
vn 0.0000 -0.9848 0.1736
usemtl Cypress_Leaves.001
s off
f 1/1/1 2/2/1 4/3/1 3/4/1
f 5/5/2 7/6/2 8/7/2 6/8/2
f 1/1/3 3/4/3 7/6/3 5/5/3
f 2/2/4 1/1/4 5/5/4 6/8/4
f 4/3/5 2/2/5 6/8/5 8/7/5
f 3/4/6 4/3/6 8/7/6 7/6/6
o Leaves.029_Plane.063
v 0.782067 1.359129 0.748407
v 0.201267 1.359129 0.748407
v 0.782067 0.160417 0.537042
v 0.201267 0.160417 0.537042
v 0.782067 1.360389 0.741257
v 0.201267 1.360389 0.741257
v 0.782067 0.161677 0.529892
v 0.201267 0.161677 0.529892
vt 0.475340 0.999845
vt 0.015625 0.999923
vt 0.015625 0.000077
vt 0.475340 0.000000
vt 0.475340 0.999845
vt 0.475340 0.000000
vt 0.015625 0.000077
vt 0.015625 0.999923
vn 0.0000 -0.1736 0.9848
vn -0.0000 0.1736 -0.9848
vn 1.0000 0.0000 -0.0000
vn 0.0000 0.9848 0.1736
vn -1.0000 0.0000 0.0000
vn -0.0000 -0.9848 -0.1736
usemtl Cypress_Leaves.001
s off
f 9/9/7 10/10/7 12/11/7 11/12/7
f 13/13/8 15/14/8 16/15/8 14/16/8
f 9/9/9 11/12/9 15/14/9 13/13/9
f 10/10/10 9/9/10 13/13/10 14/16/10
f 12/11/11 10/10/11 14/16/11 16/15/11
f 11/12/12 12/11/12 16/15/12 15/14/12
o Leaves.030_Plane.064
v 0.234926 1.359129 0.782067
v 0.234926 1.359129 0.201267
v 0.446292 0.160417 0.782067
v 0.446292 0.160417 0.201267
v 0.251013 1.361965 0.782067
v 0.251013 1.361965 0.201267
v 0.462378 0.163253 0.782067
v 0.462378 0.163253 0.201267
vt 0.475340 0.999845
vt 0.015625 0.999923
vt 0.015625 0.000077
vt 0.475340 0.000000
vt 0.475340 0.999845
vt 0.475340 0.000000
vt 0.015625 0.000077
vt 0.015625 0.999923
vn -0.9848 -0.1736 0.0000
vn 0.9848 0.1736 -0.0000
vn 0.0000 0.0000 1.0000
vn -0.1737 0.9848 -0.0000
vn 0.0000 0.0000 -1.0000
vn 0.1736 -0.9848 -0.0000
usemtl Cypress_Leaves.001
s off
f 17/17/13 18/18/13 20/19/13 19/20/13
f 21/21/14 23/22/14 24/23/14 22/24/14
f 17/17/15 19/20/15 23/22/15 21/21/15
f 18/18/16 17/17/16 21/21/16 22/24/16
f 20/19/17 18/18/17 22/24/17 24/23/17
f 19/20/18 20/19/18 24/23/18 23/22/18
o Leaves.031_Plane.065
v 0.748407 1.359129 0.201267
v 0.748407 1.359129 0.782067
v 0.537041 0.160417 0.201267
v 0.537042 0.160417 0.782067
v 0.741257 1.360389 0.201267
v 0.741257 1.360389 0.782067
v 0.529892 0.161677 0.201267
v 0.529892 0.161677 0.782067
vt 0.475340 0.999845
vt 0.015625 0.999923
vt 0.015625 0.000077
vt 0.475340 0.000000
vt 0.475340 0.999845
vt 0.475340 0.000000
vt 0.015625 0.000077
vt 0.015625 0.999923
vn 0.9848 -0.1736 -0.0000
vn -0.9848 0.1736 0.0000
vn -0.0000 -0.0000 -1.0000
vn 0.1736 0.9848 -0.0000
vn -0.0000 0.0000 1.0000
vn -0.1736 -0.9848 0.0000
usemtl Cypress_Leaves.001
s off
f 25/25/19 26/26/19 28/27/19 27/28/19
f 29/29/20 31/30/20 32/31/20 30/32/20
f 25/25/21 27/28/21 31/30/21 29/29/21
f 26/26/22 25/25/22 29/29/22 30/32/22
f 28/27/23 26/26/23 30/32/23 32/31/23
f 27/28/24 28/27/24 32/31/24 31/30/24
o Leaves.032_Plane.066
v 0.230307 1.833008 0.260600
v 0.753027 1.833008 0.260600
v 0.230307 0.754167 0.450829
v 0.753027 0.754167 0.450829
v 0.230307 1.834142 0.267035
v 0.753027 1.834142 0.267035
v 0.230307 0.755301 0.457264
v 0.753027 0.755301 0.457264
vt 0.475340 0.999845
vt 0.015625 0.999923
vt 0.015625 0.000077
vt 0.475340 0.000000
vt 0.475340 0.999845
vt 0.475340 0.000000
vt 0.015625 0.000077
vt 0.015625 0.999923
vn 0.0000 -0.1736 -0.9848
vn 0.0000 0.1736 0.9848
vn -1.0000 0.0000 0.0000
vn 0.0000 0.9848 -0.1736
vn 1.0000 0.0000 0.0000
vn 0.0000 -0.9848 0.1737
usemtl Cypress_Leaves.001
s off
f 33/33/25 34/34/25 36/35/25 35/36/25
f 37/37/26 39/38/26 40/39/26 38/40/26
f 33/33/27 35/36/27 39/38/27 37/37/27
f 34/34/28 33/33/28 37/37/28 38/40/28
f 36/35/29 34/34/29 38/40/29 40/39/29
f 35/36/30 36/35/30 40/39/30 39/38/30
o Leaves.033_Plane.067
v 0.753027 1.833008 0.722733
v 0.230307 1.833008 0.722733
v 0.753027 0.754167 0.532504
v 0.230307 0.754167 0.532504
v 0.753027 1.834142 0.716298
v 0.230307 1.834142 0.716298
v 0.753027 0.755301 0.526069
v 0.230307 0.755301 0.526070
vt 0.475340 0.999845
vt 0.015625 0.999923
vt 0.015625 0.000077
vt 0.475340 0.000000
vt 0.475340 0.999845
vt 0.475340 0.000000
vt 0.015625 0.000077
vt 0.015625 0.999923
vn 0.0000 -0.1736 0.9848
vn -0.0000 0.1736 -0.9848
vn 1.0000 0.0000 0.0000
vn 0.0000 0.9848 0.1737
vn -1.0000 0.0000 0.0000
vn -0.0000 -0.9848 -0.1737
usemtl Cypress_Leaves.001
s off
f 41/41/31 42/42/31 44/43/31 43/44/31
f 45/45/32 47/46/32 48/47/32 46/48/32
f 41/41/33 43/44/33 47/46/33 45/45/33
f 42/42/34 41/41/34 45/45/34 46/48/34
f 44/43/35 42/42/35 46/48/35 48/47/35
f 43/44/36 44/43/36 48/47/36 47/46/36
o Leaves.034_Plane.068
v 0.260600 1.833008 0.753027
v 0.260600 1.833008 0.230307
v 0.450829 0.754167 0.753027
v 0.450829 0.754167 0.230307
v 0.267035 1.834142 0.753027
v 0.267035 1.834142 0.230307
v 0.457264 0.755301 0.753027
v 0.457264 0.755301 0.230307
vt 0.475340 0.999845
vt 0.015625 0.999923
vt 0.015625 0.000077
vt 0.475340 0.000000
vt 0.475340 0.999845
vt 0.475340 0.000000
vt 0.015625 0.000077
vt 0.015625 0.999923
vn -0.9848 -0.1736 0.0000
vn 0.9848 0.1736 -0.0000
vn 0.0000 0.0000 1.0000
vn -0.1737 0.9848 0.0000
vn 0.0000 0.0000 -1.0000
vn 0.1737 -0.9848 0.0000
usemtl Cypress_Leaves.001
s off
f 49/49/37 50/50/37 52/51/37 51/52/37
f 53/53/38 55/54/38 56/55/38 54/56/38
f 49/49/39 51/52/39 55/54/39 53/53/39
f 50/50/40 49/49/40 53/53/40 54/56/40
f 52/51/41 50/50/41 54/56/41 56/55/41
f 51/52/42 52/51/42 56/55/42 55/54/42
o Leaves.035_Plane.069
v 0.722733 1.833008 0.230307
v 0.722733 1.833008 0.753027
v 0.532504 0.754167 0.230307
v 0.532504 0.754167 0.753027
v 0.716298 1.834142 0.230307
v 0.716298 1.834142 0.753027
v 0.526069 0.755301 0.230307
v 0.526069 0.755301 0.753027
vt 0.475340 0.999845
vt 0.015625 0.999923
vt 0.015625 0.000077
vt 0.475340 0.000000
vt 0.475340 0.999845
vt 0.475340 0.000000
vt 0.015625 0.000077
vt 0.015625 0.999923
vn 0.9848 -0.1736 -0.0000
vn -0.9848 0.1736 0.0000
vn 0.0000 -0.0000 -1.0000
vn 0.1737 0.9848 0.0000
vn 0.0000 0.0000 1.0000
vn -0.1736 -0.9848 0.0000
usemtl Cypress_Leaves.001
s off
f 57/57/43 58/58/43 60/59/43 59/60/43
f 61/61/44 63/62/44 64/63/44 62/64/44
f 57/57/45 59/60/45 63/62/45 61/61/45
f 58/58/46 57/57/46 61/61/46 62/64/46
f 60/59/47 58/58/47 62/64/47 64/63/47
f 59/60/48 60/59/48 64/63/48 63/62/48
o Leaves.036_Plane.070
v 0.254067 2.308771 0.367744
v 0.729267 2.308771 0.367744
v 0.254067 1.316667 0.454542
v 0.729267 1.316667 0.454542
v 0.254067 2.309289 0.373661
v 0.729267 2.309289 0.373661
v 0.254067 1.317184 0.460459
v 0.729267 1.317184 0.460459
vt 0.475340 0.999845
vt 0.015625 0.999923
vt 0.015625 0.000077
vt 0.475340 0.000000
vt 0.475340 0.999845
vt 0.475340 0.000000
vt 0.015625 0.000077
vt 0.015625 0.999923
vn 0.0000 -0.0872 -0.9962
vn 0.0000 0.0872 0.9962
vn -1.0000 0.0000 0.0000
vn 0.0000 0.9962 -0.0871
vn 1.0000 0.0000 0.0000
vn 0.0000 -0.9962 0.0872
usemtl Cypress_Leaves.001
s off
f 65/65/49 66/66/49 68/67/49 67/68/49
f 69/69/50 71/70/50 72/71/50 70/72/50
f 65/65/51 67/68/51 71/70/51 69/69/51
f 66/66/52 65/65/52 69/69/52 70/72/52
f 68/67/53 66/66/53 70/72/53 72/71/53
f 67/68/54 68/67/54 72/71/54 71/70/54
o Leaves.037_Plane.071
v 0.729267 2.308771 0.615590
v 0.254067 2.308771 0.615590
v 0.729267 1.316667 0.528792
v 0.254067 1.316667 0.528792
v 0.729267 2.309289 0.609672
v 0.254067 2.309289 0.609672
v 0.729267 1.317184 0.522874
v 0.254067 1.317184 0.522874
vt 0.475340 0.999845
vt 0.015625 0.999923
vt 0.015625 0.000077
vt 0.475340 0.000000
vt 0.475340 0.999845
vt 0.475340 0.000000
vt 0.015625 0.000077
vt 0.015625 0.999923
vn 0.0000 -0.0872 0.9962
vn -0.0000 0.0872 -0.9962
vn 1.0000 0.0000 0.0000
vn 0.0000 0.9962 0.0871
vn -1.0000 0.0000 0.0000
vn -0.0000 -0.9962 -0.0871
usemtl Cypress_Leaves.001
s off
f 73/73/55 74/74/55 76/75/55 75/76/55
f 77/77/56 79/78/56 80/79/56 78/80/56
f 73/73/57 75/76/57 79/78/57 77/77/57
f 74/74/58 73/73/58 77/77/58 78/80/58
f 76/75/59 74/74/59 78/80/59 80/79/59
f 75/76/60 76/75/60 80/79/60 79/78/60
o Leaves.038_Plane.072
v 0.367744 2.308771 0.729267
v 0.367744 2.308771 0.254067
v 0.454542 1.316667 0.729267
v 0.454542 1.316667 0.254067
v 0.373661 2.309289 0.729267
v 0.373661 2.309289 0.254067
v 0.460459 1.317184 0.729267
v 0.460459 1.317184 0.254067
vt 0.475340 0.999845
vt 0.015625 0.999923
vt 0.015625 0.000077
vt 0.475340 0.000000
vt 0.475340 0.999845
vt 0.475340 0.000000
vt 0.015625 0.000077
vt 0.015625 0.999923
vn -0.9962 -0.0872 0.0000
vn 0.9962 0.0872 -0.0000
vn 0.0000 0.0000 1.0000
vn -0.0871 0.9962 -0.0000
vn 0.0000 0.0000 -1.0000
vn 0.0872 -0.9962 0.0000
usemtl Cypress_Leaves.001
s off
f 81/81/61 82/82/61 84/83/61 83/84/61
f 85/85/62 87/86/62 88/87/62 86/88/62
f 81/81/63 83/84/63 87/86/63 85/85/63
f 82/82/64 81/81/64 85/85/64 86/88/64
f 84/83/65 82/82/65 86/88/65 88/87/65
f 83/84/66 84/83/66 88/87/66 87/86/66
o Leaves.039_Plane.073
v 0.615589 2.308771 0.254067
v 0.615589 2.308771 0.729267
v 0.528791 1.316667 0.254067
v 0.528792 1.316667 0.729267
v 0.609672 2.309289 0.254067
v 0.609672 2.309289 0.729267
v 0.522874 1.317184 0.254067
v 0.522874 1.317184 0.729267
vt 0.475340 0.999845
vt 0.015625 0.999923
vt 0.015625 0.000077
vt 0.475340 0.000000
vt 0.475340 0.999845
vt 0.475340 0.000000
vt 0.015625 0.000077
vt 0.015625 0.999923
vn 0.9962 -0.0872 -0.0000
vn -0.9962 0.0872 0.0000
vn 0.0000 -0.0000 -1.0000
vn 0.0871 0.9962 0.0000
vn 0.0000 0.0000 1.0000
vn -0.0872 -0.9962 0.0000
usemtl Cypress_Leaves.001
s off
f 89/89/67 90/90/67 92/91/67 91/92/67
f 93/93/68 95/94/68 96/95/68 94/96/68
f 89/89/69 91/92/69 95/94/69 93/93/69
f 90/90/70 89/89/70 93/93/70 94/96/70
f 92/91/71 90/90/71 94/96/71 96/95/71
f 91/92/72 92/91/72 96/95/72 95/94/72
o Leaves.040_Plane.074
v 0.681747 2.707132 0.491667
v 0.301587 2.707132 0.491667
v 0.681747 1.910417 0.491667
v 0.301587 1.910417 0.491667
v 0.681747 2.707132 0.486915
v 0.301587 2.707132 0.486915
v 0.681747 1.910417 0.486915
v 0.301587 1.910417 0.486915
vt 0.475340 0.999845
vt 0.015625 0.999923
vt 0.015625 0.000077
vt 0.475340 0.000000
vt 0.475340 0.999845
vt 0.475340 0.000000
vt 0.015625 0.000077
vt 0.015625 0.999923
vn 0.0000 -0.0000 1.0000
vn -0.0000 0.0000 -1.0000
vn 1.0000 -0.0000 0.0000
vn 0.0000 1.0000 0.0000
vn -1.0000 0.0000 0.0000
vn 0.0000 -1.0000 0.0000
usemtl Cypress_Leaves.001
s off
f 97/97/73 98/98/73 100/99/73 99/100/73
f 101/101/74 103/102/74 104/103/74 102/104/74
f 97/97/75 99/100/75 103/102/75 101/101/75
f 98/98/76 97/97/76 101/101/76 102/104/76
f 100/99/77 98/98/77 102/104/77 104/103/77
f 99/100/78 100/99/78 104/103/78 103/102/78
o Leaves.041_Plane.075
v 0.491667 2.707132 0.681747
v 0.491667 2.707132 0.301587
v 0.491667 1.910417 0.681747
v 0.491667 1.910417 0.301587
v 0.496419 2.707132 0.681747
v 0.496419 2.707132 0.301587
v 0.496419 1.910417 0.681747
v 0.496419 1.910417 0.301587
vt 0.475340 0.999845
vt 0.015625 0.999923
vt 0.015625 0.000077
vt 0.475340 0.000000
vt 0.475340 0.999845
vt 0.475340 0.000000
vt 0.015625 0.000077
vt 0.015625 0.999923
vn -1.0000 -0.0000 0.0000
vn 1.0000 0.0000 0.0000
vn 0.0000 -0.0000 1.0000
vn 0.0000 1.0000 0.0000
vn 0.0000 0.0000 -1.0000
vn 0.0000 -1.0000 0.0000
usemtl Cypress_Leaves.001
s off
f 105/105/79 106/106/79 108/107/79 107/108/79
f 109/109/80 111/110/80 112/111/80 110/112/80
f 105/105/81 107/108/81 111/110/81 109/109/81
f 106/106/82 105/105/82 109/109/82 110/112/82
f 108/107/83 106/106/83 110/112/83 112/111/83
f 107/108/84 108/107/84 112/111/84 111/110/84
o Trunk.004_Cube.008
v 0.461667 0.004167 0.521667
v 0.461667 0.160417 0.521667
v 0.461667 0.004167 0.461667
v 0.461667 0.160417 0.461667
v 0.521667 0.004167 0.521667
v 0.521667 0.160417 0.521667
v 0.521667 0.004167 0.461667
v 0.521667 0.160417 0.461667
vt 0.002702 0.995320
vt 0.002220 -0.004680
vt 1.002220 -0.005163
vt 1.002702 0.994837
vt 0.000839 1.000838
vt -0.000838 0.000839
vt 0.999161 -0.000838
vt 1.000838 0.999161
vt -0.000261 0.999739
vt 0.000261 -0.000261
vt 1.000261 0.000261
vt 0.999739 1.000261
vt -0.000609 0.999391
vt 0.000609 -0.000609
vt 1.000609 0.000609
vt 0.999391 1.000609
vt 0.000000 0.000000
vt 1.000000 0.000000
vt 1.000000 1.000000
vt 0.000000 1.000000
vt 0.000000 0.000000
vt 1.000000 0.000000
vt 1.000000 1.000000
vt 0.000000 1.000000
vn -1.0000 0.0000 0.0000
vn 0.0000 0.0000 -1.0000
vn 1.0000 0.0000 0.0000
vn 0.0000 0.0000 1.0000
vn 0.0000 -1.0000 0.0000
vn 0.0000 1.0000 0.0000
usemtl Wood
s off
f 113/113/85 114/114/85 116/115/85 115/116/85
f 115/117/86 116/118/86 120/119/86 119/120/86
f 119/121/87 120/122/87 118/123/87 117/124/87
f 117/125/88 118/126/88 114/127/88 113/128/88
f 115/129/89 119/130/89 117/131/89 113/132/89
f 120/133/90 116/134/90 114/135/90 118/136/90
