# Blender 3.6.1
# www.blender.org
mtllib palm_leaves.mtl
o Plane
v 0.331726 1.732693 0.388623
v 0.331726 1.117559 -0.180226
v 0.330669 0.374803 1.857000
v 0.330669 -0.240331 1.288152
v 0.327208 0.374804 1.856999
v 0.328264 1.732695 0.388621
v 0.328264 1.117561 -0.180227
v 0.327208 -0.240330 1.288150
vn 1.0000 -0.0004 0.0004
vn -1.0000 0.0004 -0.0004
vn -0.0005 -0.6789 0.7342
vn 0.0006 0.6790 -0.7342
vn -0.0000 -0.7342 -0.6789
vn -0.0000 0.7342 0.6790
vt 0.617534 1.000000
vt 0.000000 0.999481
vt 0.009535 0.745171
vt 0.627070 0.745691
vt 0.009535 0.745171
s 0
usemtl Material.002
f 1/1/1 3/2/1 4/3/1 2/4/1
f 6/1/2 7/4/2 8/5/2 5/2/2
f 4/5/3 3/2/3 5/2/3 8/5/3
f 1/1/4 2/4/4 7/4/4 6/1/4
f 2/4/5 4/5/5 8/5/5 7/4/5
f 3/2/6 1/1/6 6/1/6 5/2/6
o Plane.001
v -0.425197 1.028888 -0.272925
v -0.588415 0.207187 -0.285044
v 0.446087 0.829433 1.516232
v 0.282869 0.007733 1.504113
v 0.443045 0.830015 1.517778
v -0.428239 1.029470 -0.271379
v -0.591457 0.207769 -0.283497
v 0.279827 0.008314 1.505659
vn 0.8788 -0.1680 -0.4467
vn -0.8788 0.1680 0.4467
vn 0.4356 -0.0997 0.8946
vn -0.4356 0.0997 -0.8946
vn -0.1948 -0.9807 -0.0145
vn 0.1948 0.9807 0.0145
vt 0.617534 1.000000
vt 0.000000 0.999481
vt 0.009535 0.745171
vt 0.627070 0.745691
vt 0.009535 0.745171
s 0
usemtl Material.004
f 9/6/7 11/7/7 12/8/7 10/9/7
f 14/6/8 15/9/8 16/10/8 13/7/8
f 12/10/9 11/7/9 13/7/9 16/10/9
f 9/6/10 10/9/10 15/9/10 14/6/10
f 10/9/11 12/10/11 16/10/11 15/9/11
f 11/7/12 9/6/12 14/6/12 13/7/12
o Plane.002
v 1.077343 -0.257281 -0.422779
v 1.135593 -0.964487 0.022694
v 0.266561 0.668884 1.153562
v 0.324811 -0.038322 1.599035
v 0.263406 0.667948 1.152489
v 1.074187 -0.258217 -0.423852
v 1.132437 -0.965423 0.021621
v 0.321655 -0.039258 1.597962
vn 0.9115 0.2703 0.3100
vn -0.9115 -0.2703 -0.3100
vn -0.4054 0.4631 0.7882
vn 0.4054 -0.4631 -0.7882
vn 0.0695 -0.8441 0.5317
vn -0.0695 0.8441 -0.5317
vt 0.617534 1.000000
vt 0.000000 0.999481
vt 0.009535 0.745171
vt 0.627070 0.745691
vt 0.009535 0.745171
s 0
usemtl Material.005
f 17/11/13 19/12/13 20/13/13 18/14/13
f 22/11/14 23/14/14 24/15/14 21/12/14
f 20/15/15 19/12/15 21/12/15 24/15/15
f 17/11/16 18/14/16 23/14/16 22/11/16
f 18/14/17 20/15/17 24/15/17 23/14/17
f 19/12/18 17/11/18 22/11/18 21/12/18
